{"glyphs":{"0":{"ha":772,"x_min":54,"x_max":718,"o":"m 386 -17 q 204 27 276 -17 q 93 179 132 71 q 54 476 54 288 q 93 774 54 665 q 204 926 132 882 q 386 969 276 969 q 568 925 496 969 q 679 773 640 881 q 718 476 718 665 q 679 180 718 288 q 568 28 640 72 q 386 -17 496 -17 m 386 101 q 500 141 460 101 q 556 256 540 181 q 571 451 571 331 l 571 492 q 556 694 571 617 q 500 811 540 771 q 386 851 460 851 q 272 812 313 851 q 217 697 232 772 q 201 501 201 622 l 201 461 q 217 259 201 336 q 272 142 232 182 q 386 101 313 101 z "},"1":{"ha":772,"x_min":125,"x_max":729,"o":"m 126 118 l 365 118 l 365 761 l 125 761 l 125 849 q 284 885 192 856 q 446 953 376 914 l 508 953 l 508 118 l 729 118 l 729 0 l 126 0 l 126 118 z "},"2":{"ha":772,"x_min":56,"x_max":714,"o":"m 56 43 q 93 183 56 119 q 184 293 131 246 q 326 406 238 340 q 446 499 403 463 q 518 576 489 535 q 561 703 561 635 q 523 805 561 761 q 396 849 485 849 q 258 803 303 849 q 214 682 214 758 l 214 625 l 71 625 q 68 644 69 629 q 67 681 67 660 q 162 897 67 825 q 403 969 257 969 q 630 892 551 969 q 708 692 708 815 q 667 542 708 610 q 565 422 625 474 q 413 304 506 369 q 367 271 404 297 q 304 222 331 244 q 260 179 278 199 q 226 133 243 161 l 714 133 l 714 0 l 56 0 l 56 43 z "},"3":{"ha":772,"x_min":49,"x_max":722,"o":"m 390 -17 q 138 60 226 -17 q 49 269 49 138 l 49 285 l 193 285 l 193 265 q 242 144 193 186 q 382 101 290 101 q 522 142 471 101 q 574 265 574 183 q 374 425 574 425 l 282 425 l 282 543 l 378 543 q 503 584 453 543 q 554 700 554 625 q 507 814 554 776 q 386 851 460 851 q 260 812 307 851 q 214 696 214 772 l 214 679 l 68 679 l 68 708 q 108 845 68 786 q 220 937 149 904 q 383 969 292 969 q 615 901 529 969 q 701 708 701 833 q 660 578 701 629 q 546 494 619 528 l 546 489 q 674 406 626 465 q 722 256 722 346 q 680 110 722 172 q 563 16 638 49 q 390 -17 488 -17 z "},"4":{"ha":772,"x_min":32,"x_max":731,"o":"m 465 225 l 32 225 l 32 344 q 288 969 213 643 l 440 969 q 361 724 414 853 q 253 490 308 594 q 167 343 199 386 l 465 343 l 465 624 q 536 828 510 728 l 608 828 l 608 343 l 731 343 l 731 225 l 608 225 l 608 0 l 465 0 l 465 225 z "},"5":{"ha":772,"x_min":50,"x_max":715,"o":"m 383 -17 q 140 67 231 -17 q 50 296 50 151 l 197 296 q 249 153 197 207 q 383 100 301 100 q 518 154 468 100 q 568 311 568 208 q 520 453 568 403 q 392 503 472 503 q 290 476 336 503 q 217 406 244 449 l 83 425 l 121 953 l 667 953 l 667 819 l 243 819 l 224 554 q 426 619 310 619 q 635 541 554 619 q 715 311 715 463 q 627 69 715 156 q 383 -17 539 -17 z "},"6":{"ha":772,"x_min":54,"x_max":722,"o":"m 406 -17 q 143 90 232 -17 q 54 449 54 196 q 94 755 54 640 q 209 919 133 869 q 400 969 285 969 q 619 888 547 969 q 692 672 692 807 l 546 672 q 508 806 546 760 q 393 851 469 851 q 244 769 283 851 q 201 517 204 686 q 294 583 235 556 q 426 611 354 611 q 647 524 572 611 q 722 297 722 438 q 681 131 722 203 q 568 22 640 60 q 406 -17 496 -17 m 396 101 q 530 157 485 101 q 575 301 575 213 q 530 442 575 389 q 396 496 485 496 q 260 441 307 496 q 214 297 214 386 q 260 156 214 211 q 396 101 307 101 z "},"7":{"ha":772,"x_min":50,"x_max":729,"o":"m 196 0 q 294 430 196 219 q 538 819 393 640 l 50 819 l 50 953 l 729 953 l 729 863 q 462 475 572 681 q 351 71 351 269 q 353 0 351 33 l 196 0 z "},"8":{"ha":772,"x_min":50,"x_max":721,"o":"m 385 -17 q 133 60 217 -17 q 50 261 50 138 q 206 489 50 428 q 108 578 142 522 q 75 704 75 635 q 110 839 75 779 q 216 934 146 899 q 385 969 286 969 q 554 934 485 969 q 659 839 624 899 q 694 704 694 779 q 661 578 694 635 q 564 489 628 522 q 721 261 721 428 q 638 60 721 138 q 385 -17 554 -17 m 385 546 q 507 586 463 546 q 551 699 551 626 q 507 812 551 771 q 385 853 463 853 q 264 812 308 853 q 219 699 219 771 q 263 586 219 626 q 385 546 307 546 m 385 100 q 525 144 476 100 q 574 265 574 188 q 525 385 574 342 q 385 428 476 428 q 247 385 294 428 q 199 265 199 342 q 247 144 199 188 q 385 100 294 100 z "},"9":{"ha":772,"x_min":50,"x_max":718,"o":"m 372 -17 q 153 65 225 -17 q 81 281 81 146 l 226 281 q 265 147 226 193 q 379 101 303 101 q 528 184 489 101 q 571 436 568 267 q 481 369 539 397 q 350 342 422 342 q 126 428 201 342 q 50 656 50 515 q 91 822 50 750 q 204 931 132 893 q 367 969 276 969 q 629 863 540 969 q 718 504 718 757 q 678 198 718 313 q 563 33 639 83 q 372 -17 488 -17 m 376 457 q 512 512 465 457 q 558 656 558 567 q 512 797 558 742 q 376 851 465 851 q 242 796 288 851 q 197 651 197 740 q 242 510 197 564 q 376 457 288 457 z "},"\u0000":{"ha":0,"x_min":0,"x_max":0,"o":""},"\r":{"ha":386,"x_min":0,"x_max":0,"o":""}," ":{"ha":386,"x_min":0,"x_max":0,"o":""},"A":{"ha":950,"x_min":7,"x_max":942,"o":"m 7 0 l 378 953 l 572 953 l 942 0 l 778 0 l 690 232 l 251 232 l 165 0 l 7 0 m 640 364 l 536 643 l 474 821 l 467 821 l 406 646 l 300 364 l 640 364 z "},"Á":{"ha":950,"x_min":7,"x_max":942,"o":"m 7 0 m 7 0 l 378 953 l 572 953 l 942 0 l 778 0 l 690 232 l 251 232 l 165 0 l 7 0 m 640 364 l 536 643 l 474 821 l 467 821 l 406 646 l 300 364 l 640 364 m 415 1022 l 532 1206 l 681 1206 l 682 1201 l 532 1022 l 415 1022 z "},"Ă":{"ha":950,"x_min":7,"x_max":942,"o":"m 7 0 m 7 0 l 378 953 l 572 953 l 942 0 l 778 0 l 690 232 l 251 232 l 165 0 l 7 0 m 640 364 l 536 643 l 474 821 l 467 821 l 406 646 l 300 364 l 640 364 m 474 1035 q 315 1085 365 1035 q 265 1206 265 1136 l 363 1206 q 393 1156 368 1178 q 474 1135 418 1135 q 556 1156 529 1135 q 586 1206 582 1178 l 683 1206 q 633 1085 683 1136 q 474 1035 582 1035 z "},"Ắ":{"ha":950,"x_min":7,"x_max":942,"o":"m 7 0 m 7 0 l 378 953 l 572 953 l 942 0 l 778 0 l 690 232 l 251 232 l 165 0 l 7 0 m 640 364 l 536 643 l 474 821 l 467 821 l 406 646 l 300 364 l 640 364 m 474 1035 q 315 1085 365 1035 q 265 1206 265 1136 l 363 1206 q 393 1156 368 1178 q 474 1135 418 1135 q 556 1156 529 1135 q 586 1206 582 1178 l 683 1206 q 633 1085 683 1136 q 474 1035 582 1035 m 415 1206 l 532 1389 l 681 1389 l 682 1385 l 532 1206 l 415 1206 z "},"Ặ":{"ha":950,"x_min":7,"x_max":942,"o":"m 7 0 m 7 0 l 378 953 l 572 953 l 942 0 l 778 0 l 690 232 l 251 232 l 165 0 l 7 0 m 640 364 l 536 643 l 474 821 l 467 821 l 406 646 l 300 364 l 640 364 m 474 1035 q 315 1085 365 1035 q 265 1206 265 1136 l 363 1206 q 393 1156 368 1178 q 474 1135 418 1135 q 556 1156 529 1135 q 586 1206 582 1178 l 683 1206 q 633 1085 683 1136 q 474 1035 582 1035 m 404 -240 l 404 -94 l 546 -94 l 546 -240 l 404 -240 z "},"Ằ":{"ha":950,"x_min":7,"x_max":942,"o":"m 7 0 m 7 0 l 378 953 l 572 953 l 942 0 l 778 0 l 690 232 l 251 232 l 165 0 l 7 0 m 640 364 l 536 643 l 474 821 l 467 821 l 406 646 l 300 364 l 640 364 m 474 1035 q 315 1085 365 1035 q 265 1206 265 1136 l 363 1206 q 393 1156 368 1178 q 474 1135 418 1135 q 556 1156 529 1135 q 586 1206 582 1178 l 683 1206 q 633 1085 683 1136 q 474 1035 582 1035 m 413 1206 l 263 1385 l 264 1389 l 413 1389 l 529 1206 l 413 1206 z "},"Ẳ":{"ha":950,"x_min":7,"x_max":942,"o":"m 7 0 m 7 0 l 378 953 l 572 953 l 942 0 l 778 0 l 690 232 l 251 232 l 165 0 l 7 0 m 640 364 l 536 643 l 474 821 l 467 821 l 406 646 l 300 364 l 640 364 m 474 1035 q 315 1085 365 1035 q 265 1206 265 1136 l 363 1206 q 393 1156 368 1178 q 474 1135 418 1135 q 556 1156 529 1135 q 586 1206 582 1178 l 683 1206 q 633 1085 683 1136 q 474 1035 582 1035 m 435 1288 l 453 1288 q 485 1294 475 1288 q 494 1313 494 1300 q 483 1332 494 1326 q 450 1338 472 1338 l 367 1338 l 367 1394 q 472 1406 415 1406 q 568 1387 526 1406 q 610 1322 610 1368 q 583 1266 610 1286 q 517 1243 557 1246 l 517 1206 l 435 1206 l 435 1288 z "},"Ẵ":{"ha":950,"x_min":7,"x_max":942,"o":"m 7 0 m 7 0 l 378 953 l 572 953 l 942 0 l 778 0 l 690 232 l 251 232 l 165 0 l 7 0 m 640 364 l 536 643 l 474 821 l 467 821 l 406 646 l 300 364 l 640 364 m 474 1035 q 315 1085 365 1035 q 265 1206 265 1136 l 363 1206 q 393 1156 368 1178 q 474 1135 418 1135 q 556 1156 529 1135 q 586 1206 582 1178 l 683 1206 q 633 1085 683 1136 q 474 1035 582 1035 m 249 1275 q 279 1385 249 1342 q 372 1428 310 1428 q 419 1422 397 1428 q 478 1404 440 1417 q 529 1388 508 1393 q 572 1382 550 1382 q 614 1428 608 1382 l 707 1428 q 676 1318 707 1361 q 582 1275 644 1275 q 537 1281 557 1275 q 478 1299 517 1286 q 424 1315 444 1310 q 382 1321 404 1321 q 340 1275 346 1321 l 249 1275 z "},"Ǎ":{"ha":950,"x_min":7,"x_max":942,"o":"m 7 0 m 7 0 l 378 953 l 572 953 l 942 0 l 778 0 l 690 232 l 251 232 l 165 0 l 7 0 m 640 364 l 536 643 l 474 821 l 467 821 l 406 646 l 300 364 l 640 364 m 408 1018 l 261 1206 l 396 1206 l 475 1100 l 553 1206 l 688 1206 l 542 1018 l 408 1018 z "},"Â":{"ha":950,"x_min":7,"x_max":942,"o":"m 7 0 m 7 0 l 378 953 l 572 953 l 942 0 l 778 0 l 690 232 l 251 232 l 165 0 l 7 0 m 640 364 l 536 643 l 474 821 l 467 821 l 406 646 l 300 364 l 640 364 m 261 1018 l 408 1206 l 542 1206 l 688 1018 l 553 1018 l 475 1124 l 396 1018 l 261 1018 z "},"Ấ":{"ha":950,"x_min":7,"x_max":942,"o":"m 7 0 m 7 0 l 378 953 l 572 953 l 942 0 l 778 0 l 690 232 l 251 232 l 165 0 l 7 0 m 640 364 l 536 643 l 474 821 l 467 821 l 406 646 l 300 364 l 640 364 m 261 1018 l 408 1206 l 542 1206 l 688 1018 l 553 1018 l 475 1124 l 396 1018 l 261 1018 m 606 1154 l 722 1338 l 871 1338 l 872 1333 l 722 1154 l 606 1154 z "},"Ậ":{"ha":950,"x_min":7,"x_max":942,"o":"m 7 0 m 7 0 l 378 953 l 572 953 l 942 0 l 778 0 l 690 232 l 251 232 l 165 0 l 7 0 m 640 364 l 536 643 l 474 821 l 467 821 l 406 646 l 300 364 l 640 364 m 261 1018 l 408 1206 l 542 1206 l 688 1018 l 553 1018 l 475 1124 l 396 1018 l 261 1018 m 404 -240 l 404 -94 l 546 -94 l 546 -240 l 404 -240 z "},"Ầ":{"ha":950,"x_min":7,"x_max":942,"o":"m 7 0 m 7 0 l 378 953 l 572 953 l 942 0 l 778 0 l 690 232 l 251 232 l 165 0 l 7 0 m 640 364 l 536 643 l 474 821 l 467 821 l 406 646 l 300 364 l 640 364 m 261 1018 l 408 1206 l 542 1206 l 688 1018 l 553 1018 l 475 1124 l 396 1018 l 261 1018 m 661 1154 l 511 1333 l 513 1338 l 661 1338 l 778 1154 l 661 1154 z "},"Ẩ":{"ha":950,"x_min":7,"x_max":942,"o":"m 7 0 m 7 0 l 378 953 l 572 953 l 942 0 l 778 0 l 690 232 l 251 232 l 165 0 l 7 0 m 640 364 l 536 643 l 474 821 l 467 821 l 406 646 l 300 364 l 640 364 m 261 1018 l 408 1206 l 542 1206 l 688 1018 l 553 1018 l 475 1124 l 396 1018 l 261 1018 m 625 1236 l 643 1236 q 675 1242 665 1236 q 685 1261 685 1249 q 674 1281 685 1275 q 640 1286 663 1286 l 557 1286 l 557 1343 q 663 1354 606 1354 q 758 1335 717 1354 q 800 1271 800 1317 q 774 1215 800 1235 q 707 1192 747 1194 l 707 1154 l 625 1154 l 625 1236 z "},"Ẫ":{"ha":950,"x_min":7,"x_max":942,"o":"m 7 0 m 7 0 l 378 953 l 572 953 l 942 0 l 778 0 l 690 232 l 251 232 l 165 0 l 7 0 m 640 364 l 536 643 l 474 821 l 467 821 l 406 646 l 300 364 l 640 364 m 261 1018 l 408 1206 l 542 1206 l 688 1018 l 553 1018 l 475 1124 l 396 1018 l 261 1018 m 249 1275 q 279 1385 249 1342 q 372 1428 310 1428 q 419 1422 397 1428 q 478 1404 440 1417 q 529 1388 508 1393 q 572 1382 550 1382 q 614 1428 608 1382 l 707 1428 q 676 1318 707 1361 q 582 1275 644 1275 q 537 1281 557 1275 q 478 1299 517 1286 q 424 1315 444 1310 q 382 1321 404 1321 q 340 1275 346 1321 l 249 1275 z "},"Ȁ":{"ha":950,"x_min":7,"x_max":942,"o":"m 7 0 m 7 0 l 378 953 l 572 953 l 942 0 l 778 0 l 690 232 l 251 232 l 165 0 l 7 0 m 640 364 l 536 643 l 474 821 l 467 821 l 406 646 l 300 364 l 640 364 m 335 1022 l 208 1201 l 210 1206 l 360 1206 l 453 1022 l 335 1022 m 543 1022 l 417 1201 l 418 1206 l 568 1206 l 661 1022 l 543 1022 z "},"Ä":{"ha":950,"x_min":7,"x_max":942,"o":"m 7 0 m 7 0 l 378 953 l 572 953 l 942 0 l 778 0 l 690 232 l 251 232 l 165 0 l 7 0 m 640 364 l 536 643 l 474 821 l 467 821 l 406 646 l 300 364 l 640 364 m 272 1064 l 272 1206 l 407 1206 l 407 1064 l 272 1064 m 542 1064 l 542 1206 l 676 1206 l 676 1064 l 542 1064 z "},"Ạ":{"ha":950,"x_min":7,"x_max":942,"o":"m 7 0 m 7 0 l 378 953 l 572 953 l 942 0 l 778 0 l 690 232 l 251 232 l 165 0 l 7 0 m 640 364 l 536 643 l 474 821 l 467 821 l 406 646 l 300 364 l 640 364 m 404 -240 l 404 -94 l 546 -94 l 546 -240 l 404 -240 z "},"À":{"ha":950,"x_min":7,"x_max":942,"o":"m 7 0 m 7 0 l 378 953 l 572 953 l 942 0 l 778 0 l 690 232 l 251 232 l 165 0 l 7 0 m 640 364 l 536 643 l 474 821 l 467 821 l 406 646 l 300 364 l 640 364 m 415 1022 l 265 1201 l 267 1206 l 415 1206 l 532 1022 l 415 1022 z "},"Ả":{"ha":950,"x_min":7,"x_max":942,"o":"m 7 0 m 7 0 l 378 953 l 572 953 l 942 0 l 778 0 l 690 232 l 251 232 l 165 0 l 7 0 m 640 364 l 536 643 l 474 821 l 467 821 l 406 646 l 300 364 l 640 364 m 435 1104 l 453 1104 q 485 1110 475 1104 q 494 1129 494 1117 q 483 1149 494 1143 q 450 1154 472 1154 l 367 1154 l 367 1211 q 472 1222 415 1222 q 568 1203 526 1222 q 610 1139 610 1185 q 583 1083 610 1103 q 517 1060 557 1063 l 517 1022 l 435 1022 l 435 1104 z "},"Ȃ":{"ha":950,"x_min":7,"x_max":942,"o":"m 7 0 m 7 0 l 378 953 l 572 953 l 942 0 l 778 0 l 690 232 l 251 232 l 165 0 l 7 0 m 640 364 l 536 643 l 474 821 l 467 821 l 406 646 l 300 364 l 640 364 m 265 1035 q 315 1155 265 1104 q 474 1206 365 1206 q 633 1155 582 1206 q 683 1035 683 1104 l 586 1035 q 556 1084 582 1063 q 474 1106 529 1106 q 393 1084 418 1106 q 363 1035 368 1063 l 265 1035 z "},"Ā":{"ha":950,"x_min":7,"x_max":942,"o":"m 7 0 m 7 0 l 378 953 l 572 953 l 942 0 l 778 0 l 690 232 l 251 232 l 165 0 l 7 0 m 640 364 l 536 643 l 474 821 l 467 821 l 406 646 l 300 364 l 640 364 m 263 1065 l 263 1172 l 686 1172 l 686 1065 l 263 1065 z "},"Ą":{"ha":950,"x_min":7,"x_max":943,"o":"m 847 -253 q 749 -224 789 -253 q 708 -129 708 -194 q 726 -58 708 -87 q 778 0 744 -28 l 690 232 l 251 232 l 165 0 l 7 0 l 378 953 l 572 953 l 942 0 l 879 0 q 842 -43 857 -18 q 828 -96 828 -68 q 896 -161 828 -161 l 943 -161 l 943 -233 q 847 -253 893 -253 m 640 364 l 536 643 l 474 821 l 467 821 l 406 646 l 300 364 l 640 364 z "},"Å":{"ha":950,"x_min":7,"x_max":942,"o":"m 7 0 m 7 0 l 378 953 l 572 953 l 942 0 l 778 0 l 690 232 l 251 232 l 165 0 l 7 0 m 640 364 l 536 643 l 474 821 l 467 821 l 406 646 l 300 364 l 640 364 m 475 983 q 376 1022 414 983 q 339 1118 339 1061 q 376 1215 339 1176 q 475 1254 413 1254 q 574 1215 538 1254 q 611 1118 611 1176 q 574 1022 611 1061 q 475 983 536 983 m 475 1051 q 524 1071 506 1051 q 543 1118 543 1090 q 524 1167 543 1147 q 475 1186 506 1186 q 426 1167 444 1186 q 407 1118 407 1147 q 426 1071 407 1090 q 475 1051 446 1051 z "},"Ǻ":{"ha":950,"x_min":7,"x_max":942,"o":"m 414 1196 l 531 1379 l 679 1379 l 681 1375 l 531 1196 l 414 1196 m 372 939 q 339 1028 339 975 q 376 1124 339 1086 q 475 1163 413 1163 q 573 1124 536 1163 q 610 1028 610 1086 q 578 939 610 974 l 942 0 l 778 0 l 690 232 l 251 232 l 165 0 l 7 0 l 372 939 m 475 960 q 523 979 504 960 q 542 1028 542 999 q 523 1076 542 1057 q 475 1096 504 1096 q 426 1076 444 1096 q 407 1028 407 1057 q 426 979 407 999 q 475 960 446 960 m 640 364 l 536 643 l 474 821 l 467 821 l 406 646 l 300 364 l 640 364 z "},"Ã":{"ha":950,"x_min":7,"x_max":942,"o":"m 7 0 m 7 0 l 378 953 l 572 953 l 942 0 l 778 0 l 690 232 l 251 232 l 165 0 l 7 0 m 640 364 l 536 643 l 474 821 l 467 821 l 406 646 l 300 364 l 640 364 m 246 1053 q 276 1163 246 1119 q 369 1206 307 1206 q 416 1200 394 1206 q 475 1182 438 1194 q 526 1165 506 1171 q 569 1160 547 1160 q 611 1206 606 1160 l 704 1206 q 673 1096 704 1139 q 579 1053 642 1053 q 534 1058 554 1053 q 475 1076 514 1064 q 422 1093 442 1088 q 379 1099 401 1099 q 338 1053 343 1099 l 246 1053 z "},"Æ":{"ha":1389,"x_min":-3,"x_max":1314,"o":"m -3 0 l 471 953 l 1306 953 l 1306 821 l 711 821 l 786 553 l 1244 553 l 1244 421 l 822 421 l 903 132 l 1314 132 l 1314 0 l 782 0 l 718 232 l 264 232 l 153 0 l -3 0 m 328 364 l 682 364 l 558 821 l 551 821 l 328 364 z "},"Ǽ":{"ha":1389,"x_min":-3,"x_max":1314,"o":"m 0 0 m -3 0 l 471 953 l 1306 953 l 1306 821 l 711 821 l 786 553 l 1244 553 l 1244 421 l 822 421 l 903 132 l 1314 132 l 1314 0 l 782 0 l 718 232 l 264 232 l 153 0 l -3 0 m 328 364 l 682 364 l 558 821 l 551 821 l 328 364 m 635 1022 l 751 1206 l 900 1206 l 901 1201 l 751 1022 l 635 1022 z "},"B":{"ha":950,"x_min":104,"x_max":883,"o":"m 104 953 l 590 953 q 728 924 668 953 q 823 841 789 894 q 857 718 857 788 q 813 581 857 639 q 699 500 769 522 l 699 494 q 833 415 782 476 q 883 257 883 353 q 803 65 883 129 q 590 0 722 0 l 104 0 l 104 953 m 556 554 q 660 591 621 554 q 700 688 700 628 q 664 788 700 754 q 565 821 628 821 l 258 821 l 258 554 l 556 554 m 579 132 q 688 167 649 132 q 726 275 726 201 q 686 385 726 347 q 568 422 646 422 l 258 422 l 258 132 l 579 132 z "},"C":{"ha":1003,"x_min":63,"x_max":942,"o":"m 526 -17 q 181 106 299 -17 q 63 476 63 228 q 181 847 63 724 q 526 969 299 969 q 827 876 713 969 q 942 606 942 783 l 785 606 q 715 778 785 718 q 528 839 646 839 q 297 753 371 839 q 221 485 222 668 l 221 469 q 296 199 221 285 q 528 114 371 114 q 720 173 650 114 q 790 344 790 232 l 942 344 q 828 74 942 165 q 526 -17 714 -17 z "},"Ć":{"ha":1003,"x_min":63,"x_max":942,"o":"m 63 0 m 526 -17 q 181 106 299 -17 q 63 476 63 228 q 181 847 63 724 q 526 969 299 969 q 827 876 713 969 q 942 606 942 783 l 785 606 q 715 778 785 718 q 528 839 646 839 q 297 753 371 839 q 221 485 222 668 l 221 469 q 296 199 221 285 q 528 114 371 114 q 720 173 650 114 q 790 344 790 232 l 942 344 q 828 74 942 165 q 526 -17 714 -17 m 442 1022 l 558 1206 l 707 1206 l 708 1201 l 558 1022 l 442 1022 z "},"Č":{"ha":1003,"x_min":63,"x_max":942,"o":"m 63 0 m 526 -17 q 181 106 299 -17 q 63 476 63 228 q 181 847 63 724 q 526 969 299 969 q 827 876 713 969 q 942 606 942 783 l 785 606 q 715 778 785 718 q 528 839 646 839 q 297 753 371 839 q 221 485 222 668 l 221 469 q 296 199 221 285 q 528 114 371 114 q 720 173 650 114 q 790 344 790 232 l 942 344 q 828 74 942 165 q 526 -17 714 -17 m 435 1018 l 288 1206 l 422 1206 l 501 1100 l 579 1206 l 714 1206 l 568 1018 l 435 1018 z "},"Ç":{"ha":1003,"x_min":63,"x_max":942,"o":"m 528 114 q 720 173 650 114 q 790 344 790 232 l 942 344 q 840 84 942 175 q 565 -15 738 -7 l 561 -49 q 655 -74 619 -53 q 690 -140 690 -96 q 638 -228 690 -203 q 519 -253 586 -253 q 383 -242 446 -253 l 383 -174 l 517 -174 q 561 -166 546 -174 q 576 -140 576 -158 q 564 -115 576 -124 q 521 -107 551 -107 l 454 -107 l 469 -15 q 166 122 269 0 q 63 476 63 243 q 181 847 63 724 q 526 969 299 969 q 827 876 713 969 q 942 606 942 783 l 785 606 q 715 778 785 718 q 528 839 646 839 q 297 753 371 839 q 221 485 222 668 l 221 469 q 296 199 221 285 q 528 114 371 114 z "},"Ĉ":{"ha":1003,"x_min":63,"x_max":942,"o":"m 63 0 m 526 -17 q 181 106 299 -17 q 63 476 63 228 q 181 847 63 724 q 526 969 299 969 q 827 876 713 969 q 942 606 942 783 l 785 606 q 715 778 785 718 q 528 839 646 839 q 297 753 371 839 q 221 485 222 668 l 221 469 q 296 199 221 285 q 528 114 371 114 q 720 173 650 114 q 790 344 790 232 l 942 344 q 828 74 942 165 q 526 -17 714 -17 m 288 1018 l 435 1206 l 568 1206 l 714 1018 l 579 1018 l 501 1124 l 422 1018 l 288 1018 z "},"Ċ":{"ha":1003,"x_min":63,"x_max":942,"o":"m 63 0 m 526 -17 q 181 106 299 -17 q 63 476 63 228 q 181 847 63 724 q 526 969 299 969 q 827 876 713 969 q 942 606 942 783 l 785 606 q 715 778 785 718 q 528 839 646 839 q 297 753 371 839 q 221 485 222 668 l 221 469 q 296 199 221 285 q 528 114 371 114 q 720 173 650 114 q 790 344 790 232 l 942 344 q 828 74 942 165 q 526 -17 714 -17 m 431 1060 l 431 1206 l 572 1206 l 572 1060 l 431 1060 z "},"D":{"ha":1003,"x_min":104,"x_max":940,"o":"m 104 953 l 471 953 q 818 835 696 953 q 940 476 940 717 q 818 118 940 236 q 471 0 696 0 l 104 0 l 104 953 m 471 132 q 702 213 622 132 q 782 468 782 294 l 782 483 q 702 740 782 658 q 471 821 622 821 l 258 821 l 258 132 l 471 132 z "},"Ǳ":{"ha":1851,"x_min":104,"x_max":1819,"o":"m 104 0 m 104 953 l 471 953 q 818 835 696 953 q 940 476 940 717 q 818 118 940 236 q 471 0 696 0 l 104 0 l 104 953 m 471 132 q 702 213 622 132 q 782 468 782 294 l 782 483 q 702 740 782 658 q 471 821 622 821 l 258 821 l 258 132 l 471 132 m 1032 0 l 1032 76 l 1576 821 l 1068 821 l 1068 953 l 1807 953 l 1807 876 l 1263 132 l 1819 132 l 1819 0 l 1032 0 z "},"Ǆ":{"ha":1851,"x_min":104,"x_max":1819,"o":"m 104 0 m 104 953 l 471 953 q 818 835 696 953 q 940 476 940 717 q 818 118 940 236 q 471 0 696 0 l 104 0 l 104 953 m 471 132 q 702 213 622 132 q 782 468 782 294 l 782 483 q 702 740 782 658 q 471 821 622 821 l 258 821 l 258 132 l 471 132 m 1032 0 l 1032 76 l 1576 821 l 1068 821 l 1068 953 l 1807 953 l 1807 876 l 1263 132 l 1819 132 l 1819 0 l 1032 0 m 1361 1018 l 1214 1206 l 1349 1206 l 1428 1100 l 1506 1206 l 1640 1206 l 1494 1018 l 1361 1018 z "},"Ð":{"ha":1003,"x_min":7,"x_max":940,"o":"m 471 953 q 818 835 696 953 q 940 476 940 717 q 818 118 940 236 q 471 0 696 0 l 104 0 l 104 444 l 7 444 l 7 542 l 104 542 l 104 953 l 471 953 m 782 483 q 702 740 782 658 q 471 821 622 821 l 258 821 l 258 542 l 483 542 l 483 444 l 258 444 l 258 132 l 471 132 q 702 213 622 132 q 782 468 782 294 l 782 483 z "},"Ď":{"ha":1003,"x_min":104,"x_max":940,"o":"m 104 0 m 104 953 l 471 953 q 818 835 696 953 q 940 476 940 717 q 818 118 940 236 q 471 0 696 0 l 104 0 l 104 953 m 471 132 q 702 213 622 132 q 782 468 782 294 l 782 483 q 702 740 782 658 q 471 821 622 821 l 258 821 l 258 132 l 471 132 m 435 1018 l 288 1206 l 422 1206 l 501 1100 l 579 1206 l 714 1206 l 568 1018 l 435 1018 z "},"Đ":{"ha":1003,"x_min":7,"x_max":940,"o":"m 7 0 m 471 953 q 818 835 696 953 q 940 476 940 717 q 818 118 940 236 q 471 0 696 0 l 104 0 l 104 444 l 7 444 l 7 542 l 104 542 l 104 953 l 471 953 m 782 483 q 702 740 782 658 q 471 821 622 821 l 258 821 l 258 542 l 483 542 l 483 444 l 258 444 l 258 132 l 471 132 q 702 213 622 132 q 782 468 782 294 l 782 483 z "},"Ḍ":{"ha":1003,"x_min":104,"x_max":940,"o":"m 104 0 m 104 953 l 471 953 q 818 835 696 953 q 940 476 940 717 q 818 118 940 236 q 471 0 696 0 l 104 0 l 104 953 m 471 132 q 702 213 622 132 q 782 468 782 294 l 782 483 q 702 740 782 658 q 471 821 622 821 l 258 821 l 258 132 l 471 132 m 431 -240 l 431 -94 l 572 -94 l 572 -240 l 431 -240 z "},"ǲ":{"ha":1697,"x_min":104,"x_max":1664,"o":"m 104 0 m 104 953 l 471 953 q 818 835 696 953 q 940 476 940 717 q 818 118 940 236 q 471 0 696 0 l 104 0 l 104 953 m 471 132 q 702 213 622 132 q 782 468 782 294 l 782 483 q 702 740 782 658 q 471 821 622 821 l 258 821 l 258 132 l 471 132 m 1035 0 l 1035 71 l 1435 613 l 1061 613 l 1061 731 l 1643 731 l 1643 661 l 1243 118 l 1664 118 l 1664 0 l 1035 0 z "},"ǅ":{"ha":1697,"x_min":104,"x_max":1664,"o":"m 104 0 m 104 953 l 471 953 q 818 835 696 953 q 940 476 940 717 q 818 118 940 236 q 471 0 696 0 l 104 0 l 104 953 m 471 132 q 702 213 622 132 q 782 468 782 294 l 782 483 q 702 740 782 658 q 471 821 622 821 l 258 821 l 258 132 l 471 132 m 1035 0 l 1035 71 l 1435 613 l 1061 613 l 1061 731 l 1643 731 l 1643 661 l 1243 118 l 1664 118 l 1664 0 l 1035 0 m 1283 817 l 1136 1004 l 1271 1004 l 1350 899 l 1428 1004 l 1563 1004 l 1417 817 l 1283 817 z "},"E":{"ha":926,"x_min":104,"x_max":851,"o":"m 104 0 l 104 953 l 843 953 l 843 821 l 258 821 l 258 553 l 782 553 l 782 421 l 258 421 l 258 132 l 851 132 l 851 0 l 104 0 z "},"É":{"ha":926,"x_min":104,"x_max":851,"o":"m 104 0 m 104 0 l 104 953 l 843 953 l 843 821 l 258 821 l 258 553 l 782 553 l 782 421 l 258 421 l 258 132 l 851 132 l 851 0 l 104 0 m 404 1022 l 521 1206 l 669 1206 l 671 1201 l 521 1022 l 404 1022 z "},"Ĕ":{"ha":926,"x_min":104,"x_max":851,"o":"m 104 0 m 104 0 l 104 953 l 843 953 l 843 821 l 258 821 l 258 553 l 782 553 l 782 421 l 258 421 l 258 132 l 851 132 l 851 0 l 104 0 m 463 1035 q 304 1085 354 1035 q 254 1206 254 1136 l 351 1206 q 382 1156 357 1178 q 463 1135 407 1135 q 544 1156 518 1135 q 575 1206 571 1178 l 672 1206 q 622 1085 672 1136 q 463 1035 571 1035 z "},"Ě":{"ha":926,"x_min":104,"x_max":851,"o":"m 104 0 m 104 0 l 104 953 l 843 953 l 843 821 l 258 821 l 258 553 l 782 553 l 782 421 l 258 421 l 258 132 l 851 132 l 851 0 l 104 0 m 397 1018 l 250 1206 l 385 1206 l 464 1100 l 542 1206 l 676 1206 l 531 1018 l 397 1018 z "},"Ê":{"ha":926,"x_min":104,"x_max":851,"o":"m 104 0 m 104 0 l 104 953 l 843 953 l 843 821 l 258 821 l 258 553 l 782 553 l 782 421 l 258 421 l 258 132 l 851 132 l 851 0 l 104 0 m 250 1018 l 397 1206 l 531 1206 l 676 1018 l 542 1018 l 464 1124 l 385 1018 l 250 1018 z "},"Ế":{"ha":926,"x_min":104,"x_max":861,"o":"m 104 0 m 104 0 l 104 953 l 843 953 l 843 821 l 258 821 l 258 553 l 782 553 l 782 421 l 258 421 l 258 132 l 851 132 l 851 0 l 104 0 m 250 1018 l 397 1206 l 531 1206 l 676 1018 l 542 1018 l 464 1124 l 385 1018 l 250 1018 m 594 1154 l 711 1338 l 860 1338 l 861 1333 l 711 1154 l 594 1154 z "},"Ệ":{"ha":926,"x_min":104,"x_max":851,"o":"m 104 0 m 104 0 l 104 953 l 843 953 l 843 821 l 258 821 l 258 553 l 782 553 l 782 421 l 258 421 l 258 132 l 851 132 l 851 0 l 104 0 m 250 1018 l 397 1206 l 531 1206 l 676 1018 l 542 1018 l 464 1124 l 385 1018 l 250 1018 m 393 -240 l 393 -94 l 535 -94 l 535 -240 l 393 -240 z "},"Ề":{"ha":926,"x_min":104,"x_max":851,"o":"m 104 0 m 104 0 l 104 953 l 843 953 l 843 821 l 258 821 l 258 553 l 782 553 l 782 421 l 258 421 l 258 132 l 851 132 l 851 0 l 104 0 m 250 1018 l 397 1206 l 531 1206 l 676 1018 l 542 1018 l 464 1124 l 385 1018 l 250 1018 m 650 1154 l 500 1333 l 501 1338 l 650 1338 l 767 1154 l 650 1154 z "},"Ể":{"ha":926,"x_min":104,"x_max":851,"o":"m 104 0 m 104 0 l 104 953 l 843 953 l 843 821 l 258 821 l 258 553 l 782 553 l 782 421 l 258 421 l 258 132 l 851 132 l 851 0 l 104 0 m 250 1018 l 397 1206 l 531 1206 l 676 1018 l 542 1018 l 464 1124 l 385 1018 l 250 1018 m 614 1236 l 632 1236 q 664 1242 654 1236 q 674 1261 674 1249 q 663 1281 674 1275 q 629 1286 651 1286 l 546 1286 l 546 1343 q 651 1354 594 1354 q 747 1335 706 1354 q 789 1271 789 1317 q 763 1215 789 1235 q 696 1192 736 1194 l 696 1154 l 614 1154 l 614 1236 z "},"Ễ":{"ha":926,"x_min":104,"x_max":851,"o":"m 104 0 m 104 0 l 104 953 l 843 953 l 843 821 l 258 821 l 258 553 l 782 553 l 782 421 l 258 421 l 258 132 l 851 132 l 851 0 l 104 0 m 250 1018 l 397 1206 l 531 1206 l 676 1018 l 542 1018 l 464 1124 l 385 1018 l 250 1018 m 238 1275 q 268 1385 238 1342 q 361 1428 299 1428 q 408 1422 386 1428 q 467 1404 429 1417 q 518 1388 497 1393 q 561 1382 539 1382 q 603 1428 597 1382 l 696 1428 q 665 1318 696 1361 q 571 1275 633 1275 q 526 1281 546 1275 q 467 1299 506 1286 q 413 1315 433 1310 q 371 1321 393 1321 q 329 1275 335 1321 l 238 1275 z "},"Ȅ":{"ha":926,"x_min":104,"x_max":851,"o":"m 104 0 m 104 0 l 104 953 l 843 953 l 843 821 l 258 821 l 258 553 l 782 553 l 782 421 l 258 421 l 258 132 l 851 132 l 851 0 l 104 0 m 324 1022 l 197 1201 l 199 1206 l 349 1206 l 442 1022 l 324 1022 m 532 1022 l 406 1201 l 407 1206 l 557 1206 l 650 1022 l 532 1022 z "},"Ë":{"ha":926,"x_min":104,"x_max":851,"o":"m 104 0 m 104 0 l 104 953 l 843 953 l 843 821 l 258 821 l 258 553 l 782 553 l 782 421 l 258 421 l 258 132 l 851 132 l 851 0 l 104 0 m 261 1064 l 261 1206 l 396 1206 l 396 1064 l 261 1064 m 531 1064 l 531 1206 l 665 1206 l 665 1064 l 531 1064 z "},"Ė":{"ha":926,"x_min":104,"x_max":851,"o":"m 104 0 m 104 0 l 104 953 l 843 953 l 843 821 l 258 821 l 258 553 l 782 553 l 782 421 l 258 421 l 258 132 l 851 132 l 851 0 l 104 0 m 393 1060 l 393 1206 l 535 1206 l 535 1060 l 393 1060 z "},"Ẹ":{"ha":926,"x_min":104,"x_max":851,"o":"m 104 0 m 104 0 l 104 953 l 843 953 l 843 821 l 258 821 l 258 553 l 782 553 l 782 421 l 258 421 l 258 132 l 851 132 l 851 0 l 104 0 m 393 -240 l 393 -94 l 535 -94 l 535 -240 l 393 -240 z "},"È":{"ha":926,"x_min":104,"x_max":851,"o":"m 104 0 m 104 0 l 104 953 l 843 953 l 843 821 l 258 821 l 258 553 l 782 553 l 782 421 l 258 421 l 258 132 l 851 132 l 851 0 l 104 0 m 404 1022 l 254 1201 l 256 1206 l 404 1206 l 521 1022 l 404 1022 z "},"Ẻ":{"ha":926,"x_min":104,"x_max":851,"o":"m 104 0 m 104 0 l 104 953 l 843 953 l 843 821 l 258 821 l 258 553 l 782 553 l 782 421 l 258 421 l 258 132 l 851 132 l 851 0 l 104 0 m 424 1104 l 442 1104 q 474 1110 464 1104 q 483 1129 483 1117 q 472 1149 483 1143 q 439 1154 461 1154 l 356 1154 l 356 1211 q 461 1222 404 1222 q 557 1203 515 1222 q 599 1139 599 1185 q 572 1083 599 1103 q 506 1060 546 1063 l 506 1022 l 424 1022 l 424 1104 z "},"Ȇ":{"ha":926,"x_min":104,"x_max":851,"o":"m 104 0 m 104 0 l 104 953 l 843 953 l 843 821 l 258 821 l 258 553 l 782 553 l 782 421 l 258 421 l 258 132 l 851 132 l 851 0 l 104 0 m 254 1035 q 304 1155 254 1104 q 463 1206 354 1206 q 622 1155 571 1206 q 672 1035 672 1104 l 575 1035 q 544 1084 571 1063 q 463 1106 518 1106 q 382 1084 407 1106 q 351 1035 357 1063 l 254 1035 z "},"Ē":{"ha":926,"x_min":104,"x_max":851,"o":"m 104 0 m 104 0 l 104 953 l 843 953 l 843 821 l 258 821 l 258 553 l 782 553 l 782 421 l 258 421 l 258 132 l 851 132 l 851 0 l 104 0 m 251 1065 l 251 1172 l 675 1172 l 675 1065 l 251 1065 z "},"Ę":{"ha":926,"x_min":104,"x_max":851,"o":"m 758 -253 q 661 -224 704 -253 q 618 -133 618 -196 q 711 0 618 -50 l 104 0 l 104 953 l 843 953 l 843 821 l 258 821 l 258 553 l 782 553 l 782 421 l 258 421 l 258 132 l 851 132 l 851 0 q 771 -35 803 -6 q 739 -96 739 -65 q 756 -142 739 -124 q 810 -161 774 -161 l 851 -161 l 851 -233 q 758 -253 801 -253 z "},"Ẽ":{"ha":926,"x_min":104,"x_max":851,"o":"m 104 0 m 104 0 l 104 953 l 843 953 l 843 821 l 258 821 l 258 553 l 782 553 l 782 421 l 258 421 l 258 132 l 851 132 l 851 0 l 104 0 m 235 1053 q 265 1163 235 1119 q 358 1206 296 1206 q 405 1200 383 1206 q 464 1182 426 1194 q 515 1165 494 1171 q 558 1160 536 1160 q 600 1206 594 1160 l 693 1206 q 662 1096 693 1139 q 568 1053 631 1053 q 523 1058 543 1053 q 464 1076 503 1064 q 410 1093 431 1088 q 368 1099 390 1099 q 326 1053 332 1099 l 235 1053 z "},"F":{"ha":849,"x_min":104,"x_max":785,"o":"m 104 0 l 104 953 l 785 953 l 785 821 l 258 821 l 258 539 l 733 539 l 733 407 l 258 407 l 258 0 l 104 0 z "},"G":{"ha":1081,"x_min":63,"x_max":986,"o":"m 511 503 l 986 503 l 986 0 l 872 0 l 860 106 q 532 -17 746 -17 q 182 106 301 -17 q 63 476 63 228 q 186 847 63 724 q 546 969 310 969 q 773 931 674 969 q 929 816 872 893 q 986 628 986 739 l 829 628 q 752 785 829 731 q 549 839 675 839 q 303 753 383 839 q 222 483 222 668 l 222 468 q 300 198 222 282 q 536 114 378 114 q 758 177 682 114 q 833 364 833 240 l 833 372 l 511 372 l 511 503 z "},"Ǵ":{"ha":1081,"x_min":63,"x_max":986,"o":"m 63 0 m 511 503 l 986 503 l 986 0 l 872 0 l 860 106 q 532 -17 746 -17 q 182 106 301 -17 q 63 476 63 228 q 186 847 63 724 q 546 969 310 969 q 773 931 674 969 q 929 816 872 893 q 986 628 986 739 l 829 628 q 752 785 829 731 q 549 839 675 839 q 303 753 383 839 q 222 483 222 668 l 222 468 q 300 198 222 282 q 536 114 378 114 q 758 177 682 114 q 833 364 833 240 l 833 372 l 511 372 l 511 503 m 481 1022 l 597 1206 l 746 1206 l 747 1201 l 597 1022 l 481 1022 z "},"Ğ":{"ha":1081,"x_min":63,"x_max":986,"o":"m 63 0 m 511 503 l 986 503 l 986 0 l 872 0 l 860 106 q 532 -17 746 -17 q 182 106 301 -17 q 63 476 63 228 q 186 847 63 724 q 546 969 310 969 q 773 931 674 969 q 929 816 872 893 q 986 628 986 739 l 829 628 q 752 785 829 731 q 549 839 675 839 q 303 753 383 839 q 222 483 222 668 l 222 468 q 300 198 222 282 q 536 114 378 114 q 758 177 682 114 q 833 364 833 240 l 833 372 l 511 372 l 511 503 m 539 1035 q 381 1085 431 1035 q 331 1206 331 1136 l 428 1206 q 458 1156 433 1178 q 539 1135 483 1135 q 621 1156 594 1135 q 651 1206 647 1178 l 749 1206 q 698 1085 749 1136 q 539 1035 647 1035 z "},"Ǧ":{"ha":1081,"x_min":63,"x_max":986,"o":"m 63 0 m 511 503 l 986 503 l 986 0 l 872 0 l 860 106 q 532 -17 746 -17 q 182 106 301 -17 q 63 476 63 228 q 186 847 63 724 q 546 969 310 969 q 773 931 674 969 q 929 816 872 893 q 986 628 986 739 l 829 628 q 752 785 829 731 q 549 839 675 839 q 303 753 383 839 q 222 483 222 668 l 222 468 q 300 198 222 282 q 536 114 378 114 q 758 177 682 114 q 833 364 833 240 l 833 372 l 511 372 l 511 503 m 474 1018 l 326 1206 l 461 1206 l 540 1100 l 618 1206 l 753 1206 l 607 1018 l 474 1018 z "},"Ĝ":{"ha":1081,"x_min":63,"x_max":986,"o":"m 63 0 m 511 503 l 986 503 l 986 0 l 872 0 l 860 106 q 532 -17 746 -17 q 182 106 301 -17 q 63 476 63 228 q 186 847 63 724 q 546 969 310 969 q 773 931 674 969 q 929 816 872 893 q 986 628 986 739 l 829 628 q 752 785 829 731 q 549 839 675 839 q 303 753 383 839 q 222 483 222 668 l 222 468 q 300 198 222 282 q 536 114 378 114 q 758 177 682 114 q 833 364 833 240 l 833 372 l 511 372 l 511 503 m 326 1018 l 474 1206 l 607 1206 l 753 1018 l 618 1018 l 540 1124 l 461 1018 l 326 1018 z "},"Ģ":{"ha":1081,"x_min":63,"x_max":986,"o":"m 63 0 m 511 503 l 986 503 l 986 0 l 872 0 l 860 106 q 532 -17 746 -17 q 182 106 301 -17 q 63 476 63 228 q 186 847 63 724 q 546 969 310 969 q 773 931 674 969 q 929 816 872 893 q 986 628 986 739 l 829 628 q 752 785 829 731 q 549 839 675 839 q 303 753 383 839 q 222 483 222 668 l 222 468 q 300 198 222 282 q 536 114 378 114 q 758 177 682 114 q 833 364 833 240 l 833 372 l 511 372 l 511 503 m 469 -319 l 528 -203 l 468 -203 l 468 -72 l 611 -72 l 611 -190 l 543 -319 l 469 -319 z "},"Ġ":{"ha":1081,"x_min":63,"x_max":986,"o":"m 63 0 m 511 503 l 986 503 l 986 0 l 872 0 l 860 106 q 532 -17 746 -17 q 182 106 301 -17 q 63 476 63 228 q 186 847 63 724 q 546 969 310 969 q 773 931 674 969 q 929 816 872 893 q 986 628 986 739 l 829 628 q 752 785 829 731 q 549 839 675 839 q 303 753 383 839 q 222 483 222 668 l 222 468 q 300 198 222 282 q 536 114 378 114 q 758 177 682 114 q 833 364 833 240 l 833 372 l 511 372 l 511 503 m 469 1060 l 469 1206 l 611 1206 l 611 1060 l 469 1060 z "},"H":{"ha":1003,"x_min":104,"x_max":899,"o":"m 104 0 l 104 953 l 258 953 l 258 554 l 744 554 l 744 953 l 899 953 l 899 0 l 744 0 l 744 421 l 258 421 l 258 0 l 104 0 z "},"Ħ":{"ha":1003,"x_min":11,"x_max":992,"o":"m 104 0 l 104 722 l 11 722 l 11 831 l 104 831 l 104 953 l 258 953 l 258 831 l 744 831 l 744 953 l 899 953 l 899 831 l 992 831 l 992 722 l 899 722 l 899 0 l 744 0 l 744 421 l 258 421 l 258 0 l 104 0 m 258 554 l 744 554 l 744 722 l 258 722 l 258 554 z "},"Ĥ":{"ha":1003,"x_min":104,"x_max":899,"o":"m 104 0 m 104 0 l 104 953 l 258 953 l 258 554 l 744 554 l 744 953 l 899 953 l 899 0 l 744 0 l 744 421 l 258 421 l 258 0 l 104 0 m 288 1018 l 435 1206 l 568 1206 l 714 1018 l 579 1018 l 501 1124 l 422 1018 l 288 1018 z "},"Ḥ":{"ha":1003,"x_min":104,"x_max":899,"o":"m 104 0 m 104 0 l 104 953 l 258 953 l 258 554 l 744 554 l 744 953 l 899 953 l 899 0 l 744 0 l 744 421 l 258 421 l 258 0 l 104 0 m 431 -240 l 431 -94 l 572 -94 l 572 -240 l 431 -240 z "},"I":{"ha":386,"x_min":117,"x_max":271,"o":"m 117 0 l 117 953 l 271 953 l 271 0 l 117 0 z "},"Ĳ":{"ha":1104,"x_min":117,"x_max":1003,"o":"m 117 0 m 117 0 l 117 953 l 271 953 l 271 0 l 117 0 m 714 -17 q 500 53 575 -17 q 425 258 425 124 l 425 301 l 578 301 l 578 254 q 613 150 578 186 q 714 114 647 114 q 815 153 781 114 q 850 269 850 193 l 850 953 l 1003 953 l 1003 274 q 928 56 1003 129 q 714 -17 854 -17 z "},"Í":{"ha":386,"x_min":117,"x_max":400,"o":"m 117 0 m 117 0 l 117 953 l 271 953 l 271 0 l 117 0 m 133 1022 l 250 1206 l 399 1206 l 400 1201 l 250 1022 l 133 1022 z "},"Ĭ":{"ha":386,"x_min":-17,"x_max":401,"o":"m 0 0 m 117 0 l 117 953 l 271 953 l 271 0 l 117 0 m 192 1035 q 33 1085 83 1035 q -17 1206 -17 1136 l 81 1206 q 111 1156 86 1178 q 192 1135 136 1135 q 274 1156 247 1135 q 304 1206 300 1178 l 401 1206 q 351 1085 401 1136 q 192 1035 300 1035 z "},"Ǐ":{"ha":386,"x_min":-21,"x_max":406,"o":"m 0 0 m 117 0 l 117 953 l 271 953 l 271 0 l 117 0 m 126 1018 l -21 1206 l 114 1206 l 193 1100 l 271 1206 l 406 1206 l 260 1018 l 126 1018 z "},"Î":{"ha":386,"x_min":-21,"x_max":406,"o":"m 0 0 m 117 0 l 117 953 l 271 953 l 271 0 l 117 0 m -21 1018 l 126 1206 l 260 1206 l 406 1018 l 271 1018 l 193 1124 l 114 1018 l -21 1018 z "},"Ȉ":{"ha":386,"x_min":-74,"x_max":379,"o":"m 0 0 m 117 0 l 117 953 l 271 953 l 271 0 l 117 0 m 53 1022 l -74 1201 l -72 1206 l 78 1206 l 171 1022 l 53 1022 m 261 1022 l 135 1201 l 136 1206 l 286 1206 l 379 1022 l 261 1022 z "},"Ï":{"ha":386,"x_min":-10,"x_max":394,"o":"m 0 0 m 117 0 l 117 953 l 271 953 l 271 0 l 117 0 m -10 1064 l -10 1206 l 125 1206 l 125 1064 l -10 1064 m 260 1064 l 260 1206 l 394 1206 l 394 1064 l 260 1064 z "},"İ":{"ha":386,"x_min":117,"x_max":271,"o":"m 117 0 m 117 0 l 117 953 l 271 953 l 271 0 l 117 0 m 122 1060 l 122 1206 l 264 1206 l 264 1060 l 122 1060 z "},"Ị":{"ha":386,"x_min":117,"x_max":271,"o":"m 117 0 m 117 0 l 117 953 l 271 953 l 271 0 l 117 0 m 122 -240 l 122 -94 l 264 -94 l 264 -240 l 122 -240 z "},"Ì":{"ha":386,"x_min":-17,"x_max":271,"o":"m 0 0 m 117 0 l 117 953 l 271 953 l 271 0 l 117 0 m 133 1022 l -17 1201 l -15 1206 l 133 1206 l 250 1022 l 133 1022 z "},"Ỉ":{"ha":386,"x_min":85,"x_max":328,"o":"m 85 0 m 117 0 l 117 953 l 271 953 l 271 0 l 117 0 m 153 1104 l 171 1104 q 203 1110 193 1104 q 213 1129 213 1117 q 201 1149 213 1143 q 168 1154 190 1154 l 85 1154 l 85 1211 q 190 1222 133 1222 q 286 1203 244 1222 q 328 1139 328 1185 q 301 1083 328 1103 q 235 1060 275 1063 l 235 1022 l 153 1022 l 153 1104 z "},"Ȋ":{"ha":386,"x_min":-17,"x_max":401,"o":"m 0 0 m 117 0 l 117 953 l 271 953 l 271 0 l 117 0 m -17 1035 q 33 1155 -17 1104 q 192 1206 83 1206 q 351 1155 300 1206 q 401 1035 401 1104 l 304 1035 q 274 1084 300 1063 q 192 1106 247 1106 q 111 1084 136 1106 q 81 1035 86 1063 l -17 1035 z "},"Ī":{"ha":386,"x_min":-19,"x_max":404,"o":"m 0 0 m 117 0 l 117 953 l 271 953 l 271 0 l 117 0 m -19 1065 l -19 1172 l 404 1172 l 404 1065 l -19 1065 z "},"Į":{"ha":386,"x_min":56,"x_max":288,"o":"m 288 -172 l 288 -244 q 199 -264 240 -264 q 98 -235 140 -264 q 56 -140 56 -206 q 74 -63 56 -96 q 125 0 92 -31 l 117 0 l 117 953 l 271 953 l 271 0 l 225 0 q 190 -45 206 -19 q 175 -97 175 -71 q 192 -151 175 -129 q 246 -172 210 -172 l 288 -172 z "},"Ĩ":{"ha":386,"x_min":-36,"x_max":422,"o":"m 0 0 m 117 0 l 117 953 l 271 953 l 271 0 l 117 0 m -36 1053 q -6 1163 -36 1119 q 88 1206 25 1206 q 134 1200 113 1206 q 193 1182 156 1194 q 244 1165 224 1171 q 288 1160 265 1160 q 329 1206 324 1160 l 422 1206 q 391 1096 422 1139 q 297 1053 360 1053 q 252 1058 272 1053 q 193 1076 232 1064 q 140 1093 160 1088 q 97 1099 119 1099 q 56 1053 61 1099 l -36 1053 z "},"J":{"ha":718,"x_min":39,"x_max":617,"o":"m 328 -17 q 114 53 189 -17 q 39 258 39 124 l 39 301 l 192 301 l 192 254 q 226 150 192 186 q 328 114 261 114 q 429 153 394 114 q 464 269 464 193 l 464 953 l 617 953 l 617 274 q 542 56 617 129 q 328 -17 468 -17 z "},"Ĵ":{"ha":718,"x_min":39,"x_max":753,"o":"m 39 0 m 328 -17 q 114 53 189 -17 q 39 258 39 124 l 39 301 l 192 301 l 192 254 q 226 150 192 186 q 328 114 261 114 q 429 153 394 114 q 464 269 464 193 l 464 953 l 617 953 l 617 274 q 542 56 617 129 q 328 -17 468 -17 m 326 1018 l 474 1206 l 607 1206 l 753 1018 l 618 1018 l 540 1124 l 461 1018 l 326 1018 z "},"K":{"ha":950,"x_min":104,"x_max":942,"o":"m 104 0 l 104 953 l 258 953 l 258 447 l 743 953 l 931 953 l 565 569 l 942 0 l 760 0 l 461 461 l 258 278 l 258 0 l 104 0 z "},"Ķ":{"ha":950,"x_min":104,"x_max":942,"o":"m 104 0 m 104 0 l 104 953 l 258 953 l 258 447 l 743 953 l 931 953 l 565 569 l 942 0 l 760 0 l 461 461 l 258 278 l 258 0 l 104 0 m 404 -319 l 463 -203 l 403 -203 l 403 -72 l 546 -72 l 546 -190 l 478 -319 l 404 -319 z "},"L":{"ha":796,"x_min":104,"x_max":754,"o":"m 104 0 l 104 953 l 258 953 l 258 133 l 754 133 l 754 0 l 104 0 z "},"Ǉ":{"ha":1514,"x_min":104,"x_max":1413,"o":"m 104 0 m 104 0 l 104 953 l 258 953 l 258 133 l 754 133 l 754 0 l 104 0 m 1124 -17 q 910 53 985 -17 q 835 258 835 124 l 835 301 l 988 301 l 988 254 q 1022 150 988 186 q 1124 114 1057 114 q 1225 153 1190 114 q 1260 269 1260 193 l 1260 953 l 1413 953 l 1413 274 q 1338 56 1413 129 q 1124 -17 1264 -17 z "},"Ĺ":{"ha":796,"x_min":104,"x_max":754,"o":"m 104 0 m 104 0 l 104 953 l 258 953 l 258 133 l 754 133 l 754 0 l 104 0 m 122 1022 l 239 1206 l 388 1206 l 389 1201 l 239 1022 l 122 1022 z "},"Ľ":{"ha":796,"x_min":104,"x_max":754,"o":"m 104 0 l 104 953 l 258 953 l 258 133 l 754 133 l 754 0 l 104 0 m 458 660 l 515 811 l 458 811 l 458 953 l 600 953 l 600 824 l 532 660 l 458 660 z "},"Ļ":{"ha":796,"x_min":104,"x_max":754,"o":"m 104 0 m 104 0 l 104 953 l 258 953 l 258 133 l 754 133 l 754 0 l 104 0 m 360 -319 l 418 -203 l 358 -203 l 358 -72 l 501 -72 l 501 -190 l 433 -319 l 360 -319 z "},"Ŀ":{"ha":796,"x_min":104,"x_max":754,"o":"m 104 0 m 104 0 l 104 953 l 258 953 l 258 133 l 754 133 l 754 0 l 104 0 m 485 568 l 485 731 l 640 731 l 640 568 l 485 568 z "},"ǈ":{"ha":1128,"x_min":104,"x_max":1033,"o":"m 104 0 m 104 0 l 104 953 l 258 953 l 258 133 l 754 133 l 754 0 l 104 0 m 890 857 l 890 1004 l 1033 1004 l 1033 857 l 890 857 m 869 -253 q 763 -235 819 -253 l 763 -139 l 826 -139 q 890 -74 890 -139 l 890 731 l 1033 731 l 1033 -76 q 995 -202 1033 -151 q 869 -253 957 -253 z "},"Ł":{"ha":796,"x_min":4,"x_max":754,"o":"m 104 0 l 104 360 l 4 294 l 4 415 l 104 482 l 104 953 l 258 953 l 258 583 l 479 729 l 479 607 l 258 461 l 258 133 l 754 133 l 754 0 l 104 0 z "},"M":{"ha":1157,"x_min":104,"x_max":1053,"o":"m 104 953 l 336 953 l 536 342 q 562 249 549 304 q 579 176 575 194 l 585 176 q 602 252 589 194 q 626 342 615 310 l 825 953 l 1053 953 l 1053 0 l 899 0 l 899 622 q 901 716 899 661 q 904 793 903 771 l 894 793 q 869 694 881 731 l 640 0 l 506 0 l 279 694 q 260 765 272 715 l 253 793 l 246 793 q 248 719 246 772 q 250 622 250 665 l 250 0 l 104 0 l 104 953 z "},"N":{"ha":1003,"x_min":104,"x_max":899,"o":"m 104 953 l 246 953 l 707 333 q 747 274 722 313 l 754 276 l 753 346 l 753 953 l 899 953 l 899 0 l 760 0 l 297 626 q 274 660 286 640 q 256 688 261 679 l 249 686 l 250 615 l 250 0 l 104 0 l 104 953 z "},"Ǌ":{"ha":1721,"x_min":104,"x_max":1619,"o":"m 104 0 m 104 953 l 246 953 l 707 333 q 747 274 722 313 l 754 276 l 753 346 l 753 953 l 899 953 l 899 0 l 760 0 l 297 626 q 274 660 286 640 q 256 688 261 679 l 249 686 l 250 615 l 250 0 l 104 0 l 104 953 m 1331 -17 q 1117 53 1192 -17 q 1042 258 1042 124 l 1042 301 l 1194 301 l 1194 254 q 1229 150 1194 186 q 1331 114 1264 114 q 1432 153 1397 114 q 1467 269 1467 193 l 1467 953 l 1619 953 l 1619 274 q 1545 56 1619 129 q 1331 -17 1471 -17 z "},"Ń":{"ha":1003,"x_min":104,"x_max":899,"o":"m 104 0 m 104 953 l 246 953 l 707 333 q 747 274 722 313 l 754 276 l 753 346 l 753 953 l 899 953 l 899 0 l 760 0 l 297 626 q 274 660 286 640 q 256 688 261 679 l 249 686 l 250 615 l 250 0 l 104 0 l 104 953 m 442 1022 l 558 1206 l 707 1206 l 708 1201 l 558 1022 l 442 1022 z "},"Ň":{"ha":1003,"x_min":104,"x_max":899,"o":"m 104 0 m 104 953 l 246 953 l 707 333 q 747 274 722 313 l 754 276 l 753 346 l 753 953 l 899 953 l 899 0 l 760 0 l 297 626 q 274 660 286 640 q 256 688 261 679 l 249 686 l 250 615 l 250 0 l 104 0 l 104 953 m 435 1018 l 288 1206 l 422 1206 l 501 1100 l 579 1206 l 714 1206 l 568 1018 l 435 1018 z "},"Ņ":{"ha":1003,"x_min":104,"x_max":899,"o":"m 104 0 m 104 953 l 246 953 l 707 333 q 747 274 722 313 l 754 276 l 753 346 l 753 953 l 899 953 l 899 0 l 760 0 l 297 626 q 274 660 286 640 q 256 688 261 679 l 249 686 l 250 615 l 250 0 l 104 0 l 104 953 m 431 -319 l 489 -203 l 429 -203 l 429 -72 l 572 -72 l 572 -190 l 504 -319 l 431 -319 z "},"Ṅ":{"ha":1003,"x_min":104,"x_max":899,"o":"m 104 0 m 104 953 l 246 953 l 707 333 q 747 274 722 313 l 754 276 l 753 346 l 753 953 l 899 953 l 899 0 l 760 0 l 297 626 q 274 660 286 640 q 256 688 261 679 l 249 686 l 250 615 l 250 0 l 104 0 l 104 953 m 431 1060 l 431 1206 l 572 1206 l 572 1060 l 431 1060 z "},"Ŋ":{"ha":1003,"x_min":104,"x_max":899,"o":"m 733 -253 q 625 -235 682 -253 l 625 -139 l 689 -139 q 736 -122 719 -139 q 753 -74 753 -106 l 753 0 l 299 626 l 272 663 l 256 686 l 249 683 q 253 613 253 638 l 250 0 l 104 0 l 104 953 l 246 953 l 707 335 q 747 275 722 314 l 754 278 l 753 347 l 753 953 l 899 953 l 899 -76 q 860 -202 899 -151 q 733 -253 822 -253 z "},"Ɲ":{"ha":1003,"x_min":-22,"x_max":899,"o":"m 86 -253 q -22 -235 35 -253 l -22 -139 l 42 -139 q 104 -74 104 -139 l 104 953 l 246 953 l 707 333 q 747 274 722 313 l 754 276 l 753 346 l 753 953 l 899 953 l 899 0 l 760 0 l 310 608 q 290 638 296 628 l 256 688 l 249 686 l 250 590 l 250 -76 q 212 -202 250 -151 q 86 -253 174 -253 z "},"ǋ":{"ha":1335,"x_min":104,"x_max":1240,"o":"m 104 0 m 104 953 l 246 953 l 707 333 q 747 274 722 313 l 754 276 l 753 346 l 753 953 l 899 953 l 899 0 l 760 0 l 297 626 q 274 660 286 640 q 256 688 261 679 l 249 686 l 250 615 l 250 0 l 104 0 l 104 953 m 1097 857 l 1097 1004 l 1240 1004 l 1240 857 l 1097 857 m 1076 -253 q 969 -235 1026 -253 l 969 -139 l 1033 -139 q 1097 -74 1097 -139 l 1097 731 l 1240 731 l 1240 -76 q 1202 -202 1240 -151 q 1076 -253 1164 -253 z "},"Ñ":{"ha":1003,"x_min":104,"x_max":899,"o":"m 104 0 m 104 953 l 246 953 l 707 333 q 747 274 722 313 l 754 276 l 753 346 l 753 953 l 899 953 l 899 0 l 760 0 l 297 626 q 274 660 286 640 q 256 688 261 679 l 249 686 l 250 615 l 250 0 l 104 0 l 104 953 m 272 1053 q 303 1163 272 1119 q 396 1206 333 1206 q 442 1200 421 1206 q 501 1182 464 1194 q 553 1165 532 1171 q 596 1160 574 1160 q 638 1206 632 1160 l 731 1206 q 699 1096 731 1139 q 606 1053 668 1053 q 560 1058 581 1053 q 501 1076 540 1064 q 448 1093 468 1088 q 406 1099 428 1099 q 364 1053 369 1099 l 272 1053 z "},"O":{"ha":1081,"x_min":63,"x_max":1019,"o":"m 540 -17 q 188 108 313 -17 q 63 476 63 232 q 188 845 63 721 q 540 969 313 969 q 894 845 769 969 q 1019 476 1019 721 q 894 108 1019 232 q 540 -17 769 -17 m 540 114 q 861 467 861 114 l 861 483 q 540 839 860 839 q 221 483 222 839 l 221 467 q 540 114 221 114 z "},"Ó":{"ha":1081,"x_min":63,"x_max":1019,"o":"m 63 0 m 540 -17 q 188 108 313 -17 q 63 476 63 232 q 188 845 63 721 q 540 969 313 969 q 894 845 769 969 q 1019 476 1019 721 q 894 108 1019 232 q 540 -17 769 -17 m 540 114 q 861 467 861 114 l 861 483 q 540 839 860 839 q 221 483 222 839 l 221 467 q 540 114 221 114 m 481 1022 l 597 1206 l 746 1206 l 747 1201 l 597 1022 l 481 1022 z "},"Ŏ":{"ha":1081,"x_min":63,"x_max":1019,"o":"m 63 0 m 540 -17 q 188 108 313 -17 q 63 476 63 232 q 188 845 63 721 q 540 969 313 969 q 894 845 769 969 q 1019 476 1019 721 q 894 108 1019 232 q 540 -17 769 -17 m 540 114 q 861 467 861 114 l 861 483 q 540 839 860 839 q 221 483 222 839 l 221 467 q 540 114 221 114 m 539 1035 q 381 1085 431 1035 q 331 1206 331 1136 l 428 1206 q 458 1156 433 1178 q 539 1135 483 1135 q 621 1156 594 1135 q 651 1206 647 1178 l 749 1206 q 698 1085 749 1136 q 539 1035 647 1035 z "},"Ǒ":{"ha":1081,"x_min":63,"x_max":1019,"o":"m 63 0 m 540 -17 q 188 108 313 -17 q 63 476 63 232 q 188 845 63 721 q 540 969 313 969 q 894 845 769 969 q 1019 476 1019 721 q 894 108 1019 232 q 540 -17 769 -17 m 540 114 q 861 467 861 114 l 861 483 q 540 839 860 839 q 221 483 222 839 l 221 467 q 540 114 221 114 m 474 1018 l 326 1206 l 461 1206 l 540 1100 l 618 1206 l 753 1206 l 607 1018 l 474 1018 z "},"Ô":{"ha":1081,"x_min":63,"x_max":1019,"o":"m 63 0 m 540 -17 q 188 108 313 -17 q 63 476 63 232 q 188 845 63 721 q 540 969 313 969 q 894 845 769 969 q 1019 476 1019 721 q 894 108 1019 232 q 540 -17 769 -17 m 540 114 q 861 467 861 114 l 861 483 q 540 839 860 839 q 221 483 222 839 l 221 467 q 540 114 221 114 m 326 1018 l 474 1206 l 607 1206 l 753 1018 l 618 1018 l 540 1124 l 461 1018 l 326 1018 z "},"Ố":{"ha":1081,"x_min":63,"x_max":1019,"o":"m 63 0 m 540 -17 q 188 108 313 -17 q 63 476 63 232 q 188 845 63 721 q 540 969 313 969 q 894 845 769 969 q 1019 476 1019 721 q 894 108 1019 232 q 540 -17 769 -17 m 540 114 q 861 467 861 114 l 861 483 q 540 839 860 839 q 221 483 222 839 l 221 467 q 540 114 221 114 m 326 1018 l 474 1206 l 607 1206 l 753 1018 l 618 1018 l 540 1124 l 461 1018 l 326 1018 m 671 1154 l 788 1338 l 936 1338 l 938 1333 l 788 1154 l 671 1154 z "},"Ộ":{"ha":1081,"x_min":63,"x_max":1019,"o":"m 63 0 m 540 -17 q 188 108 313 -17 q 63 476 63 232 q 188 845 63 721 q 540 969 313 969 q 894 845 769 969 q 1019 476 1019 721 q 894 108 1019 232 q 540 -17 769 -17 m 540 114 q 861 467 861 114 l 861 483 q 540 839 860 839 q 221 483 222 839 l 221 467 q 540 114 221 114 m 326 1018 l 474 1206 l 607 1206 l 753 1018 l 618 1018 l 540 1124 l 461 1018 l 326 1018 m 469 -240 l 469 -94 l 611 -94 l 611 -240 l 469 -240 z "},"Ồ":{"ha":1081,"x_min":63,"x_max":1019,"o":"m 63 0 m 540 -17 q 188 108 313 -17 q 63 476 63 232 q 188 845 63 721 q 540 969 313 969 q 894 845 769 969 q 1019 476 1019 721 q 894 108 1019 232 q 540 -17 769 -17 m 540 114 q 861 467 861 114 l 861 483 q 540 839 860 839 q 221 483 222 839 l 221 467 q 540 114 221 114 m 326 1018 l 474 1206 l 607 1206 l 753 1018 l 618 1018 l 540 1124 l 461 1018 l 326 1018 m 726 1154 l 576 1333 l 578 1338 l 726 1338 l 843 1154 l 726 1154 z "},"Ổ":{"ha":1081,"x_min":63,"x_max":1019,"o":"m 63 0 m 540 -17 q 188 108 313 -17 q 63 476 63 232 q 188 845 63 721 q 540 969 313 969 q 894 845 769 969 q 1019 476 1019 721 q 894 108 1019 232 q 540 -17 769 -17 m 540 114 q 861 467 861 114 l 861 483 q 540 839 860 839 q 221 483 222 839 l 221 467 q 540 114 221 114 m 326 1018 l 474 1206 l 607 1206 l 753 1018 l 618 1018 l 540 1124 l 461 1018 l 326 1018 m 690 1236 l 708 1236 q 740 1242 731 1236 q 750 1261 750 1249 q 739 1281 750 1275 q 706 1286 728 1286 l 622 1286 l 622 1343 q 728 1354 671 1354 q 824 1335 782 1354 q 865 1271 865 1317 q 839 1215 865 1235 q 772 1192 813 1194 l 772 1154 l 690 1154 l 690 1236 z "},"Ỗ":{"ha":1081,"x_min":63,"x_max":1019,"o":"m 63 0 m 540 -17 q 188 108 313 -17 q 63 476 63 232 q 188 845 63 721 q 540 969 313 969 q 894 845 769 969 q 1019 476 1019 721 q 894 108 1019 232 q 540 -17 769 -17 m 540 114 q 861 467 861 114 l 861 483 q 540 839 860 839 q 221 483 222 839 l 221 467 q 540 114 221 114 m 326 1018 l 474 1206 l 607 1206 l 753 1018 l 618 1018 l 540 1124 l 461 1018 l 326 1018 m 314 1275 q 344 1385 314 1342 q 438 1428 375 1428 q 484 1422 463 1428 q 543 1404 506 1417 q 594 1388 574 1393 q 638 1382 615 1382 q 679 1428 674 1382 l 772 1428 q 741 1318 772 1361 q 647 1275 710 1275 q 602 1281 622 1275 q 543 1299 582 1286 q 490 1315 510 1310 q 447 1321 469 1321 q 406 1275 411 1321 l 314 1275 z "},"Ȍ":{"ha":1081,"x_min":63,"x_max":1019,"o":"m 63 0 m 540 -17 q 188 108 313 -17 q 63 476 63 232 q 188 845 63 721 q 540 969 313 969 q 894 845 769 969 q 1019 476 1019 721 q 894 108 1019 232 q 540 -17 769 -17 m 540 114 q 861 467 861 114 l 861 483 q 540 839 860 839 q 221 483 222 839 l 221 467 q 540 114 221 114 m 400 1022 l 274 1201 l 275 1206 l 425 1206 l 518 1022 l 400 1022 m 608 1022 l 482 1201 l 483 1206 l 633 1206 l 726 1022 l 608 1022 z "},"Ö":{"ha":1081,"x_min":63,"x_max":1019,"o":"m 63 0 m 540 -17 q 188 108 313 -17 q 63 476 63 232 q 188 845 63 721 q 540 969 313 969 q 894 845 769 969 q 1019 476 1019 721 q 894 108 1019 232 q 540 -17 769 -17 m 540 114 q 861 467 861 114 l 861 483 q 540 839 860 839 q 221 483 222 839 l 221 467 q 540 114 221 114 m 338 1064 l 338 1206 l 472 1206 l 472 1064 l 338 1064 m 607 1064 l 607 1206 l 742 1206 l 742 1064 l 607 1064 z "},"Ọ":{"ha":1081,"x_min":63,"x_max":1019,"o":"m 63 0 m 540 -17 q 188 108 313 -17 q 63 476 63 232 q 188 845 63 721 q 540 969 313 969 q 894 845 769 969 q 1019 476 1019 721 q 894 108 1019 232 q 540 -17 769 -17 m 540 114 q 861 467 861 114 l 861 483 q 540 839 860 839 q 221 483 222 839 l 221 467 q 540 114 221 114 m 469 -240 l 469 -94 l 611 -94 l 611 -240 l 469 -240 z "},"Ò":{"ha":1081,"x_min":63,"x_max":1019,"o":"m 63 0 m 540 -17 q 188 108 313 -17 q 63 476 63 232 q 188 845 63 721 q 540 969 313 969 q 894 845 769 969 q 1019 476 1019 721 q 894 108 1019 232 q 540 -17 769 -17 m 540 114 q 861 467 861 114 l 861 483 q 540 839 860 839 q 221 483 222 839 l 221 467 q 540 114 221 114 m 481 1022 l 331 1201 l 332 1206 l 481 1206 l 597 1022 l 481 1022 z "},"Ỏ":{"ha":1081,"x_min":63,"x_max":1019,"o":"m 63 0 m 540 -17 q 188 108 313 -17 q 63 476 63 232 q 188 845 63 721 q 540 969 313 969 q 894 845 769 969 q 1019 476 1019 721 q 894 108 1019 232 q 540 -17 769 -17 m 540 114 q 861 467 861 114 l 861 483 q 540 839 860 839 q 221 483 222 839 l 221 467 q 540 114 221 114 m 500 1104 l 518 1104 q 550 1110 540 1104 q 560 1129 560 1117 q 549 1149 560 1143 q 515 1154 538 1154 l 432 1154 l 432 1211 q 538 1222 481 1222 q 633 1203 592 1222 q 675 1139 675 1185 q 649 1083 675 1103 q 582 1060 622 1063 l 582 1022 l 500 1022 l 500 1104 z "},"Ơ":{"ha":1081,"x_min":63,"x_max":1089,"o":"m 1089 1075 q 921 815 1089 882 q 1019 476 1019 690 q 894 108 1019 232 q 540 -17 769 -17 q 188 108 313 -17 q 63 476 63 232 q 188 845 63 721 q 540 969 313 969 q 854 879 738 969 q 988 988 961 907 l 906 988 l 906 1150 l 1089 1150 l 1089 1075 m 861 483 q 540 839 860 839 q 221 483 222 839 l 221 467 q 540 114 221 114 q 861 467 861 114 l 861 483 z "},"Ớ":{"ha":1081,"x_min":63,"x_max":1089,"o":"m 63 0 m 1089 1075 q 921 815 1089 882 q 1019 476 1019 690 q 894 108 1019 232 q 540 -17 769 -17 q 188 108 313 -17 q 63 476 63 232 q 188 845 63 721 q 540 969 313 969 q 854 879 738 969 q 988 988 961 907 l 906 988 l 906 1150 l 1089 1150 l 1089 1075 m 861 483 q 540 839 860 839 q 221 483 222 839 l 221 467 q 540 114 221 114 q 861 467 861 114 l 861 483 m 481 1022 l 597 1206 l 746 1206 l 747 1201 l 597 1022 l 481 1022 z "},"Ợ":{"ha":1081,"x_min":63,"x_max":1089,"o":"m 63 0 m 1089 1075 q 921 815 1089 882 q 1019 476 1019 690 q 894 108 1019 232 q 540 -17 769 -17 q 188 108 313 -17 q 63 476 63 232 q 188 845 63 721 q 540 969 313 969 q 854 879 738 969 q 988 988 961 907 l 906 988 l 906 1150 l 1089 1150 l 1089 1075 m 861 483 q 540 839 860 839 q 221 483 222 839 l 221 467 q 540 114 221 114 q 861 467 861 114 l 861 483 m 469 -240 l 469 -94 l 611 -94 l 611 -240 l 469 -240 z "},"Ờ":{"ha":1081,"x_min":63,"x_max":1089,"o":"m 63 0 m 1089 1075 q 921 815 1089 882 q 1019 476 1019 690 q 894 108 1019 232 q 540 -17 769 -17 q 188 108 313 -17 q 63 476 63 232 q 188 845 63 721 q 540 969 313 969 q 854 879 738 969 q 988 988 961 907 l 906 988 l 906 1150 l 1089 1150 l 1089 1075 m 861 483 q 540 839 860 839 q 221 483 222 839 l 221 467 q 540 114 221 114 q 861 467 861 114 l 861 483 m 481 1022 l 331 1201 l 332 1206 l 481 1206 l 597 1022 l 481 1022 z "},"Ở":{"ha":1081,"x_min":63,"x_max":1089,"o":"m 63 0 m 1089 1075 q 921 815 1089 882 q 1019 476 1019 690 q 894 108 1019 232 q 540 -17 769 -17 q 188 108 313 -17 q 63 476 63 232 q 188 845 63 721 q 540 969 313 969 q 854 879 738 969 q 988 988 961 907 l 906 988 l 906 1150 l 1089 1150 l 1089 1075 m 861 483 q 540 839 860 839 q 221 483 222 839 l 221 467 q 540 114 221 114 q 861 467 861 114 l 861 483 m 500 1104 l 518 1104 q 550 1110 540 1104 q 560 1129 560 1117 q 549 1149 560 1143 q 515 1154 538 1154 l 432 1154 l 432 1211 q 538 1222 481 1222 q 633 1203 592 1222 q 675 1139 675 1185 q 649 1083 675 1103 q 582 1060 622 1063 l 582 1022 l 500 1022 l 500 1104 z "},"Ỡ":{"ha":1081,"x_min":63,"x_max":1089,"o":"m 63 0 m 1089 1075 q 921 815 1089 882 q 1019 476 1019 690 q 894 108 1019 232 q 540 -17 769 -17 q 188 108 313 -17 q 63 476 63 232 q 188 845 63 721 q 540 969 313 969 q 854 879 738 969 q 988 988 961 907 l 906 988 l 906 1150 l 1089 1150 l 1089 1075 m 861 483 q 540 839 860 839 q 221 483 222 839 l 221 467 q 540 114 221 114 q 861 467 861 114 l 861 483 m 311 1053 q 342 1163 311 1119 q 435 1206 372 1206 q 481 1200 460 1206 q 540 1182 503 1194 q 592 1165 571 1171 q 635 1160 613 1160 q 676 1206 671 1160 l 769 1206 q 738 1096 769 1139 q 644 1053 707 1053 q 599 1058 619 1053 q 540 1076 579 1064 q 487 1093 507 1088 q 444 1099 467 1099 q 403 1053 408 1099 l 311 1053 z "},"Ő":{"ha":1081,"x_min":63,"x_max":1019,"o":"m 63 0 m 540 -17 q 188 108 313 -17 q 63 476 63 232 q 188 845 63 721 q 540 969 313 969 q 894 845 769 969 q 1019 476 1019 721 q 894 108 1019 232 q 540 -17 769 -17 m 540 114 q 861 467 861 114 l 861 483 q 540 839 860 839 q 221 483 222 839 l 221 467 q 540 114 221 114 m 376 1022 l 469 1206 l 619 1206 l 621 1201 l 494 1022 l 376 1022 m 585 1022 l 678 1206 l 828 1206 l 829 1201 l 703 1022 l 585 1022 z "},"Ȏ":{"ha":1081,"x_min":63,"x_max":1019,"o":"m 63 0 m 540 -17 q 188 108 313 -17 q 63 476 63 232 q 188 845 63 721 q 540 969 313 969 q 894 845 769 969 q 1019 476 1019 721 q 894 108 1019 232 q 540 -17 769 -17 m 540 114 q 861 467 861 114 l 861 483 q 540 839 860 839 q 221 483 222 839 l 221 467 q 540 114 221 114 m 331 1035 q 381 1155 331 1104 q 539 1206 431 1206 q 698 1155 647 1206 q 749 1035 749 1104 l 651 1035 q 621 1084 647 1063 q 539 1106 594 1106 q 458 1084 483 1106 q 428 1035 433 1063 l 331 1035 z "},"Ō":{"ha":1081,"x_min":63,"x_max":1019,"o":"m 63 0 m 540 -17 q 188 108 313 -17 q 63 476 63 232 q 188 845 63 721 q 540 969 313 969 q 894 845 769 969 q 1019 476 1019 721 q 894 108 1019 232 q 540 -17 769 -17 m 540 114 q 861 467 861 114 l 861 483 q 540 839 860 839 q 221 483 222 839 l 221 467 q 540 114 221 114 m 328 1065 l 328 1172 l 751 1172 l 751 1065 l 328 1065 z "},"Ǫ":{"ha":1081,"x_min":63,"x_max":1019,"o":"m 735 11 q 700 -34 715 -8 q 685 -86 685 -60 q 702 -140 685 -118 q 756 -161 719 -161 l 797 -161 l 797 -233 q 708 -253 750 -253 q 608 -224 650 -253 q 565 -129 565 -194 q 611 -14 565 -64 q 540 -17 564 -17 q 188 108 313 -17 q 63 476 63 232 q 188 845 63 721 q 540 969 313 969 q 894 845 769 969 q 1019 476 1019 721 q 946 174 1019 290 q 735 11 872 57 m 221 467 q 540 114 221 114 q 861 467 861 114 l 861 483 q 540 839 860 839 q 221 483 222 839 l 221 467 z "},"Ø":{"ha":1081,"x_min":63,"x_max":1019,"o":"m 194 101 q 63 476 63 226 q 188 845 63 721 q 540 969 313 969 q 810 908 701 969 l 896 1021 l 1017 1021 l 888 851 q 1019 476 1019 724 q 894 108 1019 232 q 540 -17 769 -17 q 272 43 382 -17 l 188 -68 l 65 -68 l 194 101 m 725 796 q 540 839 651 839 q 221 486 221 839 l 221 469 q 286 222 221 308 l 725 796 m 540 114 q 861 467 861 114 l 861 483 q 796 731 861 639 l 358 156 q 540 114 428 114 z "},"Ǿ":{"ha":1081,"x_min":63,"x_max":1019,"o":"m 63 0 m 194 101 q 63 476 63 226 q 188 845 63 721 q 540 969 313 969 q 810 908 701 969 l 896 1021 l 1017 1021 l 888 851 q 1019 476 1019 724 q 894 108 1019 232 q 540 -17 769 -17 q 272 43 382 -17 l 188 -68 l 65 -68 l 194 101 m 725 796 q 540 839 651 839 q 221 486 221 839 l 221 469 q 286 222 221 308 l 725 796 m 540 114 q 861 467 861 114 l 861 483 q 796 731 861 639 l 358 156 q 540 114 428 114 m 481 1022 l 597 1206 l 746 1206 l 747 1201 l 597 1022 l 481 1022 z "},"Õ":{"ha":1081,"x_min":63,"x_max":1019,"o":"m 63 0 m 540 -17 q 188 108 313 -17 q 63 476 63 232 q 188 845 63 721 q 540 969 313 969 q 894 845 769 969 q 1019 476 1019 721 q 894 108 1019 232 q 540 -17 769 -17 m 540 114 q 861 467 861 114 l 861 483 q 540 839 860 839 q 221 483 222 839 l 221 467 q 540 114 221 114 m 311 1053 q 342 1163 311 1119 q 435 1206 372 1206 q 481 1200 460 1206 q 540 1182 503 1194 q 592 1165 571 1171 q 635 1160 613 1160 q 676 1206 671 1160 l 769 1206 q 738 1096 769 1139 q 644 1053 707 1053 q 599 1058 619 1053 q 540 1076 579 1064 q 487 1093 507 1088 q 444 1099 467 1099 q 403 1053 408 1099 l 311 1053 z "},"Œ":{"ha":1389,"x_min":63,"x_max":1314,"o":"m 443 -17 q 162 108 261 -17 q 63 476 63 233 q 162 844 63 719 q 443 969 261 969 q 697 857 601 969 l 697 953 l 1304 953 l 1304 824 l 850 824 l 850 551 l 1232 551 l 1232 422 l 850 422 l 850 129 l 1314 129 l 1314 0 l 697 0 l 697 96 q 443 -17 601 -17 m 468 114 q 638 199 579 114 q 697 476 697 285 q 638 753 697 668 q 468 839 579 839 q 281 753 342 839 q 221 476 221 668 q 281 199 221 285 q 468 114 342 114 z "},"P":{"ha":926,"x_min":104,"x_max":869,"o":"m 104 953 l 565 953 q 792 873 714 953 q 869 656 869 793 q 788 436 869 518 q 561 354 707 354 l 258 354 l 258 0 l 104 0 l 104 953 m 556 486 q 672 531 629 486 q 714 656 714 576 q 674 778 714 735 q 556 821 633 821 l 258 821 l 258 486 l 556 486 z "},"Þ":{"ha":926,"x_min":104,"x_max":869,"o":"m 104 953 l 258 953 l 258 793 l 565 793 q 792 713 714 793 q 869 496 869 633 q 788 275 869 357 q 561 193 706 193 l 258 193 l 258 0 l 104 0 l 104 953 m 556 326 q 672 372 629 326 q 714 494 714 417 q 674 617 714 574 q 556 660 633 660 l 258 660 l 258 326 l 556 326 z "},"Q":{"ha":1081,"x_min":63,"x_max":1019,"o":"m 597 -14 q 540 -17 561 -17 q 188 108 313 -17 q 63 476 63 232 q 188 845 63 721 q 540 969 313 969 q 894 845 769 969 q 1019 476 1019 721 q 953 187 1019 301 q 764 22 888 72 l 974 -181 l 763 -181 l 597 -14 m 540 114 q 861 467 861 114 l 861 483 q 540 839 860 839 q 221 483 222 839 l 221 467 q 540 114 221 114 z "},"R":{"ha":1003,"x_min":104,"x_max":946,"o":"m 104 953 l 603 953 q 829 878 751 953 q 907 674 907 803 q 863 506 907 575 q 735 404 818 436 l 946 0 l 778 0 l 582 382 l 258 382 l 258 0 l 104 0 l 104 953 m 593 513 q 709 555 667 513 q 751 672 751 597 q 711 782 751 743 q 593 821 671 821 l 258 821 l 258 513 l 593 513 z "},"Ŕ":{"ha":1003,"x_min":104,"x_max":946,"o":"m 104 0 m 104 953 l 603 953 q 829 878 751 953 q 907 674 907 803 q 863 506 907 575 q 735 404 818 436 l 946 0 l 778 0 l 582 382 l 258 382 l 258 0 l 104 0 l 104 953 m 593 513 q 709 555 667 513 q 751 672 751 597 q 711 782 751 743 q 593 821 671 821 l 258 821 l 258 513 l 593 513 m 442 1022 l 558 1206 l 707 1206 l 708 1201 l 558 1022 l 442 1022 z "},"Ř":{"ha":1003,"x_min":104,"x_max":946,"o":"m 104 0 m 104 953 l 603 953 q 829 878 751 953 q 907 674 907 803 q 863 506 907 575 q 735 404 818 436 l 946 0 l 778 0 l 582 382 l 258 382 l 258 0 l 104 0 l 104 953 m 593 513 q 709 555 667 513 q 751 672 751 597 q 711 782 751 743 q 593 821 671 821 l 258 821 l 258 513 l 593 513 m 435 1018 l 288 1206 l 422 1206 l 501 1100 l 579 1206 l 714 1206 l 568 1018 l 435 1018 z "},"Ŗ":{"ha":1003,"x_min":104,"x_max":946,"o":"m 104 0 m 104 953 l 603 953 q 829 878 751 953 q 907 674 907 803 q 863 506 907 575 q 735 404 818 436 l 946 0 l 778 0 l 582 382 l 258 382 l 258 0 l 104 0 l 104 953 m 593 513 q 709 555 667 513 q 751 672 751 597 q 711 782 751 743 q 593 821 671 821 l 258 821 l 258 513 l 593 513 m 431 -319 l 489 -203 l 429 -203 l 429 -72 l 572 -72 l 572 -190 l 504 -319 l 431 -319 z "},"Ȑ":{"ha":1003,"x_min":104,"x_max":946,"o":"m 104 0 m 104 953 l 603 953 q 829 878 751 953 q 907 674 907 803 q 863 506 907 575 q 735 404 818 436 l 946 0 l 778 0 l 582 382 l 258 382 l 258 0 l 104 0 l 104 953 m 593 513 q 709 555 667 513 q 751 672 751 597 q 711 782 751 743 q 593 821 671 821 l 258 821 l 258 513 l 593 513 m 361 1022 l 235 1201 l 236 1206 l 386 1206 l 479 1022 l 361 1022 m 569 1022 l 443 1201 l 444 1206 l 594 1206 l 688 1022 l 569 1022 z "},"Ṛ":{"ha":1003,"x_min":104,"x_max":946,"o":"m 104 0 m 104 953 l 603 953 q 829 878 751 953 q 907 674 907 803 q 863 506 907 575 q 735 404 818 436 l 946 0 l 778 0 l 582 382 l 258 382 l 258 0 l 104 0 l 104 953 m 593 513 q 709 555 667 513 q 751 672 751 597 q 711 782 751 743 q 593 821 671 821 l 258 821 l 258 513 l 593 513 m 431 -240 l 431 -94 l 572 -94 l 572 -240 l 431 -240 z "},"Ȓ":{"ha":1003,"x_min":104,"x_max":946,"o":"m 104 0 m 104 953 l 603 953 q 829 878 751 953 q 907 674 907 803 q 863 506 907 575 q 735 404 818 436 l 946 0 l 778 0 l 582 382 l 258 382 l 258 0 l 104 0 l 104 953 m 593 513 q 709 555 667 513 q 751 672 751 597 q 711 782 751 743 q 593 821 671 821 l 258 821 l 258 513 l 593 513 m 292 1035 q 342 1155 292 1104 q 500 1206 392 1206 q 659 1155 608 1206 q 710 1035 710 1104 l 613 1035 q 582 1084 608 1063 q 500 1106 556 1106 q 419 1084 444 1106 q 389 1035 394 1063 l 292 1035 z "},"S":{"ha":926,"x_min":65,"x_max":858,"o":"m 460 -17 q 176 55 288 -17 q 65 272 65 126 l 67 301 l 219 301 q 218 291 219 299 q 217 274 217 283 q 282 155 217 196 q 458 114 347 114 q 643 150 581 114 q 706 254 706 186 q 672 334 706 303 q 585 384 638 365 q 444 426 533 403 q 260 484 332 456 q 139 567 189 513 q 89 711 89 622 q 193 903 89 838 q 464 969 297 969 q 730 901 628 969 q 832 697 832 833 l 832 681 l 682 681 l 682 699 q 622 802 682 765 q 467 839 563 839 q 303 808 364 839 q 243 719 243 778 q 276 648 243 676 q 360 601 310 619 q 496 561 410 583 q 684 503 613 531 q 807 420 756 475 q 858 276 858 365 q 751 53 858 124 q 460 -17 644 -17 z "},"Ś":{"ha":926,"x_min":65,"x_max":858,"o":"m 65 0 m 460 -17 q 176 55 288 -17 q 65 272 65 126 l 67 301 l 219 301 q 218 291 219 299 q 217 274 217 283 q 282 155 217 196 q 458 114 347 114 q 643 150 581 114 q 706 254 706 186 q 672 334 706 303 q 585 384 638 365 q 444 426 533 403 q 260 484 332 456 q 139 567 189 513 q 89 711 89 622 q 193 903 89 838 q 464 969 297 969 q 730 901 628 969 q 832 697 832 833 l 832 681 l 682 681 l 682 699 q 622 802 682 765 q 467 839 563 839 q 303 808 364 839 q 243 719 243 778 q 276 648 243 676 q 360 601 310 619 q 496 561 410 583 q 684 503 613 531 q 807 420 756 475 q 858 276 858 365 q 751 53 858 124 q 460 -17 644 -17 m 404 1022 l 521 1206 l 669 1206 l 671 1201 l 521 1022 l 404 1022 z "},"Ꞌ":{"ha":260,"x_min":65,"x_max":218,"o":"m 65 289 l 65 953 l 218 953 l 218 807 l 150 289 l 65 289 z "},"Š":{"ha":926,"x_min":65,"x_max":858,"o":"m 65 0 m 460 -17 q 176 55 288 -17 q 65 272 65 126 l 67 301 l 219 301 q 218 291 219 299 q 217 274 217 283 q 282 155 217 196 q 458 114 347 114 q 643 150 581 114 q 706 254 706 186 q 672 334 706 303 q 585 384 638 365 q 444 426 533 403 q 260 484 332 456 q 139 567 189 513 q 89 711 89 622 q 193 903 89 838 q 464 969 297 969 q 730 901 628 969 q 832 697 832 833 l 832 681 l 682 681 l 682 699 q 622 802 682 765 q 467 839 563 839 q 303 808 364 839 q 243 719 243 778 q 276 648 243 676 q 360 601 310 619 q 496 561 410 583 q 684 503 613 531 q 807 420 756 475 q 858 276 858 365 q 751 53 858 124 q 460 -17 644 -17 m 397 1018 l 250 1206 l 385 1206 l 464 1100 l 542 1206 l 676 1206 l 531 1018 l 397 1018 z "},"Ş":{"ha":926,"x_min":65,"x_max":858,"o":"m 468 -253 q 332 -242 394 -253 l 332 -174 l 465 -174 q 509 -167 494 -174 q 524 -140 524 -160 q 512 -115 524 -124 q 469 -107 500 -107 l 403 -107 l 418 -15 q 163 65 261 -7 q 65 272 65 136 l 67 301 l 219 301 q 218 291 219 299 q 217 274 217 283 q 282 155 217 196 q 458 114 347 114 q 643 150 581 114 q 706 254 706 186 q 672 334 706 303 q 585 384 638 365 q 444 426 533 403 q 260 484 332 456 q 139 567 189 513 q 89 711 89 622 q 193 903 89 838 q 464 969 297 969 q 730 901 628 969 q 832 697 832 833 l 832 681 l 682 681 l 682 699 q 622 802 682 765 q 467 839 563 839 q 303 808 364 839 q 243 719 243 778 q 276 648 243 676 q 360 601 310 619 q 496 561 410 583 q 684 503 613 531 q 807 420 756 475 q 858 276 858 365 q 767 65 858 135 q 514 -15 675 -6 l 508 -49 q 603 -74 567 -51 q 639 -140 639 -96 q 587 -228 639 -203 q 468 -253 535 -253 z "},"Ŝ":{"ha":926,"x_min":65,"x_max":858,"o":"m 65 0 m 460 -17 q 176 55 288 -17 q 65 272 65 126 l 67 301 l 219 301 q 218 291 219 299 q 217 274 217 283 q 282 155 217 196 q 458 114 347 114 q 643 150 581 114 q 706 254 706 186 q 672 334 706 303 q 585 384 638 365 q 444 426 533 403 q 260 484 332 456 q 139 567 189 513 q 89 711 89 622 q 193 903 89 838 q 464 969 297 969 q 730 901 628 969 q 832 697 832 833 l 832 681 l 682 681 l 682 699 q 622 802 682 765 q 467 839 563 839 q 303 808 364 839 q 243 719 243 778 q 276 648 243 676 q 360 601 310 619 q 496 561 410 583 q 684 503 613 531 q 807 420 756 475 q 858 276 858 365 q 751 53 858 124 q 460 -17 644 -17 m 250 1018 l 397 1206 l 531 1206 l 676 1018 l 542 1018 l 464 1124 l 385 1018 l 250 1018 z "},"Ș":{"ha":926,"x_min":65,"x_max":858,"o":"m 65 0 m 460 -17 q 176 55 288 -17 q 65 272 65 126 l 67 301 l 219 301 q 218 291 219 299 q 217 274 217 283 q 282 155 217 196 q 458 114 347 114 q 643 150 581 114 q 706 254 706 186 q 672 334 706 303 q 585 384 638 365 q 444 426 533 403 q 260 484 332 456 q 139 567 189 513 q 89 711 89 622 q 193 903 89 838 q 464 969 297 969 q 730 901 628 969 q 832 697 832 833 l 832 681 l 682 681 l 682 699 q 622 802 682 765 q 467 839 563 839 q 303 808 364 839 q 243 719 243 778 q 276 648 243 676 q 360 601 310 619 q 496 561 410 583 q 684 503 613 531 q 807 420 756 475 q 858 276 858 365 q 751 53 858 124 q 460 -17 644 -17 m 393 -319 l 451 -203 l 392 -203 l 392 -72 l 535 -72 l 535 -190 l 467 -319 l 393 -319 z "},"Ṣ":{"ha":926,"x_min":65,"x_max":858,"o":"m 65 0 m 460 -17 q 176 55 288 -17 q 65 272 65 126 l 67 301 l 219 301 q 218 291 219 299 q 217 274 217 283 q 282 155 217 196 q 458 114 347 114 q 643 150 581 114 q 706 254 706 186 q 672 334 706 303 q 585 384 638 365 q 444 426 533 403 q 260 484 332 456 q 139 567 189 513 q 89 711 89 622 q 193 903 89 838 q 464 969 297 969 q 730 901 628 969 q 832 697 832 833 l 832 681 l 682 681 l 682 699 q 622 802 682 765 q 467 839 563 839 q 303 808 364 839 q 243 719 243 778 q 276 648 243 676 q 360 601 310 619 q 496 561 410 583 q 684 503 613 531 q 807 420 756 475 q 858 276 858 365 q 751 53 858 124 q 460 -17 644 -17 m 393 -240 l 393 -94 l 535 -94 l 535 -240 l 393 -240 z "},"ẞ":{"ha":1079,"x_min":104,"x_max":1001,"o":"m 104 572 q 224 868 104 767 q 553 969 344 969 q 763 936 672 969 q 904 841 854 903 q 954 697 954 779 q 918 567 954 625 q 828 488 882 508 l 828 482 q 956 403 910 461 q 1001 261 1001 346 q 966 128 1001 188 q 865 34 931 68 q 711 0 799 0 l 400 0 l 400 133 l 693 133 q 804 174 764 133 q 844 271 844 215 q 797 368 844 331 q 665 406 749 406 l 400 406 l 400 538 l 661 538 q 759 579 721 538 q 797 683 797 621 q 740 797 797 756 q 567 839 682 839 q 338 770 417 839 q 258 563 258 701 l 258 0 l 104 0 l 104 572 z "},"Ə":{"ha":1053,"x_min":63,"x_max":985,"o":"m 518 -17 q 177 92 292 -17 q 63 439 63 201 l 63 518 l 826 518 q 738 763 817 683 q 503 842 660 842 q 292 790 374 842 q 211 628 211 738 l 63 628 q 185 882 63 794 q 514 969 308 969 q 867 847 750 969 q 985 469 985 725 q 870 102 985 221 q 518 -17 756 -17 m 526 111 q 737 176 667 111 q 822 389 807 242 l 222 389 q 302 178 222 244 q 526 111 382 111 z "},"T":{"ha":849,"x_min":31,"x_max":818,"o":"m 347 0 l 347 819 l 31 819 l 31 953 l 818 953 l 818 819 l 501 819 l 501 0 l 347 0 z "},"Ŧ":{"ha":849,"x_min":31,"x_max":818,"o":"m 347 0 l 347 517 l 208 517 l 208 625 l 347 625 l 347 819 l 31 819 l 31 953 l 818 953 l 818 819 l 501 819 l 501 625 l 640 625 l 640 517 l 501 517 l 501 0 l 347 0 z "},"Ť":{"ha":849,"x_min":31,"x_max":818,"o":"m 31 0 m 347 0 l 347 819 l 31 819 l 31 953 l 818 953 l 818 819 l 501 819 l 501 0 l 347 0 m 358 1018 l 211 1206 l 346 1206 l 425 1100 l 503 1206 l 638 1206 l 492 1018 l 358 1018 z "},"Ţ":{"ha":849,"x_min":31,"x_max":818,"o":"m 471 0 l 463 -49 q 557 -74 521 -51 q 593 -140 593 -96 q 541 -228 593 -203 q 422 -253 489 -253 q 286 -242 349 -253 l 286 -174 l 419 -174 q 463 -167 449 -174 q 478 -140 478 -160 q 465 -115 478 -122 q 422 -107 453 -107 l 357 -107 l 375 0 l 347 0 l 347 819 l 31 819 l 31 953 l 818 953 l 818 819 l 501 819 l 501 0 l 471 0 z "},"Ț":{"ha":849,"x_min":31,"x_max":818,"o":"m 31 0 m 347 0 l 347 819 l 31 819 l 31 953 l 818 953 l 818 819 l 501 819 l 501 0 l 347 0 m 354 -319 l 413 -203 l 353 -203 l 353 -72 l 496 -72 l 496 -190 l 428 -319 l 354 -319 z "},"Ṭ":{"ha":849,"x_min":31,"x_max":818,"o":"m 31 0 m 347 0 l 347 819 l 31 819 l 31 953 l 818 953 l 818 819 l 501 819 l 501 0 l 347 0 m 354 -240 l 354 -94 l 496 -94 l 496 -240 l 354 -240 z "},"U":{"ha":1003,"x_min":104,"x_max":899,"o":"m 500 -17 q 208 75 311 -17 q 104 353 104 167 l 104 953 l 258 953 l 258 350 q 322 174 258 235 q 500 114 385 114 q 681 174 617 114 q 744 350 744 235 l 744 953 l 899 953 l 899 353 q 795 75 899 167 q 500 -17 692 -17 z "},"Ú":{"ha":1003,"x_min":104,"x_max":899,"o":"m 104 0 m 500 -17 q 208 75 311 -17 q 104 353 104 167 l 104 953 l 258 953 l 258 350 q 322 174 258 235 q 500 114 385 114 q 681 174 617 114 q 744 350 744 235 l 744 953 l 899 953 l 899 353 q 795 75 899 167 q 500 -17 692 -17 m 442 1022 l 558 1206 l 707 1206 l 708 1201 l 558 1022 l 442 1022 z "},"Ŭ":{"ha":1003,"x_min":104,"x_max":899,"o":"m 104 0 m 500 -17 q 208 75 311 -17 q 104 353 104 167 l 104 953 l 258 953 l 258 350 q 322 174 258 235 q 500 114 385 114 q 681 174 617 114 q 744 350 744 235 l 744 953 l 899 953 l 899 353 q 795 75 899 167 q 500 -17 692 -17 m 500 1035 q 342 1085 392 1035 q 292 1206 292 1136 l 389 1206 q 419 1156 394 1178 q 500 1135 444 1135 q 582 1156 556 1135 q 613 1206 608 1178 l 710 1206 q 659 1085 710 1136 q 500 1035 608 1035 z "},"Ǔ":{"ha":1003,"x_min":104,"x_max":899,"o":"m 104 0 m 500 -17 q 208 75 311 -17 q 104 353 104 167 l 104 953 l 258 953 l 258 350 q 322 174 258 235 q 500 114 385 114 q 681 174 617 114 q 744 350 744 235 l 744 953 l 899 953 l 899 353 q 795 75 899 167 q 500 -17 692 -17 m 435 1018 l 288 1206 l 422 1206 l 501 1100 l 579 1206 l 714 1206 l 568 1018 l 435 1018 z "},"Û":{"ha":1003,"x_min":104,"x_max":899,"o":"m 104 0 m 500 -17 q 208 75 311 -17 q 104 353 104 167 l 104 953 l 258 953 l 258 350 q 322 174 258 235 q 500 114 385 114 q 681 174 617 114 q 744 350 744 235 l 744 953 l 899 953 l 899 353 q 795 75 899 167 q 500 -17 692 -17 m 288 1018 l 435 1206 l 568 1206 l 714 1018 l 579 1018 l 501 1124 l 422 1018 l 288 1018 z "},"Ȕ":{"ha":1003,"x_min":104,"x_max":899,"o":"m 104 0 m 500 -17 q 208 75 311 -17 q 104 353 104 167 l 104 953 l 258 953 l 258 350 q 322 174 258 235 q 500 114 385 114 q 681 174 617 114 q 744 350 744 235 l 744 953 l 899 953 l 899 353 q 795 75 899 167 q 500 -17 692 -17 m 361 1022 l 235 1201 l 236 1206 l 386 1206 l 479 1022 l 361 1022 m 569 1022 l 443 1201 l 444 1206 l 594 1206 l 688 1022 l 569 1022 z "},"Ü":{"ha":1003,"x_min":104,"x_max":899,"o":"m 104 0 m 500 -17 q 208 75 311 -17 q 104 353 104 167 l 104 953 l 258 953 l 258 350 q 322 174 258 235 q 500 114 385 114 q 681 174 617 114 q 744 350 744 235 l 744 953 l 899 953 l 899 353 q 795 75 899 167 q 500 -17 692 -17 m 299 1064 l 299 1206 l 433 1206 l 433 1064 l 299 1064 m 568 1064 l 568 1206 l 703 1206 l 703 1064 l 568 1064 z "},"Ǘ":{"ha":1003,"x_min":104,"x_max":899,"o":"m 104 0 m 500 -17 q 208 75 311 -17 q 104 353 104 167 l 104 953 l 258 953 l 258 350 q 322 174 258 235 q 500 114 385 114 q 681 174 617 114 q 744 350 744 235 l 744 953 l 899 953 l 899 353 q 795 75 899 167 q 500 -17 692 -17 m 299 1064 l 299 1206 l 433 1206 l 433 1064 l 299 1064 m 568 1064 l 568 1206 l 703 1206 l 703 1064 l 568 1064 m 442 1254 l 558 1438 l 707 1438 l 708 1433 l 558 1254 l 442 1254 z "},"Ǚ":{"ha":1003,"x_min":104,"x_max":899,"o":"m 104 0 m 500 -17 q 208 75 311 -17 q 104 353 104 167 l 104 953 l 258 953 l 258 350 q 322 174 258 235 q 500 114 385 114 q 681 174 617 114 q 744 350 744 235 l 744 953 l 899 953 l 899 353 q 795 75 899 167 q 500 -17 692 -17 m 299 1064 l 299 1206 l 433 1206 l 433 1064 l 299 1064 m 568 1064 l 568 1206 l 703 1206 l 703 1064 l 568 1064 m 435 1250 l 288 1438 l 422 1438 l 501 1332 l 579 1438 l 714 1438 l 568 1250 l 435 1250 z "},"Ǜ":{"ha":1003,"x_min":104,"x_max":899,"o":"m 104 0 m 500 -17 q 208 75 311 -17 q 104 353 104 167 l 104 953 l 258 953 l 258 350 q 322 174 258 235 q 500 114 385 114 q 681 174 617 114 q 744 350 744 235 l 744 953 l 899 953 l 899 353 q 795 75 899 167 q 500 -17 692 -17 m 299 1064 l 299 1206 l 433 1206 l 433 1064 l 299 1064 m 568 1064 l 568 1206 l 703 1206 l 703 1064 l 568 1064 m 442 1254 l 292 1433 l 293 1438 l 442 1438 l 558 1254 l 442 1254 z "},"Ǖ":{"ha":1003,"x_min":104,"x_max":899,"o":"m 104 0 m 500 -17 q 208 75 311 -17 q 104 353 104 167 l 104 953 l 258 953 l 258 350 q 322 174 258 235 q 500 114 385 114 q 681 174 617 114 q 744 350 744 235 l 744 953 l 899 953 l 899 353 q 795 75 899 167 q 500 -17 692 -17 m 299 1064 l 299 1206 l 433 1206 l 433 1064 l 299 1064 m 568 1064 l 568 1206 l 703 1206 l 703 1064 l 568 1064 m 289 1297 l 289 1404 l 713 1404 l 713 1297 l 289 1297 z "},"Ụ":{"ha":1003,"x_min":104,"x_max":899,"o":"m 104 0 m 500 -17 q 208 75 311 -17 q 104 353 104 167 l 104 953 l 258 953 l 258 350 q 322 174 258 235 q 500 114 385 114 q 681 174 617 114 q 744 350 744 235 l 744 953 l 899 953 l 899 353 q 795 75 899 167 q 500 -17 692 -17 m 431 -240 l 431 -94 l 572 -94 l 572 -240 l 431 -240 z "},"Ù":{"ha":1003,"x_min":104,"x_max":899,"o":"m 104 0 m 500 -17 q 208 75 311 -17 q 104 353 104 167 l 104 953 l 258 953 l 258 350 q 322 174 258 235 q 500 114 385 114 q 681 174 617 114 q 744 350 744 235 l 744 953 l 899 953 l 899 353 q 795 75 899 167 q 500 -17 692 -17 m 442 1022 l 292 1201 l 293 1206 l 442 1206 l 558 1022 l 442 1022 z "},"Ủ":{"ha":1003,"x_min":104,"x_max":899,"o":"m 104 0 m 500 -17 q 208 75 311 -17 q 104 353 104 167 l 104 953 l 258 953 l 258 350 q 322 174 258 235 q 500 114 385 114 q 681 174 617 114 q 744 350 744 235 l 744 953 l 899 953 l 899 353 q 795 75 899 167 q 500 -17 692 -17 m 461 1104 l 479 1104 q 511 1110 501 1104 q 521 1129 521 1117 q 510 1149 521 1143 q 476 1154 499 1154 l 393 1154 l 393 1211 q 499 1222 442 1222 q 594 1203 553 1222 q 636 1139 636 1185 q 610 1083 636 1103 q 543 1060 583 1063 l 543 1022 l 461 1022 l 461 1104 z "},"Ư":{"ha":1003,"x_min":104,"x_max":1056,"o":"m 1056 1206 l 1056 1131 q 899 876 1056 943 l 899 353 q 795 75 899 167 q 500 -17 692 -17 q 208 75 311 -17 q 104 353 104 167 l 104 953 l 258 953 l 258 350 q 322 174 258 235 q 500 114 385 114 q 681 174 617 114 q 744 350 744 235 l 744 953 l 872 953 q 954 1043 936 982 l 872 1043 l 872 1206 l 1056 1206 z "},"Ứ":{"ha":1003,"x_min":104,"x_max":1056,"o":"m 104 0 m 1056 1206 l 1056 1131 q 899 876 1056 943 l 899 353 q 795 75 899 167 q 500 -17 692 -17 q 208 75 311 -17 q 104 353 104 167 l 104 953 l 258 953 l 258 350 q 322 174 258 235 q 500 114 385 114 q 681 174 617 114 q 744 350 744 235 l 744 953 l 872 953 q 954 1043 936 982 l 872 1043 l 872 1206 l 1056 1206 m 442 1022 l 558 1206 l 707 1206 l 708 1201 l 558 1022 l 442 1022 z "},"Ự":{"ha":1003,"x_min":104,"x_max":1056,"o":"m 104 0 m 1056 1206 l 1056 1131 q 899 876 1056 943 l 899 353 q 795 75 899 167 q 500 -17 692 -17 q 208 75 311 -17 q 104 353 104 167 l 104 953 l 258 953 l 258 350 q 322 174 258 235 q 500 114 385 114 q 681 174 617 114 q 744 350 744 235 l 744 953 l 872 953 q 954 1043 936 982 l 872 1043 l 872 1206 l 1056 1206 m 431 -240 l 431 -94 l 572 -94 l 572 -240 l 431 -240 z "},"Ừ":{"ha":1003,"x_min":104,"x_max":1056,"o":"m 104 0 m 1056 1206 l 1056 1131 q 899 876 1056 943 l 899 353 q 795 75 899 167 q 500 -17 692 -17 q 208 75 311 -17 q 104 353 104 167 l 104 953 l 258 953 l 258 350 q 322 174 258 235 q 500 114 385 114 q 681 174 617 114 q 744 350 744 235 l 744 953 l 872 953 q 954 1043 936 982 l 872 1043 l 872 1206 l 1056 1206 m 442 1022 l 292 1201 l 293 1206 l 442 1206 l 558 1022 l 442 1022 z "},"Ử":{"ha":1003,"x_min":104,"x_max":1056,"o":"m 104 0 m 1056 1206 l 1056 1131 q 899 876 1056 943 l 899 353 q 795 75 899 167 q 500 -17 692 -17 q 208 75 311 -17 q 104 353 104 167 l 104 953 l 258 953 l 258 350 q 322 174 258 235 q 500 114 385 114 q 681 174 617 114 q 744 350 744 235 l 744 953 l 872 953 q 954 1043 936 982 l 872 1043 l 872 1206 l 1056 1206 m 461 1104 l 479 1104 q 511 1110 501 1104 q 521 1129 521 1117 q 510 1149 521 1143 q 476 1154 499 1154 l 393 1154 l 393 1211 q 499 1222 442 1222 q 594 1203 553 1222 q 636 1139 636 1185 q 610 1083 636 1103 q 543 1060 583 1063 l 543 1022 l 461 1022 l 461 1104 z "},"Ữ":{"ha":1003,"x_min":104,"x_max":1056,"o":"m 104 0 m 1056 1206 l 1056 1131 q 899 876 1056 943 l 899 353 q 795 75 899 167 q 500 -17 692 -17 q 208 75 311 -17 q 104 353 104 167 l 104 953 l 258 953 l 258 350 q 322 174 258 235 q 500 114 385 114 q 681 174 617 114 q 744 350 744 235 l 744 953 l 872 953 q 954 1043 936 982 l 872 1043 l 872 1206 l 1056 1206 m 272 1053 q 303 1163 272 1119 q 396 1206 333 1206 q 442 1200 421 1206 q 501 1182 464 1194 q 553 1165 532 1171 q 596 1160 574 1160 q 638 1206 632 1160 l 731 1206 q 699 1096 731 1139 q 606 1053 668 1053 q 560 1058 581 1053 q 501 1076 540 1064 q 448 1093 468 1088 q 406 1099 428 1099 q 364 1053 369 1099 l 272 1053 z "},"Ű":{"ha":1003,"x_min":104,"x_max":899,"o":"m 104 0 m 500 -17 q 208 75 311 -17 q 104 353 104 167 l 104 953 l 258 953 l 258 350 q 322 174 258 235 q 500 114 385 114 q 681 174 617 114 q 744 350 744 235 l 744 953 l 899 953 l 899 353 q 795 75 899 167 q 500 -17 692 -17 m 338 1022 l 431 1206 l 581 1206 l 582 1201 l 456 1022 l 338 1022 m 546 1022 l 639 1206 l 789 1206 l 790 1201 l 664 1022 l 546 1022 z "},"Ȗ":{"ha":1003,"x_min":104,"x_max":899,"o":"m 104 0 m 500 -17 q 208 75 311 -17 q 104 353 104 167 l 104 953 l 258 953 l 258 350 q 322 174 258 235 q 500 114 385 114 q 681 174 617 114 q 744 350 744 235 l 744 953 l 899 953 l 899 353 q 795 75 899 167 q 500 -17 692 -17 m 292 1035 q 342 1155 292 1104 q 500 1206 392 1206 q 659 1155 608 1206 q 710 1035 710 1104 l 613 1035 q 582 1084 608 1063 q 500 1106 556 1106 q 419 1084 444 1106 q 389 1035 394 1063 l 292 1035 z "},"Ū":{"ha":1003,"x_min":104,"x_max":899,"o":"m 104 0 m 500 -17 q 208 75 311 -17 q 104 353 104 167 l 104 953 l 258 953 l 258 350 q 322 174 258 235 q 500 114 385 114 q 681 174 617 114 q 744 350 744 235 l 744 953 l 899 953 l 899 353 q 795 75 899 167 q 500 -17 692 -17 m 289 1065 l 289 1172 l 713 1172 l 713 1065 l 289 1065 z "},"Ų":{"ha":1003,"x_min":104,"x_max":899,"o":"m 600 -253 q 499 -224 542 -253 q 457 -129 457 -194 q 499 -17 457 -65 q 207 76 310 -15 q 104 353 104 167 l 104 953 l 258 953 l 258 350 q 322 174 258 235 q 500 114 385 114 q 681 174 617 114 q 744 350 744 235 l 744 953 l 899 953 l 899 353 q 824 106 899 194 q 608 -7 749 17 q 576 -86 576 -47 q 594 -140 576 -118 q 647 -161 611 -161 l 689 -161 l 689 -233 q 600 -253 642 -253 z "},"Ů":{"ha":1003,"x_min":104,"x_max":899,"o":"m 104 0 m 500 -17 q 208 75 311 -17 q 104 353 104 167 l 104 953 l 258 953 l 258 350 q 322 174 258 235 q 500 114 385 114 q 681 174 617 114 q 744 350 744 235 l 744 953 l 899 953 l 899 353 q 795 75 899 167 q 500 -17 692 -17 m 501 983 q 403 1022 440 983 q 365 1118 365 1061 q 402 1215 365 1176 q 501 1254 439 1254 q 601 1215 564 1254 q 638 1118 638 1176 q 600 1022 638 1061 q 501 983 563 983 m 501 1051 q 551 1071 532 1051 q 569 1118 569 1090 q 551 1167 569 1147 q 501 1186 532 1186 q 452 1167 471 1186 q 433 1118 433 1147 q 453 1071 433 1090 q 501 1051 472 1051 z "},"Ũ":{"ha":1003,"x_min":104,"x_max":899,"o":"m 104 0 m 500 -17 q 208 75 311 -17 q 104 353 104 167 l 104 953 l 258 953 l 258 350 q 322 174 258 235 q 500 114 385 114 q 681 174 617 114 q 744 350 744 235 l 744 953 l 899 953 l 899 353 q 795 75 899 167 q 500 -17 692 -17 m 272 1053 q 303 1163 272 1119 q 396 1206 333 1206 q 442 1200 421 1206 q 501 1182 464 1194 q 553 1165 532 1171 q 596 1160 574 1160 q 638 1206 632 1160 l 731 1206 q 699 1096 731 1139 q 606 1053 668 1053 q 560 1058 581 1053 q 501 1076 540 1064 q 448 1093 468 1088 q 406 1099 428 1099 q 364 1053 369 1099 l 272 1053 z "},"V":{"ha":926,"x_min":17,"x_max":908,"o":"m 17 953 l 183 953 l 413 313 l 428 268 l 464 163 l 471 163 l 501 250 q 513 285 507 269 q 522 314 518 301 l 750 953 l 908 953 l 558 0 l 368 0 l 17 953 z "},"W":{"ha":1311,"x_min":11,"x_max":1300,"o":"m 11 953 l 174 953 l 349 307 q 367 226 358 269 q 381 165 376 182 l 388 165 l 414 307 l 558 953 l 764 953 l 913 307 q 929 224 921 267 q 940 165 938 182 l 947 165 q 960 226 951 182 q 979 307 969 269 l 1151 953 l 1300 953 l 1032 0 l 839 0 l 686 650 q 669 735 678 686 q 657 799 660 783 l 650 799 q 639 731 647 782 q 624 650 631 681 l 472 0 l 279 0 l 11 953 z "},"Ẃ":{"ha":1311,"x_min":11,"x_max":1300,"o":"m 11 0 m 11 953 l 174 953 l 349 307 q 367 226 358 269 q 381 165 376 182 l 388 165 l 414 307 l 558 953 l 764 953 l 913 307 q 929 224 921 267 q 940 165 938 182 l 947 165 q 960 226 951 182 q 979 307 969 269 l 1151 953 l 1300 953 l 1032 0 l 839 0 l 686 650 q 669 735 678 686 q 657 799 660 783 l 650 799 q 639 731 647 782 q 624 650 631 681 l 472 0 l 279 0 l 11 953 m 596 1022 l 713 1206 l 861 1206 l 863 1201 l 713 1022 l 596 1022 z "},"Ŵ":{"ha":1311,"x_min":11,"x_max":1300,"o":"m 11 0 m 11 953 l 174 953 l 349 307 q 367 226 358 269 q 381 165 376 182 l 388 165 l 414 307 l 558 953 l 764 953 l 913 307 q 929 224 921 267 q 940 165 938 182 l 947 165 q 960 226 951 182 q 979 307 969 269 l 1151 953 l 1300 953 l 1032 0 l 839 0 l 686 650 q 669 735 678 686 q 657 799 660 783 l 650 799 q 639 731 647 782 q 624 650 631 681 l 472 0 l 279 0 l 11 953 m 442 1018 l 589 1206 l 722 1206 l 868 1018 l 733 1018 l 656 1124 l 576 1018 l 442 1018 z "},"Ẅ":{"ha":1311,"x_min":11,"x_max":1300,"o":"m 11 0 m 11 953 l 174 953 l 349 307 q 367 226 358 269 q 381 165 376 182 l 388 165 l 414 307 l 558 953 l 764 953 l 913 307 q 929 224 921 267 q 940 165 938 182 l 947 165 q 960 226 951 182 q 979 307 969 269 l 1151 953 l 1300 953 l 1032 0 l 839 0 l 686 650 q 669 735 678 686 q 657 799 660 783 l 650 799 q 639 731 647 782 q 624 650 631 681 l 472 0 l 279 0 l 11 953 m 453 1064 l 453 1206 l 588 1206 l 588 1064 l 453 1064 m 722 1064 l 722 1206 l 857 1206 l 857 1064 l 722 1064 z "},"Ẁ":{"ha":1311,"x_min":11,"x_max":1300,"o":"m 11 0 m 11 953 l 174 953 l 349 307 q 367 226 358 269 q 381 165 376 182 l 388 165 l 414 307 l 558 953 l 764 953 l 913 307 q 929 224 921 267 q 940 165 938 182 l 947 165 q 960 226 951 182 q 979 307 969 269 l 1151 953 l 1300 953 l 1032 0 l 839 0 l 686 650 q 669 735 678 686 q 657 799 660 783 l 650 799 q 639 731 647 782 q 624 650 631 681 l 472 0 l 279 0 l 11 953 m 596 1022 l 446 1201 l 447 1206 l 596 1206 l 713 1022 l 596 1022 z "},"X":{"ha":926,"x_min":4,"x_max":921,"o":"m 4 0 l 365 499 l 38 953 l 226 953 l 460 622 l 471 622 l 706 953 l 886 953 l 558 501 l 921 0 l 733 0 l 464 381 l 454 381 l 185 0 l 4 0 z "},"Y":{"ha":926,"x_min":15,"x_max":913,"o":"m 388 0 l 388 392 l 15 953 l 196 953 l 465 531 l 472 531 l 740 953 l 913 953 l 542 392 l 542 0 l 388 0 z "},"Ý":{"ha":926,"x_min":15,"x_max":913,"o":"m 15 0 m 388 0 l 388 392 l 15 953 l 196 953 l 465 531 l 472 531 l 740 953 l 913 953 l 542 392 l 542 0 l 388 0 m 404 1022 l 521 1206 l 669 1206 l 671 1201 l 521 1022 l 404 1022 z "},"Ŷ":{"ha":926,"x_min":15,"x_max":913,"o":"m 15 0 m 388 0 l 388 392 l 15 953 l 196 953 l 465 531 l 472 531 l 740 953 l 913 953 l 542 392 l 542 0 l 388 0 m 250 1018 l 397 1206 l 531 1206 l 676 1018 l 542 1018 l 464 1124 l 385 1018 l 250 1018 z "},"Ÿ":{"ha":926,"x_min":15,"x_max":913,"o":"m 15 0 m 388 0 l 388 392 l 15 953 l 196 953 l 465 531 l 472 531 l 740 953 l 913 953 l 542 392 l 542 0 l 388 0 m 261 1064 l 261 1206 l 396 1206 l 396 1064 l 261 1064 m 531 1064 l 531 1206 l 665 1206 l 665 1064 l 531 1064 z "},"Ỵ":{"ha":926,"x_min":15,"x_max":913,"o":"m 15 0 m 388 0 l 388 392 l 15 953 l 196 953 l 465 531 l 472 531 l 740 953 l 913 953 l 542 392 l 542 0 l 388 0 m 393 -240 l 393 -94 l 535 -94 l 535 -240 l 393 -240 z "},"Ỳ":{"ha":926,"x_min":15,"x_max":913,"o":"m 15 0 m 388 0 l 388 392 l 15 953 l 196 953 l 465 531 l 472 531 l 740 953 l 913 953 l 542 392 l 542 0 l 388 0 m 404 1022 l 254 1201 l 256 1206 l 404 1206 l 521 1022 l 404 1022 z "},"Ỷ":{"ha":926,"x_min":15,"x_max":913,"o":"m 15 0 m 388 0 l 388 392 l 15 953 l 196 953 l 465 531 l 472 531 l 740 953 l 913 953 l 542 392 l 542 0 l 388 0 m 424 1104 l 442 1104 q 474 1110 464 1104 q 483 1129 483 1117 q 472 1149 483 1143 q 439 1154 461 1154 l 356 1154 l 356 1211 q 461 1222 404 1222 q 557 1203 515 1222 q 599 1139 599 1185 q 572 1083 599 1103 q 506 1060 546 1063 l 506 1022 l 424 1022 l 424 1104 z "},"Ȳ":{"ha":926,"x_min":15,"x_max":913,"o":"m 15 0 m 388 0 l 388 392 l 15 953 l 196 953 l 465 531 l 472 531 l 740 953 l 913 953 l 542 392 l 542 0 l 388 0 m 251 1065 l 251 1172 l 675 1172 l 675 1065 l 251 1065 z "},"Ỹ":{"ha":926,"x_min":15,"x_max":913,"o":"m 15 0 m 388 0 l 388 392 l 15 953 l 196 953 l 465 531 l 472 531 l 740 953 l 913 953 l 542 392 l 542 0 l 388 0 m 235 1053 q 265 1163 235 1119 q 358 1206 296 1206 q 405 1200 383 1206 q 464 1182 426 1194 q 515 1165 494 1171 q 558 1160 536 1160 q 600 1206 594 1160 l 693 1206 q 662 1096 693 1139 q 568 1053 631 1053 q 523 1058 543 1053 q 464 1076 503 1064 q 410 1093 431 1088 q 368 1099 390 1099 q 326 1053 332 1099 l 235 1053 z "},"Z":{"ha":849,"x_min":29,"x_max":817,"o":"m 29 0 l 29 76 l 574 821 l 65 821 l 65 953 l 804 953 l 804 876 l 260 132 l 817 132 l 817 0 l 29 0 z "},"Ź":{"ha":849,"x_min":29,"x_max":817,"o":"m 29 0 m 29 0 l 29 76 l 574 821 l 65 821 l 65 953 l 804 953 l 804 876 l 260 132 l 817 132 l 817 0 l 29 0 m 365 1022 l 482 1206 l 631 1206 l 632 1201 l 482 1022 l 365 1022 z "},"Ž":{"ha":849,"x_min":29,"x_max":817,"o":"m 29 0 m 29 0 l 29 76 l 574 821 l 65 821 l 65 953 l 804 953 l 804 876 l 260 132 l 817 132 l 817 0 l 29 0 m 358 1018 l 211 1206 l 346 1206 l 425 1100 l 503 1206 l 638 1206 l 492 1018 l 358 1018 z "},"Ż":{"ha":849,"x_min":29,"x_max":817,"o":"m 29 0 m 29 0 l 29 76 l 574 821 l 65 821 l 65 953 l 804 953 l 804 876 l 260 132 l 817 132 l 817 0 l 29 0 m 354 1060 l 354 1206 l 496 1206 l 496 1060 l 354 1060 z "},"Ẓ":{"ha":849,"x_min":29,"x_max":817,"o":"m 29 0 m 29 0 l 29 76 l 574 821 l 65 821 l 65 953 l 804 953 l 804 876 l 260 132 l 817 132 l 817 0 l 29 0 m 354 -240 l 354 -94 l 496 -94 l 496 -240 l 354 -240 z "},"a":{"ha":772,"x_min":47,"x_max":761,"o":"m 283 -17 q 120 28 193 -17 q 47 189 47 72 q 169 383 47 329 q 519 438 292 438 l 519 510 q 488 601 519 569 q 372 632 457 632 q 256 603 290 632 q 222 532 222 574 l 222 514 l 83 514 q 82 544 82 522 q 163 694 82 640 q 378 747 243 747 q 591 689 519 747 q 663 524 663 631 l 663 150 q 676 113 663 125 q 711 101 690 101 l 761 101 l 761 6 q 663 -12 725 -12 q 578 15 613 -12 q 533 89 544 42 l 524 89 q 424 11 485 39 q 283 -17 364 -17 m 325 100 q 463 149 407 100 q 519 285 519 199 l 519 329 q 278 302 361 329 q 194 200 194 275 q 227 124 194 149 q 325 100 260 100 z "},"á":{"ha":772,"x_min":47,"x_max":761,"o":"m 47 0 m 283 -17 q 120 28 193 -17 q 47 189 47 72 q 169 383 47 329 q 519 438 292 438 l 519 510 q 488 601 519 569 q 372 632 457 632 q 256 603 290 632 q 222 532 222 574 l 222 514 l 83 514 q 82 544 82 522 q 163 694 82 640 q 378 747 243 747 q 591 689 519 747 q 663 524 663 631 l 663 150 q 676 113 663 125 q 711 101 690 101 l 761 101 l 761 6 q 663 -12 725 -12 q 578 15 613 -12 q 533 89 544 42 l 524 89 q 424 11 485 39 q 283 -17 364 -17 m 325 100 q 463 149 407 100 q 519 285 519 199 l 519 329 q 278 302 361 329 q 194 200 194 275 q 227 124 194 149 q 325 100 260 100 m 326 821 l 443 1004 l 592 1004 l 593 1000 l 443 821 l 326 821 z "},"ă":{"ha":772,"x_min":47,"x_max":761,"o":"m 47 0 m 283 -17 q 120 28 193 -17 q 47 189 47 72 q 169 383 47 329 q 519 438 292 438 l 519 510 q 488 601 519 569 q 372 632 457 632 q 256 603 290 632 q 222 532 222 574 l 222 514 l 83 514 q 82 544 82 522 q 163 694 82 640 q 378 747 243 747 q 591 689 519 747 q 663 524 663 631 l 663 150 q 676 113 663 125 q 711 101 690 101 l 761 101 l 761 6 q 663 -12 725 -12 q 578 15 613 -12 q 533 89 544 42 l 524 89 q 424 11 485 39 q 283 -17 364 -17 m 325 100 q 463 149 407 100 q 519 285 519 199 l 519 329 q 278 302 361 329 q 194 200 194 275 q 227 124 194 149 q 325 100 260 100 m 385 833 q 226 884 276 833 q 176 1004 176 935 l 274 1004 q 304 955 279 976 q 385 933 329 933 q 467 955 440 933 q 497 1004 493 976 l 594 1004 q 544 884 594 935 q 385 833 493 833 z "},"ắ":{"ha":772,"x_min":47,"x_max":761,"o":"m 47 0 m 283 -17 q 120 28 193 -17 q 47 189 47 72 q 169 383 47 329 q 519 438 292 438 l 519 510 q 488 601 519 569 q 372 632 457 632 q 256 603 290 632 q 222 532 222 574 l 222 514 l 83 514 q 82 544 82 522 q 163 694 82 640 q 378 747 243 747 q 591 689 519 747 q 663 524 663 631 l 663 150 q 676 113 663 125 q 711 101 690 101 l 761 101 l 761 6 q 663 -12 725 -12 q 578 15 613 -12 q 533 89 544 42 l 524 89 q 424 11 485 39 q 283 -17 364 -17 m 325 100 q 463 149 407 100 q 519 285 519 199 l 519 329 q 278 302 361 329 q 194 200 194 275 q 227 124 194 149 q 325 100 260 100 m 385 833 q 226 884 276 833 q 176 1004 176 935 l 274 1004 q 304 955 279 976 q 385 933 329 933 q 467 955 440 933 q 497 1004 493 976 l 594 1004 q 544 884 594 935 q 385 833 493 833 m 326 1004 l 443 1188 l 592 1188 l 593 1183 l 443 1004 l 326 1004 z "},"ặ":{"ha":772,"x_min":47,"x_max":761,"o":"m 47 0 m 283 -17 q 120 28 193 -17 q 47 189 47 72 q 169 383 47 329 q 519 438 292 438 l 519 510 q 488 601 519 569 q 372 632 457 632 q 256 603 290 632 q 222 532 222 574 l 222 514 l 83 514 q 82 544 82 522 q 163 694 82 640 q 378 747 243 747 q 591 689 519 747 q 663 524 663 631 l 663 150 q 676 113 663 125 q 711 101 690 101 l 761 101 l 761 6 q 663 -12 725 -12 q 578 15 613 -12 q 533 89 544 42 l 524 89 q 424 11 485 39 q 283 -17 364 -17 m 325 100 q 463 149 407 100 q 519 285 519 199 l 519 329 q 278 302 361 329 q 194 200 194 275 q 227 124 194 149 q 325 100 260 100 m 385 833 q 226 884 276 833 q 176 1004 176 935 l 274 1004 q 304 955 279 976 q 385 933 329 933 q 467 955 440 933 q 497 1004 493 976 l 594 1004 q 544 884 594 935 q 385 833 493 833 m 315 -240 l 315 -94 l 457 -94 l 457 -240 l 315 -240 z "},"ằ":{"ha":772,"x_min":47,"x_max":761,"o":"m 47 0 m 283 -17 q 120 28 193 -17 q 47 189 47 72 q 169 383 47 329 q 519 438 292 438 l 519 510 q 488 601 519 569 q 372 632 457 632 q 256 603 290 632 q 222 532 222 574 l 222 514 l 83 514 q 82 544 82 522 q 163 694 82 640 q 378 747 243 747 q 591 689 519 747 q 663 524 663 631 l 663 150 q 676 113 663 125 q 711 101 690 101 l 761 101 l 761 6 q 663 -12 725 -12 q 578 15 613 -12 q 533 89 544 42 l 524 89 q 424 11 485 39 q 283 -17 364 -17 m 325 100 q 463 149 407 100 q 519 285 519 199 l 519 329 q 278 302 361 329 q 194 200 194 275 q 227 124 194 149 q 325 100 260 100 m 385 833 q 226 884 276 833 q 176 1004 176 935 l 274 1004 q 304 955 279 976 q 385 933 329 933 q 467 955 440 933 q 497 1004 493 976 l 594 1004 q 544 884 594 935 q 385 833 493 833 m 329 1004 l 179 1183 l 181 1188 l 329 1188 l 446 1004 l 329 1004 z "},"ẳ":{"ha":772,"x_min":47,"x_max":761,"o":"m 47 0 m 283 -17 q 120 28 193 -17 q 47 189 47 72 q 169 383 47 329 q 519 438 292 438 l 519 510 q 488 601 519 569 q 372 632 457 632 q 256 603 290 632 q 222 532 222 574 l 222 514 l 83 514 q 82 544 82 522 q 163 694 82 640 q 378 747 243 747 q 591 689 519 747 q 663 524 663 631 l 663 150 q 676 113 663 125 q 711 101 690 101 l 761 101 l 761 6 q 663 -12 725 -12 q 578 15 613 -12 q 533 89 544 42 l 524 89 q 424 11 485 39 q 283 -17 364 -17 m 325 100 q 463 149 407 100 q 519 285 519 199 l 519 329 q 278 302 361 329 q 194 200 194 275 q 227 124 194 149 q 325 100 260 100 m 385 833 q 226 884 276 833 q 176 1004 176 935 l 274 1004 q 304 955 279 976 q 385 933 329 933 q 467 955 440 933 q 497 1004 493 976 l 594 1004 q 544 884 594 935 q 385 833 493 833 m 346 1086 l 364 1086 q 396 1092 386 1086 q 406 1111 406 1099 q 394 1131 406 1125 q 361 1136 383 1136 l 278 1136 l 278 1193 q 383 1204 326 1204 q 479 1185 438 1204 q 521 1121 521 1167 q 494 1065 521 1085 q 428 1042 468 1044 l 428 1004 l 346 1004 l 346 1086 z "},"ẵ":{"ha":772,"x_min":47,"x_max":761,"o":"m 47 0 m 283 -17 q 120 28 193 -17 q 47 189 47 72 q 169 383 47 329 q 519 438 292 438 l 519 510 q 488 601 519 569 q 372 632 457 632 q 256 603 290 632 q 222 532 222 574 l 222 514 l 83 514 q 82 544 82 522 q 163 694 82 640 q 378 747 243 747 q 591 689 519 747 q 663 524 663 631 l 663 150 q 676 113 663 125 q 711 101 690 101 l 761 101 l 761 6 q 663 -12 725 -12 q 578 15 613 -12 q 533 89 544 42 l 524 89 q 424 11 485 39 q 283 -17 364 -17 m 325 100 q 463 149 407 100 q 519 285 519 199 l 519 329 q 278 302 361 329 q 194 200 194 275 q 227 124 194 149 q 325 100 260 100 m 385 833 q 226 884 276 833 q 176 1004 176 935 l 274 1004 q 304 955 279 976 q 385 933 329 933 q 467 955 440 933 q 497 1004 493 976 l 594 1004 q 544 884 594 935 q 385 833 493 833 m 160 1074 q 190 1183 160 1140 q 283 1226 221 1226 q 330 1221 308 1226 q 389 1203 351 1215 q 440 1186 419 1192 q 483 1181 461 1181 q 525 1226 519 1181 l 618 1226 q 587 1117 618 1160 q 493 1074 556 1074 q 448 1079 468 1074 q 389 1097 428 1085 q 335 1114 356 1108 q 293 1119 315 1119 q 251 1074 257 1119 l 160 1074 z "},"ǎ":{"ha":772,"x_min":47,"x_max":761,"o":"m 47 0 m 283 -17 q 120 28 193 -17 q 47 189 47 72 q 169 383 47 329 q 519 438 292 438 l 519 510 q 488 601 519 569 q 372 632 457 632 q 256 603 290 632 q 222 532 222 574 l 222 514 l 83 514 q 82 544 82 522 q 163 694 82 640 q 378 747 243 747 q 591 689 519 747 q 663 524 663 631 l 663 150 q 676 113 663 125 q 711 101 690 101 l 761 101 l 761 6 q 663 -12 725 -12 q 578 15 613 -12 q 533 89 544 42 l 524 89 q 424 11 485 39 q 283 -17 364 -17 m 325 100 q 463 149 407 100 q 519 285 519 199 l 519 329 q 278 302 361 329 q 194 200 194 275 q 227 124 194 149 q 325 100 260 100 m 319 817 l 172 1004 l 307 1004 l 386 899 l 464 1004 l 599 1004 l 453 817 l 319 817 z "},"â":{"ha":772,"x_min":47,"x_max":761,"o":"m 47 0 m 283 -17 q 120 28 193 -17 q 47 189 47 72 q 169 383 47 329 q 519 438 292 438 l 519 510 q 488 601 519 569 q 372 632 457 632 q 256 603 290 632 q 222 532 222 574 l 222 514 l 83 514 q 82 544 82 522 q 163 694 82 640 q 378 747 243 747 q 591 689 519 747 q 663 524 663 631 l 663 150 q 676 113 663 125 q 711 101 690 101 l 761 101 l 761 6 q 663 -12 725 -12 q 578 15 613 -12 q 533 89 544 42 l 524 89 q 424 11 485 39 q 283 -17 364 -17 m 325 100 q 463 149 407 100 q 519 285 519 199 l 519 329 q 278 302 361 329 q 194 200 194 275 q 227 124 194 149 q 325 100 260 100 m 172 817 l 319 1004 l 453 1004 l 599 817 l 464 817 l 386 922 l 307 817 l 172 817 z "},"ấ":{"ha":772,"x_min":47,"x_max":783,"o":"m 47 0 m 283 -17 q 120 28 193 -17 q 47 189 47 72 q 169 383 47 329 q 519 438 292 438 l 519 510 q 488 601 519 569 q 372 632 457 632 q 256 603 290 632 q 222 532 222 574 l 222 514 l 83 514 q 82 544 82 522 q 163 694 82 640 q 378 747 243 747 q 591 689 519 747 q 663 524 663 631 l 663 150 q 676 113 663 125 q 711 101 690 101 l 761 101 l 761 6 q 663 -12 725 -12 q 578 15 613 -12 q 533 89 544 42 l 524 89 q 424 11 485 39 q 283 -17 364 -17 m 325 100 q 463 149 407 100 q 519 285 519 199 l 519 329 q 278 302 361 329 q 194 200 194 275 q 227 124 194 149 q 325 100 260 100 m 172 817 l 319 1004 l 453 1004 l 599 817 l 464 817 l 386 922 l 307 817 l 172 817 m 517 953 l 633 1136 l 782 1136 l 783 1132 l 633 953 l 517 953 z "},"ậ":{"ha":772,"x_min":47,"x_max":761,"o":"m 47 0 m 283 -17 q 120 28 193 -17 q 47 189 47 72 q 169 383 47 329 q 519 438 292 438 l 519 510 q 488 601 519 569 q 372 632 457 632 q 256 603 290 632 q 222 532 222 574 l 222 514 l 83 514 q 82 544 82 522 q 163 694 82 640 q 378 747 243 747 q 591 689 519 747 q 663 524 663 631 l 663 150 q 676 113 663 125 q 711 101 690 101 l 761 101 l 761 6 q 663 -12 725 -12 q 578 15 613 -12 q 533 89 544 42 l 524 89 q 424 11 485 39 q 283 -17 364 -17 m 325 100 q 463 149 407 100 q 519 285 519 199 l 519 329 q 278 302 361 329 q 194 200 194 275 q 227 124 194 149 q 325 100 260 100 m 172 817 l 319 1004 l 453 1004 l 599 817 l 464 817 l 386 922 l 307 817 l 172 817 m 315 -240 l 315 -94 l 457 -94 l 457 -240 l 315 -240 z "},"ầ":{"ha":772,"x_min":47,"x_max":761,"o":"m 47 0 m 283 -17 q 120 28 193 -17 q 47 189 47 72 q 169 383 47 329 q 519 438 292 438 l 519 510 q 488 601 519 569 q 372 632 457 632 q 256 603 290 632 q 222 532 222 574 l 222 514 l 83 514 q 82 544 82 522 q 163 694 82 640 q 378 747 243 747 q 591 689 519 747 q 663 524 663 631 l 663 150 q 676 113 663 125 q 711 101 690 101 l 761 101 l 761 6 q 663 -12 725 -12 q 578 15 613 -12 q 533 89 544 42 l 524 89 q 424 11 485 39 q 283 -17 364 -17 m 325 100 q 463 149 407 100 q 519 285 519 199 l 519 329 q 278 302 361 329 q 194 200 194 275 q 227 124 194 149 q 325 100 260 100 m 172 817 l 319 1004 l 453 1004 l 599 817 l 464 817 l 386 922 l 307 817 l 172 817 m 572 953 l 422 1132 l 424 1136 l 572 1136 l 689 953 l 572 953 z "},"ẩ":{"ha":772,"x_min":47,"x_max":761,"o":"m 47 0 m 283 -17 q 120 28 193 -17 q 47 189 47 72 q 169 383 47 329 q 519 438 292 438 l 519 510 q 488 601 519 569 q 372 632 457 632 q 256 603 290 632 q 222 532 222 574 l 222 514 l 83 514 q 82 544 82 522 q 163 694 82 640 q 378 747 243 747 q 591 689 519 747 q 663 524 663 631 l 663 150 q 676 113 663 125 q 711 101 690 101 l 761 101 l 761 6 q 663 -12 725 -12 q 578 15 613 -12 q 533 89 544 42 l 524 89 q 424 11 485 39 q 283 -17 364 -17 m 325 100 q 463 149 407 100 q 519 285 519 199 l 519 329 q 278 302 361 329 q 194 200 194 275 q 227 124 194 149 q 325 100 260 100 m 172 817 l 319 1004 l 453 1004 l 599 817 l 464 817 l 386 922 l 307 817 l 172 817 m 536 1035 l 554 1035 q 586 1041 576 1035 q 596 1060 596 1047 q 585 1079 596 1074 q 551 1085 574 1085 l 468 1085 l 468 1142 q 574 1153 517 1153 q 669 1134 628 1153 q 711 1069 711 1115 q 685 1013 711 1033 q 618 990 658 993 l 618 953 l 536 953 l 536 1035 z "},"ẫ":{"ha":772,"x_min":47,"x_max":761,"o":"m 47 0 m 283 -17 q 120 28 193 -17 q 47 189 47 72 q 169 383 47 329 q 519 438 292 438 l 519 510 q 488 601 519 569 q 372 632 457 632 q 256 603 290 632 q 222 532 222 574 l 222 514 l 83 514 q 82 544 82 522 q 163 694 82 640 q 378 747 243 747 q 591 689 519 747 q 663 524 663 631 l 663 150 q 676 113 663 125 q 711 101 690 101 l 761 101 l 761 6 q 663 -12 725 -12 q 578 15 613 -12 q 533 89 544 42 l 524 89 q 424 11 485 39 q 283 -17 364 -17 m 325 100 q 463 149 407 100 q 519 285 519 199 l 519 329 q 278 302 361 329 q 194 200 194 275 q 227 124 194 149 q 325 100 260 100 m 172 817 l 319 1004 l 453 1004 l 599 817 l 464 817 l 386 922 l 307 817 l 172 817 m 160 1074 q 190 1183 160 1140 q 283 1226 221 1226 q 330 1221 308 1226 q 389 1203 351 1215 q 440 1186 419 1192 q 483 1181 461 1181 q 525 1226 519 1181 l 618 1226 q 587 1117 618 1160 q 493 1074 556 1074 q 448 1079 468 1074 q 389 1097 428 1085 q 335 1114 356 1108 q 293 1119 315 1119 q 251 1074 257 1119 l 160 1074 z "},"ȁ":{"ha":772,"x_min":47,"x_max":761,"o":"m 47 0 m 283 -17 q 120 28 193 -17 q 47 189 47 72 q 169 383 47 329 q 519 438 292 438 l 519 510 q 488 601 519 569 q 372 632 457 632 q 256 603 290 632 q 222 532 222 574 l 222 514 l 83 514 q 82 544 82 522 q 163 694 82 640 q 378 747 243 747 q 591 689 519 747 q 663 524 663 631 l 663 150 q 676 113 663 125 q 711 101 690 101 l 761 101 l 761 6 q 663 -12 725 -12 q 578 15 613 -12 q 533 89 544 42 l 524 89 q 424 11 485 39 q 283 -17 364 -17 m 325 100 q 463 149 407 100 q 519 285 519 199 l 519 329 q 278 302 361 329 q 194 200 194 275 q 227 124 194 149 q 325 100 260 100 m 246 821 l 119 1000 l 121 1004 l 271 1004 l 364 821 l 246 821 m 454 821 l 328 1000 l 329 1004 l 479 1004 l 572 821 l 454 821 z "},"ä":{"ha":772,"x_min":47,"x_max":761,"o":"m 47 0 m 283 -17 q 120 28 193 -17 q 47 189 47 72 q 169 383 47 329 q 519 438 292 438 l 519 510 q 488 601 519 569 q 372 632 457 632 q 256 603 290 632 q 222 532 222 574 l 222 514 l 83 514 q 82 544 82 522 q 163 694 82 640 q 378 747 243 747 q 591 689 519 747 q 663 524 663 631 l 663 150 q 676 113 663 125 q 711 101 690 101 l 761 101 l 761 6 q 663 -12 725 -12 q 578 15 613 -12 q 533 89 544 42 l 524 89 q 424 11 485 39 q 283 -17 364 -17 m 325 100 q 463 149 407 100 q 519 285 519 199 l 519 329 q 278 302 361 329 q 194 200 194 275 q 227 124 194 149 q 325 100 260 100 m 183 863 l 183 1004 l 318 1004 l 318 863 l 183 863 m 453 863 l 453 1004 l 588 1004 l 588 863 l 453 863 z "},"ạ":{"ha":772,"x_min":47,"x_max":761,"o":"m 47 0 m 283 -17 q 120 28 193 -17 q 47 189 47 72 q 169 383 47 329 q 519 438 292 438 l 519 510 q 488 601 519 569 q 372 632 457 632 q 256 603 290 632 q 222 532 222 574 l 222 514 l 83 514 q 82 544 82 522 q 163 694 82 640 q 378 747 243 747 q 591 689 519 747 q 663 524 663 631 l 663 150 q 676 113 663 125 q 711 101 690 101 l 761 101 l 761 6 q 663 -12 725 -12 q 578 15 613 -12 q 533 89 544 42 l 524 89 q 424 11 485 39 q 283 -17 364 -17 m 325 100 q 463 149 407 100 q 519 285 519 199 l 519 329 q 278 302 361 329 q 194 200 194 275 q 227 124 194 149 q 325 100 260 100 m 315 -240 l 315 -94 l 457 -94 l 457 -240 l 315 -240 z "},"à":{"ha":772,"x_min":47,"x_max":761,"o":"m 47 0 m 283 -17 q 120 28 193 -17 q 47 189 47 72 q 169 383 47 329 q 519 438 292 438 l 519 510 q 488 601 519 569 q 372 632 457 632 q 256 603 290 632 q 222 532 222 574 l 222 514 l 83 514 q 82 544 82 522 q 163 694 82 640 q 378 747 243 747 q 591 689 519 747 q 663 524 663 631 l 663 150 q 676 113 663 125 q 711 101 690 101 l 761 101 l 761 6 q 663 -12 725 -12 q 578 15 613 -12 q 533 89 544 42 l 524 89 q 424 11 485 39 q 283 -17 364 -17 m 325 100 q 463 149 407 100 q 519 285 519 199 l 519 329 q 278 302 361 329 q 194 200 194 275 q 227 124 194 149 q 325 100 260 100 m 326 821 l 176 1000 l 178 1004 l 326 1004 l 443 821 l 326 821 z "},"ả":{"ha":772,"x_min":47,"x_max":761,"o":"m 47 0 m 283 -17 q 120 28 193 -17 q 47 189 47 72 q 169 383 47 329 q 519 438 292 438 l 519 510 q 488 601 519 569 q 372 632 457 632 q 256 603 290 632 q 222 532 222 574 l 222 514 l 83 514 q 82 544 82 522 q 163 694 82 640 q 378 747 243 747 q 591 689 519 747 q 663 524 663 631 l 663 150 q 676 113 663 125 q 711 101 690 101 l 761 101 l 761 6 q 663 -12 725 -12 q 578 15 613 -12 q 533 89 544 42 l 524 89 q 424 11 485 39 q 283 -17 364 -17 m 325 100 q 463 149 407 100 q 519 285 519 199 l 519 329 q 278 302 361 329 q 194 200 194 275 q 227 124 194 149 q 325 100 260 100 m 346 903 l 364 903 q 396 909 386 903 q 406 928 406 915 q 394 947 406 942 q 361 953 383 953 l 278 953 l 278 1010 q 383 1021 326 1021 q 479 1002 438 1021 q 521 938 521 983 q 494 881 521 901 q 428 858 468 861 l 428 821 l 346 821 l 346 903 z "},"ȃ":{"ha":772,"x_min":47,"x_max":761,"o":"m 47 0 m 283 -17 q 120 28 193 -17 q 47 189 47 72 q 169 383 47 329 q 519 438 292 438 l 519 510 q 488 601 519 569 q 372 632 457 632 q 256 603 290 632 q 222 532 222 574 l 222 514 l 83 514 q 82 544 82 522 q 163 694 82 640 q 378 747 243 747 q 591 689 519 747 q 663 524 663 631 l 663 150 q 676 113 663 125 q 711 101 690 101 l 761 101 l 761 6 q 663 -12 725 -12 q 578 15 613 -12 q 533 89 544 42 l 524 89 q 424 11 485 39 q 283 -17 364 -17 m 325 100 q 463 149 407 100 q 519 285 519 199 l 519 329 q 278 302 361 329 q 194 200 194 275 q 227 124 194 149 q 325 100 260 100 m 176 833 q 226 953 176 903 q 385 1004 276 1004 q 544 953 493 1004 q 594 833 594 903 l 497 833 q 467 883 493 861 q 385 904 440 904 q 304 883 329 904 q 274 833 279 861 l 176 833 z "},"ā":{"ha":772,"x_min":47,"x_max":761,"o":"m 47 0 m 283 -17 q 120 28 193 -17 q 47 189 47 72 q 169 383 47 329 q 519 438 292 438 l 519 510 q 488 601 519 569 q 372 632 457 632 q 256 603 290 632 q 222 532 222 574 l 222 514 l 83 514 q 82 544 82 522 q 163 694 82 640 q 378 747 243 747 q 591 689 519 747 q 663 524 663 631 l 663 150 q 676 113 663 125 q 711 101 690 101 l 761 101 l 761 6 q 663 -12 725 -12 q 578 15 613 -12 q 533 89 544 42 l 524 89 q 424 11 485 39 q 283 -17 364 -17 m 325 100 q 463 149 407 100 q 519 285 519 199 l 519 329 q 278 302 361 329 q 194 200 194 275 q 227 124 194 149 q 325 100 260 100 m 174 864 l 174 971 l 597 971 l 597 864 l 174 864 z "},"ą":{"ha":772,"x_min":47,"x_max":761,"o":"m 665 -253 q 569 -224 608 -253 q 529 -133 529 -196 q 549 -59 529 -90 q 603 0 568 -28 q 533 89 549 22 l 524 89 q 424 11 485 39 q 283 -17 364 -17 q 120 28 193 -17 q 47 189 47 72 q 169 383 47 329 q 519 438 292 438 l 519 510 q 488 601 519 569 q 372 632 457 632 q 256 603 290 632 q 222 532 222 574 l 222 514 l 83 514 q 82 544 82 522 q 163 694 82 640 q 378 747 243 747 q 591 689 519 747 q 663 524 663 631 l 663 150 q 676 113 663 125 q 711 101 690 101 l 761 101 l 761 6 q 681 -28 713 -8 q 649 -94 649 -49 q 666 -142 649 -122 q 721 -161 683 -161 l 761 -161 l 761 -233 q 665 -253 710 -253 m 325 100 q 463 149 407 100 q 519 285 519 199 l 519 329 q 278 302 361 329 q 194 200 194 275 q 227 124 194 149 q 325 100 260 100 z "},"å":{"ha":772,"x_min":47,"x_max":761,"o":"m 47 0 m 283 -17 q 120 28 193 -17 q 47 189 47 72 q 169 383 47 329 q 519 438 292 438 l 519 510 q 488 601 519 569 q 372 632 457 632 q 256 603 290 632 q 222 532 222 574 l 222 514 l 83 514 q 82 544 82 522 q 163 694 82 640 q 378 747 243 747 q 591 689 519 747 q 663 524 663 631 l 663 150 q 676 113 663 125 q 711 101 690 101 l 761 101 l 761 6 q 663 -12 725 -12 q 578 15 613 -12 q 533 89 544 42 l 524 89 q 424 11 485 39 q 283 -17 364 -17 m 325 100 q 463 149 407 100 q 519 285 519 199 l 519 329 q 278 302 361 329 q 194 200 194 275 q 227 124 194 149 q 325 100 260 100 m 386 782 q 288 821 325 782 q 250 917 250 860 q 287 1014 250 975 q 386 1053 324 1053 q 485 1014 449 1053 q 522 917 522 975 q 485 821 522 860 q 386 782 447 782 m 386 850 q 435 869 417 850 q 454 917 454 889 q 435 965 454 946 q 386 985 417 985 q 337 965 356 985 q 318 917 318 946 q 338 869 318 889 q 386 850 357 850 z "},"ǻ":{"ha":772,"x_min":47,"x_max":761,"o":"m 47 0 m 283 -17 q 120 28 193 -17 q 47 189 47 72 q 169 383 47 329 q 519 438 292 438 l 519 510 q 488 601 519 569 q 372 632 457 632 q 256 603 290 632 q 222 532 222 574 l 222 514 l 83 514 q 82 544 82 522 q 163 694 82 640 q 378 747 243 747 q 591 689 519 747 q 663 524 663 631 l 663 150 q 676 113 663 125 q 711 101 690 101 l 761 101 l 761 6 q 663 -12 725 -12 q 578 15 613 -12 q 533 89 544 42 l 524 89 q 424 11 485 39 q 283 -17 364 -17 m 325 100 q 463 149 407 100 q 519 285 519 199 l 519 329 q 278 302 361 329 q 194 200 194 275 q 227 124 194 149 q 325 100 260 100 m 386 782 q 288 821 325 782 q 250 917 250 860 q 287 1014 250 975 q 386 1053 324 1053 q 485 1014 449 1053 q 522 917 522 975 q 485 821 522 860 q 386 782 447 782 m 386 850 q 435 869 417 850 q 454 917 454 889 q 435 965 454 946 q 386 985 417 985 q 337 965 356 985 q 318 917 318 946 q 338 869 318 889 q 386 850 357 850 m 328 1083 l 444 1267 l 593 1267 l 594 1263 l 444 1083 l 328 1083 z "},"ã":{"ha":772,"x_min":47,"x_max":761,"o":"m 47 0 m 283 -17 q 120 28 193 -17 q 47 189 47 72 q 169 383 47 329 q 519 438 292 438 l 519 510 q 488 601 519 569 q 372 632 457 632 q 256 603 290 632 q 222 532 222 574 l 222 514 l 83 514 q 82 544 82 522 q 163 694 82 640 q 378 747 243 747 q 591 689 519 747 q 663 524 663 631 l 663 150 q 676 113 663 125 q 711 101 690 101 l 761 101 l 761 6 q 663 -12 725 -12 q 578 15 613 -12 q 533 89 544 42 l 524 89 q 424 11 485 39 q 283 -17 364 -17 m 325 100 q 463 149 407 100 q 519 285 519 199 l 519 329 q 278 302 361 329 q 194 200 194 275 q 227 124 194 149 q 325 100 260 100 m 157 851 q 188 961 157 918 q 281 1004 218 1004 q 327 999 306 1004 q 386 981 349 993 q 438 964 417 969 q 481 958 458 958 q 522 1004 517 958 l 615 1004 q 584 894 615 938 q 490 851 553 851 q 445 857 465 851 q 386 875 425 863 q 333 892 353 886 q 290 897 313 897 q 249 851 254 897 l 157 851 z "},"æ":{"ha":1235,"x_min":47,"x_max":1182,"o":"m 311 -17 q 128 28 210 -17 q 47 189 47 72 q 172 383 47 329 q 532 438 297 438 l 532 510 q 498 600 532 568 q 376 632 464 632 q 258 603 293 632 q 222 532 222 574 l 222 514 l 83 514 q 82 544 82 522 q 164 694 82 640 q 383 747 246 747 q 625 654 551 747 q 871 747 710 747 q 1104 660 1026 747 q 1182 385 1182 574 l 1182 329 l 675 329 q 727 155 681 211 q 871 99 774 99 q 994 136 947 99 q 1042 251 1042 174 l 1182 251 q 1095 52 1182 121 q 871 -17 1008 -17 q 599 99 681 -17 q 476 13 550 43 q 311 -17 403 -17 m 1033 438 q 871 632 1033 632 q 734 585 781 632 q 678 438 688 539 l 1033 438 m 329 100 q 475 147 418 100 q 532 285 532 193 l 532 329 q 281 302 368 329 q 194 200 194 275 q 228 124 194 149 q 329 100 263 100 z "},"ǽ":{"ha":1235,"x_min":47,"x_max":1182,"o":"m 47 0 m 311 -17 q 128 28 210 -17 q 47 189 47 72 q 172 383 47 329 q 532 438 297 438 l 532 510 q 498 600 532 568 q 376 632 464 632 q 258 603 293 632 q 222 532 222 574 l 222 514 l 83 514 q 82 544 82 522 q 164 694 82 640 q 383 747 246 747 q 625 654 551 747 q 871 747 710 747 q 1104 660 1026 747 q 1182 385 1182 574 l 1182 329 l 675 329 q 727 155 681 211 q 871 99 774 99 q 994 136 947 99 q 1042 251 1042 174 l 1182 251 q 1095 52 1182 121 q 871 -17 1008 -17 q 599 99 681 -17 q 476 13 550 43 q 311 -17 403 -17 m 1033 438 q 871 632 1033 632 q 734 585 781 632 q 678 438 688 539 l 1033 438 m 329 100 q 475 147 418 100 q 532 285 532 193 l 532 329 q 281 302 368 329 q 194 200 194 275 q 228 124 194 149 q 329 100 263 100 m 558 821 l 675 1004 l 824 1004 l 825 1000 l 675 821 l 558 821 z "},"b":{"ha":796,"x_min":94,"x_max":746,"o":"m 457 -17 q 326 13 385 -17 q 232 97 267 42 l 222 97 l 208 0 l 94 0 l 94 1004 l 238 1004 l 238 647 l 246 647 q 467 747 315 747 q 671 652 596 747 q 746 365 746 557 q 671 77 746 171 q 457 -17 596 -17 m 417 104 q 557 163 515 104 q 599 357 599 221 l 599 369 q 557 567 599 508 q 417 626 515 626 q 281 561 324 626 q 238 368 238 496 l 238 357 q 281 168 238 232 q 417 104 324 104 z "},"c":{"ha":718,"x_min":50,"x_max":678,"o":"m 381 -17 q 131 76 211 -17 q 50 365 50 169 q 131 654 50 561 q 381 747 213 747 q 603 674 529 747 q 678 458 678 601 l 533 458 q 498 589 533 547 q 379 631 463 631 q 241 568 285 631 q 197 368 197 506 l 197 358 q 241 161 197 222 q 382 100 285 100 q 502 144 464 100 q 540 272 540 188 l 678 272 q 603 63 678 142 q 381 -17 528 -17 z "},"ć":{"ha":718,"x_min":50,"x_max":678,"o":"m 50 0 m 381 -17 q 131 76 211 -17 q 50 365 50 169 q 131 654 50 561 q 381 747 213 747 q 603 674 529 747 q 678 458 678 601 l 533 458 q 498 589 533 547 q 379 631 463 631 q 241 568 285 631 q 197 368 197 506 l 197 358 q 241 161 197 222 q 382 100 285 100 q 502 144 464 100 q 540 272 540 188 l 678 272 q 603 63 678 142 q 381 -17 528 -17 m 300 821 l 417 1004 l 565 1004 l 567 1000 l 417 821 l 300 821 z "},"č":{"ha":718,"x_min":50,"x_max":678,"o":"m 50 0 m 381 -17 q 131 76 211 -17 q 50 365 50 169 q 131 654 50 561 q 381 747 213 747 q 603 674 529 747 q 678 458 678 601 l 533 458 q 498 589 533 547 q 379 631 463 631 q 241 568 285 631 q 197 368 197 506 l 197 358 q 241 161 197 222 q 382 100 285 100 q 502 144 464 100 q 540 272 540 188 l 678 272 q 603 63 678 142 q 381 -17 528 -17 m 293 817 l 146 1004 l 281 1004 l 360 899 l 438 1004 l 572 1004 l 426 817 l 293 817 z "},"ç":{"ha":718,"x_min":50,"x_max":678,"o":"m 382 100 q 502 144 464 100 q 540 272 540 188 l 678 272 q 608 68 678 146 q 403 -17 539 -10 l 397 -49 q 492 -74 456 -51 q 528 -140 528 -96 q 476 -228 528 -203 q 357 -253 424 -253 q 221 -242 283 -253 l 221 -174 l 354 -174 q 398 -167 383 -174 q 413 -140 413 -160 q 400 -115 413 -122 q 357 -107 388 -107 l 292 -107 l 308 -12 q 113 99 176 7 q 50 365 50 192 q 131 654 50 561 q 381 747 213 747 q 603 674 529 747 q 678 458 678 601 l 533 458 q 498 589 533 547 q 379 631 463 631 q 241 568 285 631 q 197 368 197 506 l 197 358 q 241 161 197 222 q 382 100 285 100 z "},"ĉ":{"ha":718,"x_min":50,"x_max":678,"o":"m 50 0 m 381 -17 q 131 76 211 -17 q 50 365 50 169 q 131 654 50 561 q 381 747 213 747 q 603 674 529 747 q 678 458 678 601 l 533 458 q 498 589 533 547 q 379 631 463 631 q 241 568 285 631 q 197 368 197 506 l 197 358 q 241 161 197 222 q 382 100 285 100 q 502 144 464 100 q 540 272 540 188 l 678 272 q 603 63 678 142 q 381 -17 528 -17 m 146 817 l 293 1004 l 426 1004 l 572 817 l 438 817 l 360 922 l 281 817 l 146 817 z "},"ċ":{"ha":718,"x_min":50,"x_max":678,"o":"m 50 0 m 381 -17 q 131 76 211 -17 q 50 365 50 169 q 131 654 50 561 q 381 747 213 747 q 603 674 529 747 q 678 458 678 601 l 533 458 q 498 589 533 547 q 379 631 463 631 q 241 568 285 631 q 197 368 197 506 l 197 358 q 241 161 197 222 q 382 100 285 100 q 502 144 464 100 q 540 272 540 188 l 678 272 q 603 63 678 142 q 381 -17 528 -17 m 289 858 l 289 1004 l 431 1004 l 431 858 l 289 858 z "},"d":{"ha":796,"x_min":50,"x_max":701,"o":"m 339 -17 q 125 77 200 -17 q 50 365 50 171 q 125 652 50 557 q 329 747 200 747 q 550 647 481 747 l 558 647 l 558 1004 l 701 1004 l 701 0 l 588 0 l 574 97 l 564 97 q 470 13 529 42 q 339 -17 411 -17 m 379 104 q 515 168 472 104 q 558 357 558 232 l 558 368 q 379 626 558 626 q 239 567 281 626 q 197 369 197 508 l 197 357 q 239 163 197 221 q 379 104 281 104 z "},"ð":{"ha":796,"x_min":50,"x_max":746,"o":"m 397 -17 q 137 76 224 -17 q 50 364 50 169 q 133 647 50 551 q 363 743 217 743 q 475 724 417 743 l 478 726 q 385 843 443 783 l 168 826 l 168 915 l 307 925 q 240 978 289 940 l 214 999 l 217 1004 l 381 1004 q 461 938 432 965 l 675 951 l 675 863 l 546 854 q 694 627 643 747 q 746 364 746 507 q 658 76 746 169 q 397 -17 571 -17 m 397 101 q 551 163 503 101 q 599 360 599 225 l 599 363 q 551 563 599 500 q 397 625 503 625 q 244 565 292 625 q 197 372 197 504 l 197 360 q 244 163 197 225 q 397 101 292 101 z "},"ď":{"ha":908,"x_min":50,"x_max":918,"o":"m 339 -17 q 125 77 200 -17 q 50 365 50 171 q 125 652 50 557 q 329 747 200 747 q 550 647 481 747 l 558 647 l 558 1004 l 701 1004 l 701 0 l 588 0 l 574 97 l 564 97 q 470 13 529 42 q 339 -17 411 -17 m 778 660 l 833 811 l 778 811 l 778 953 l 918 953 l 918 824 l 850 660 l 778 660 m 379 104 q 515 168 472 104 q 558 357 558 232 l 558 368 q 379 626 558 626 q 239 567 281 626 q 197 369 197 508 l 197 357 q 239 163 197 221 q 379 104 281 104 z "},"đ":{"ha":796,"x_min":50,"x_max":789,"o":"m 789 824 l 701 824 l 701 0 l 588 0 l 574 97 l 564 97 q 470 13 529 42 q 339 -17 411 -17 q 125 77 200 -17 q 50 365 50 171 q 125 652 50 557 q 329 747 200 747 q 550 647 481 747 l 558 647 l 558 824 l 357 824 l 357 914 l 558 914 l 558 1004 l 701 1004 l 701 914 l 789 914 l 789 824 m 558 368 q 379 626 558 626 q 239 567 281 626 q 197 369 197 508 l 197 357 q 239 163 197 221 q 379 104 281 104 q 515 168 472 104 q 558 357 558 232 l 558 368 z "},"ḍ":{"ha":796,"x_min":50,"x_max":701,"o":"m 50 0 m 339 -17 q 125 77 200 -17 q 50 365 50 171 q 125 652 50 557 q 329 747 200 747 q 550 647 481 747 l 558 647 l 558 1004 l 701 1004 l 701 0 l 588 0 l 574 97 l 564 97 q 470 13 529 42 q 339 -17 411 -17 m 379 104 q 515 168 472 104 q 558 357 558 232 l 558 368 q 379 626 558 626 q 239 567 281 626 q 197 369 197 508 l 197 357 q 239 163 197 221 q 379 104 281 104 m 328 -240 l 328 -94 l 469 -94 l 469 -240 l 328 -240 z "},"ǳ":{"ha":1490,"x_min":50,"x_max":1457,"o":"m 50 0 m 339 -17 q 125 77 200 -17 q 50 365 50 171 q 125 652 50 557 q 329 747 200 747 q 550 647 481 747 l 558 647 l 558 1004 l 701 1004 l 701 0 l 588 0 l 574 97 l 564 97 q 470 13 529 42 q 339 -17 411 -17 m 379 104 q 515 168 472 104 q 558 357 558 232 l 558 368 q 379 626 558 626 q 239 567 281 626 q 197 369 197 508 l 197 357 q 239 163 197 221 q 379 104 281 104 m 828 0 l 828 71 l 1228 613 l 854 613 l 854 731 l 1436 731 l 1436 661 l 1036 118 l 1457 118 l 1457 0 l 828 0 z "},"ǆ":{"ha":1490,"x_min":50,"x_max":1457,"o":"m 50 0 m 339 -17 q 125 77 200 -17 q 50 365 50 171 q 125 652 50 557 q 329 747 200 747 q 550 647 481 747 l 558 647 l 558 1004 l 701 1004 l 701 0 l 588 0 l 574 97 l 564 97 q 470 13 529 42 q 339 -17 411 -17 m 379 104 q 515 168 472 104 q 558 357 558 232 l 558 368 q 379 626 558 626 q 239 567 281 626 q 197 369 197 508 l 197 357 q 239 163 197 221 q 379 104 281 104 m 828 0 l 828 71 l 1228 613 l 854 613 l 854 731 l 1436 731 l 1436 661 l 1036 118 l 1457 118 l 1457 0 l 828 0 m 1076 817 l 929 1004 l 1064 1004 l 1143 899 l 1221 1004 l 1356 1004 l 1210 817 l 1076 817 z "},"e":{"ha":772,"x_min":53,"x_max":719,"o":"m 401 -17 q 139 76 225 -17 q 53 365 53 169 q 139 654 53 561 q 401 747 225 747 q 640 660 561 747 q 719 385 719 574 l 719 329 l 200 329 q 253 155 206 211 q 403 99 301 99 q 531 136 482 99 q 579 251 579 174 l 719 251 q 631 52 719 121 q 401 -17 543 -17 m 571 438 q 401 632 571 632 q 260 585 307 632 q 203 438 213 539 l 571 438 z "},"é":{"ha":772,"x_min":53,"x_max":719,"o":"m 53 0 m 401 -17 q 139 76 225 -17 q 53 365 53 169 q 139 654 53 561 q 401 747 225 747 q 640 660 561 747 q 719 385 719 574 l 719 329 l 200 329 q 253 155 206 211 q 403 99 301 99 q 531 136 482 99 q 579 251 579 174 l 719 251 q 631 52 719 121 q 401 -17 543 -17 m 571 438 q 401 632 571 632 q 260 585 307 632 q 203 438 213 539 l 571 438 m 326 821 l 443 1004 l 592 1004 l 593 1000 l 443 821 l 326 821 z "},"ĕ":{"ha":772,"x_min":53,"x_max":719,"o":"m 53 0 m 401 -17 q 139 76 225 -17 q 53 365 53 169 q 139 654 53 561 q 401 747 225 747 q 640 660 561 747 q 719 385 719 574 l 719 329 l 200 329 q 253 155 206 211 q 403 99 301 99 q 531 136 482 99 q 579 251 579 174 l 719 251 q 631 52 719 121 q 401 -17 543 -17 m 571 438 q 401 632 571 632 q 260 585 307 632 q 203 438 213 539 l 571 438 m 385 833 q 226 884 276 833 q 176 1004 176 935 l 274 1004 q 304 955 279 976 q 385 933 329 933 q 467 955 440 933 q 497 1004 493 976 l 594 1004 q 544 884 594 935 q 385 833 493 833 z "},"ě":{"ha":772,"x_min":53,"x_max":719,"o":"m 53 0 m 401 -17 q 139 76 225 -17 q 53 365 53 169 q 139 654 53 561 q 401 747 225 747 q 640 660 561 747 q 719 385 719 574 l 719 329 l 200 329 q 253 155 206 211 q 403 99 301 99 q 531 136 482 99 q 579 251 579 174 l 719 251 q 631 52 719 121 q 401 -17 543 -17 m 571 438 q 401 632 571 632 q 260 585 307 632 q 203 438 213 539 l 571 438 m 319 817 l 172 1004 l 307 1004 l 386 899 l 464 1004 l 599 1004 l 453 817 l 319 817 z "},"ê":{"ha":772,"x_min":53,"x_max":719,"o":"m 53 0 m 401 -17 q 139 76 225 -17 q 53 365 53 169 q 139 654 53 561 q 401 747 225 747 q 640 660 561 747 q 719 385 719 574 l 719 329 l 200 329 q 253 155 206 211 q 403 99 301 99 q 531 136 482 99 q 579 251 579 174 l 719 251 q 631 52 719 121 q 401 -17 543 -17 m 571 438 q 401 632 571 632 q 260 585 307 632 q 203 438 213 539 l 571 438 m 172 817 l 319 1004 l 453 1004 l 599 817 l 464 817 l 386 922 l 307 817 l 172 817 z "},"ế":{"ha":772,"x_min":53,"x_max":783,"o":"m 53 0 m 401 -17 q 139 76 225 -17 q 53 365 53 169 q 139 654 53 561 q 401 747 225 747 q 640 660 561 747 q 719 385 719 574 l 719 329 l 200 329 q 253 155 206 211 q 403 99 301 99 q 531 136 482 99 q 579 251 579 174 l 719 251 q 631 52 719 121 q 401 -17 543 -17 m 571 438 q 401 632 571 632 q 260 585 307 632 q 203 438 213 539 l 571 438 m 172 817 l 319 1004 l 453 1004 l 599 817 l 464 817 l 386 922 l 307 817 l 172 817 m 517 953 l 633 1136 l 782 1136 l 783 1132 l 633 953 l 517 953 z "},"ệ":{"ha":772,"x_min":53,"x_max":719,"o":"m 53 0 m 401 -17 q 139 76 225 -17 q 53 365 53 169 q 139 654 53 561 q 401 747 225 747 q 640 660 561 747 q 719 385 719 574 l 719 329 l 200 329 q 253 155 206 211 q 403 99 301 99 q 531 136 482 99 q 579 251 579 174 l 719 251 q 631 52 719 121 q 401 -17 543 -17 m 571 438 q 401 632 571 632 q 260 585 307 632 q 203 438 213 539 l 571 438 m 172 817 l 319 1004 l 453 1004 l 599 817 l 464 817 l 386 922 l 307 817 l 172 817 m 315 -240 l 315 -94 l 457 -94 l 457 -240 l 315 -240 z "},"ề":{"ha":772,"x_min":53,"x_max":719,"o":"m 53 0 m 401 -17 q 139 76 225 -17 q 53 365 53 169 q 139 654 53 561 q 401 747 225 747 q 640 660 561 747 q 719 385 719 574 l 719 329 l 200 329 q 253 155 206 211 q 403 99 301 99 q 531 136 482 99 q 579 251 579 174 l 719 251 q 631 52 719 121 q 401 -17 543 -17 m 571 438 q 401 632 571 632 q 260 585 307 632 q 203 438 213 539 l 571 438 m 172 817 l 319 1004 l 453 1004 l 599 817 l 464 817 l 386 922 l 307 817 l 172 817 m 572 953 l 422 1132 l 424 1136 l 572 1136 l 689 953 l 572 953 z "},"ể":{"ha":772,"x_min":53,"x_max":719,"o":"m 53 0 m 401 -17 q 139 76 225 -17 q 53 365 53 169 q 139 654 53 561 q 401 747 225 747 q 640 660 561 747 q 719 385 719 574 l 719 329 l 200 329 q 253 155 206 211 q 403 99 301 99 q 531 136 482 99 q 579 251 579 174 l 719 251 q 631 52 719 121 q 401 -17 543 -17 m 571 438 q 401 632 571 632 q 260 585 307 632 q 203 438 213 539 l 571 438 m 172 817 l 319 1004 l 453 1004 l 599 817 l 464 817 l 386 922 l 307 817 l 172 817 m 536 1035 l 554 1035 q 586 1041 576 1035 q 596 1060 596 1047 q 585 1079 596 1074 q 551 1085 574 1085 l 468 1085 l 468 1142 q 574 1153 517 1153 q 669 1134 628 1153 q 711 1069 711 1115 q 685 1013 711 1033 q 618 990 658 993 l 618 953 l 536 953 l 536 1035 z "},"ễ":{"ha":772,"x_min":53,"x_max":719,"o":"m 53 0 m 401 -17 q 139 76 225 -17 q 53 365 53 169 q 139 654 53 561 q 401 747 225 747 q 640 660 561 747 q 719 385 719 574 l 719 329 l 200 329 q 253 155 206 211 q 403 99 301 99 q 531 136 482 99 q 579 251 579 174 l 719 251 q 631 52 719 121 q 401 -17 543 -17 m 571 438 q 401 632 571 632 q 260 585 307 632 q 203 438 213 539 l 571 438 m 172 817 l 319 1004 l 453 1004 l 599 817 l 464 817 l 386 922 l 307 817 l 172 817 m 160 1074 q 190 1183 160 1140 q 283 1226 221 1226 q 330 1221 308 1226 q 389 1203 351 1215 q 440 1186 419 1192 q 483 1181 461 1181 q 525 1226 519 1181 l 618 1226 q 587 1117 618 1160 q 493 1074 556 1074 q 448 1079 468 1074 q 389 1097 428 1085 q 335 1114 356 1108 q 293 1119 315 1119 q 251 1074 257 1119 l 160 1074 z "},"ȅ":{"ha":772,"x_min":53,"x_max":719,"o":"m 53 0 m 401 -17 q 139 76 225 -17 q 53 365 53 169 q 139 654 53 561 q 401 747 225 747 q 640 660 561 747 q 719 385 719 574 l 719 329 l 200 329 q 253 155 206 211 q 403 99 301 99 q 531 136 482 99 q 579 251 579 174 l 719 251 q 631 52 719 121 q 401 -17 543 -17 m 571 438 q 401 632 571 632 q 260 585 307 632 q 203 438 213 539 l 571 438 m 246 821 l 119 1000 l 121 1004 l 271 1004 l 364 821 l 246 821 m 454 821 l 328 1000 l 329 1004 l 479 1004 l 572 821 l 454 821 z "},"ë":{"ha":772,"x_min":53,"x_max":719,"o":"m 53 0 m 401 -17 q 139 76 225 -17 q 53 365 53 169 q 139 654 53 561 q 401 747 225 747 q 640 660 561 747 q 719 385 719 574 l 719 329 l 200 329 q 253 155 206 211 q 403 99 301 99 q 531 136 482 99 q 579 251 579 174 l 719 251 q 631 52 719 121 q 401 -17 543 -17 m 571 438 q 401 632 571 632 q 260 585 307 632 q 203 438 213 539 l 571 438 m 183 863 l 183 1004 l 318 1004 l 318 863 l 183 863 m 453 863 l 453 1004 l 588 1004 l 588 863 l 453 863 z "},"ė":{"ha":772,"x_min":53,"x_max":719,"o":"m 53 0 m 401 -17 q 139 76 225 -17 q 53 365 53 169 q 139 654 53 561 q 401 747 225 747 q 640 660 561 747 q 719 385 719 574 l 719 329 l 200 329 q 253 155 206 211 q 403 99 301 99 q 531 136 482 99 q 579 251 579 174 l 719 251 q 631 52 719 121 q 401 -17 543 -17 m 571 438 q 401 632 571 632 q 260 585 307 632 q 203 438 213 539 l 571 438 m 315 858 l 315 1004 l 457 1004 l 457 858 l 315 858 z "},"ẹ":{"ha":772,"x_min":53,"x_max":719,"o":"m 53 0 m 401 -17 q 139 76 225 -17 q 53 365 53 169 q 139 654 53 561 q 401 747 225 747 q 640 660 561 747 q 719 385 719 574 l 719 329 l 200 329 q 253 155 206 211 q 403 99 301 99 q 531 136 482 99 q 579 251 579 174 l 719 251 q 631 52 719 121 q 401 -17 543 -17 m 571 438 q 401 632 571 632 q 260 585 307 632 q 203 438 213 539 l 571 438 m 315 -240 l 315 -94 l 457 -94 l 457 -240 l 315 -240 z "},"è":{"ha":772,"x_min":53,"x_max":719,"o":"m 53 0 m 401 -17 q 139 76 225 -17 q 53 365 53 169 q 139 654 53 561 q 401 747 225 747 q 640 660 561 747 q 719 385 719 574 l 719 329 l 200 329 q 253 155 206 211 q 403 99 301 99 q 531 136 482 99 q 579 251 579 174 l 719 251 q 631 52 719 121 q 401 -17 543 -17 m 571 438 q 401 632 571 632 q 260 585 307 632 q 203 438 213 539 l 571 438 m 326 821 l 176 1000 l 178 1004 l 326 1004 l 443 821 l 326 821 z "},"ẻ":{"ha":772,"x_min":53,"x_max":719,"o":"m 53 0 m 401 -17 q 139 76 225 -17 q 53 365 53 169 q 139 654 53 561 q 401 747 225 747 q 640 660 561 747 q 719 385 719 574 l 719 329 l 200 329 q 253 155 206 211 q 403 99 301 99 q 531 136 482 99 q 579 251 579 174 l 719 251 q 631 52 719 121 q 401 -17 543 -17 m 571 438 q 401 632 571 632 q 260 585 307 632 q 203 438 213 539 l 571 438 m 346 903 l 364 903 q 396 909 386 903 q 406 928 406 915 q 394 947 406 942 q 361 953 383 953 l 278 953 l 278 1010 q 383 1021 326 1021 q 479 1002 438 1021 q 521 938 521 983 q 494 881 521 901 q 428 858 468 861 l 428 821 l 346 821 l 346 903 z "},"ȇ":{"ha":772,"x_min":53,"x_max":719,"o":"m 53 0 m 401 -17 q 139 76 225 -17 q 53 365 53 169 q 139 654 53 561 q 401 747 225 747 q 640 660 561 747 q 719 385 719 574 l 719 329 l 200 329 q 253 155 206 211 q 403 99 301 99 q 531 136 482 99 q 579 251 579 174 l 719 251 q 631 52 719 121 q 401 -17 543 -17 m 571 438 q 401 632 571 632 q 260 585 307 632 q 203 438 213 539 l 571 438 m 176 833 q 226 953 176 903 q 385 1004 276 1004 q 544 953 493 1004 q 594 833 594 903 l 497 833 q 467 883 493 861 q 385 904 440 904 q 304 883 329 904 q 274 833 279 861 l 176 833 z "},"ē":{"ha":772,"x_min":53,"x_max":719,"o":"m 53 0 m 401 -17 q 139 76 225 -17 q 53 365 53 169 q 139 654 53 561 q 401 747 225 747 q 640 660 561 747 q 719 385 719 574 l 719 329 l 200 329 q 253 155 206 211 q 403 99 301 99 q 531 136 482 99 q 579 251 579 174 l 719 251 q 631 52 719 121 q 401 -17 543 -17 m 571 438 q 401 632 571 632 q 260 585 307 632 q 203 438 213 539 l 571 438 m 174 864 l 174 971 l 597 971 l 597 864 l 174 864 z "},"ę":{"ha":772,"x_min":53,"x_max":719,"o":"m 625 -253 q 524 -221 565 -253 q 483 -117 483 -189 q 515 1 483 -54 q 400 -17 463 -17 q 138 76 224 -17 q 53 365 53 169 q 139 654 53 561 q 401 747 225 747 q 640 660 561 747 q 719 385 719 574 l 719 329 l 200 329 q 253 155 206 211 q 403 99 301 99 q 531 136 482 99 q 579 251 579 174 l 719 251 q 660 79 719 146 q 621 14 638 53 q 604 -65 604 -25 q 624 -135 604 -108 q 682 -161 643 -161 l 719 -161 l 719 -233 q 625 -253 668 -253 m 571 438 q 401 632 571 632 q 260 585 307 632 q 203 438 213 539 l 571 438 z "},"ẽ":{"ha":772,"x_min":53,"x_max":719,"o":"m 53 0 m 401 -17 q 139 76 225 -17 q 53 365 53 169 q 139 654 53 561 q 401 747 225 747 q 640 660 561 747 q 719 385 719 574 l 719 329 l 200 329 q 253 155 206 211 q 403 99 301 99 q 531 136 482 99 q 579 251 579 174 l 719 251 q 631 52 719 121 q 401 -17 543 -17 m 571 438 q 401 632 571 632 q 260 585 307 632 q 203 438 213 539 l 571 438 m 157 851 q 188 961 157 918 q 281 1004 218 1004 q 327 999 306 1004 q 386 981 349 993 q 438 964 417 969 q 481 958 458 958 q 522 1004 517 958 l 615 1004 q 584 894 615 938 q 490 851 553 851 q 445 857 465 851 q 386 875 425 863 q 333 892 353 886 q 290 897 313 897 q 249 851 254 897 l 157 851 z "},"f":{"ha":410,"x_min":13,"x_max":399,"o":"m 118 613 l 13 613 l 13 731 l 118 731 l 118 838 q 158 965 118 914 q 289 1015 197 1015 q 347 1010 317 1015 q 399 997 378 1004 l 399 897 l 328 897 q 261 833 261 897 l 261 731 l 399 731 l 399 613 l 261 613 l 261 0 l 118 0 l 118 613 z "},"g":{"ha":796,"x_min":28,"x_max":775,"o":"m 221 -253 q 85 -210 143 -253 q 28 -79 28 -167 q 144 75 28 29 q 90 122 111 93 q 69 186 69 150 q 107 267 69 238 q 193 310 144 297 q 119 392 146 343 q 93 500 93 440 q 174 682 93 617 q 397 747 254 747 q 538 724 474 747 q 636 850 625 769 l 774 850 q 735 733 774 781 q 628 671 696 686 q 703 500 703 604 q 622 319 703 385 q 400 254 542 254 l 285 254 q 233 239 251 254 q 215 200 215 224 q 233 161 215 176 q 282 146 250 146 l 588 146 q 724 93 672 146 q 775 -37 775 40 q 747 -144 775 -94 q 664 -223 719 -193 q 531 -253 608 -253 l 221 -253 m 397 358 q 519 395 478 358 q 561 500 561 432 q 520 605 561 568 q 397 642 479 642 q 276 605 317 642 q 235 500 235 568 q 276 395 235 432 q 397 358 317 358 m 532 -144 q 603 -121 575 -144 q 632 -60 632 -97 q 608 0 632 -22 q 547 22 585 22 l 254 22 q 194 0 217 22 q 171 -60 171 -22 q 194 -122 171 -99 q 254 -144 217 -144 l 532 -144 z "},"ǵ":{"ha":796,"x_min":28,"x_max":775,"o":"m 28 0 m 221 -253 q 85 -210 143 -253 q 28 -79 28 -167 q 144 75 28 29 q 90 122 111 93 q 69 186 69 150 q 107 267 69 238 q 193 310 144 297 q 119 392 146 343 q 93 500 93 440 q 174 682 93 617 q 397 747 254 747 q 538 724 474 747 q 636 850 625 769 l 774 850 q 735 733 774 781 q 628 671 696 686 q 703 500 703 604 q 622 319 703 385 q 400 254 542 254 l 285 254 q 233 239 251 254 q 215 200 215 224 q 233 161 215 176 q 282 146 250 146 l 588 146 q 724 93 672 146 q 775 -37 775 40 q 747 -144 775 -94 q 664 -223 719 -193 q 531 -253 608 -253 l 221 -253 m 397 358 q 519 395 478 358 q 561 500 561 432 q 520 605 561 568 q 397 642 479 642 q 276 605 317 642 q 235 500 235 568 q 276 395 235 432 q 397 358 317 358 m 532 -144 q 603 -121 575 -144 q 632 -60 632 -97 q 608 0 632 -22 q 547 22 585 22 l 254 22 q 194 0 217 22 q 171 -60 171 -22 q 194 -122 171 -99 q 254 -144 217 -144 l 532 -144 m 339 821 l 456 1004 l 604 1004 l 606 1000 l 456 821 l 339 821 z "},"ğ":{"ha":796,"x_min":28,"x_max":775,"o":"m 28 0 m 221 -253 q 85 -210 143 -253 q 28 -79 28 -167 q 144 75 28 29 q 90 122 111 93 q 69 186 69 150 q 107 267 69 238 q 193 310 144 297 q 119 392 146 343 q 93 500 93 440 q 174 682 93 617 q 397 747 254 747 q 538 724 474 747 q 636 850 625 769 l 774 850 q 735 733 774 781 q 628 671 696 686 q 703 500 703 604 q 622 319 703 385 q 400 254 542 254 l 285 254 q 233 239 251 254 q 215 200 215 224 q 233 161 215 176 q 282 146 250 146 l 588 146 q 724 93 672 146 q 775 -37 775 40 q 747 -144 775 -94 q 664 -223 719 -193 q 531 -253 608 -253 l 221 -253 m 397 358 q 519 395 478 358 q 561 500 561 432 q 520 605 561 568 q 397 642 479 642 q 276 605 317 642 q 235 500 235 568 q 276 395 235 432 q 397 358 317 358 m 532 -144 q 603 -121 575 -144 q 632 -60 632 -97 q 608 0 632 -22 q 547 22 585 22 l 254 22 q 194 0 217 22 q 171 -60 171 -22 q 194 -122 171 -99 q 254 -144 217 -144 l 532 -144 m 397 833 q 239 884 289 833 q 189 1004 189 935 l 286 1004 q 317 955 292 976 q 397 933 342 933 q 479 955 453 933 q 510 1004 506 976 l 607 1004 q 556 884 607 935 q 397 833 506 833 z "},"ǧ":{"ha":796,"x_min":28,"x_max":775,"o":"m 28 0 m 221 -253 q 85 -210 143 -253 q 28 -79 28 -167 q 144 75 28 29 q 90 122 111 93 q 69 186 69 150 q 107 267 69 238 q 193 310 144 297 q 119 392 146 343 q 93 500 93 440 q 174 682 93 617 q 397 747 254 747 q 538 724 474 747 q 636 850 625 769 l 774 850 q 735 733 774 781 q 628 671 696 686 q 703 500 703 604 q 622 319 703 385 q 400 254 542 254 l 285 254 q 233 239 251 254 q 215 200 215 224 q 233 161 215 176 q 282 146 250 146 l 588 146 q 724 93 672 146 q 775 -37 775 40 q 747 -144 775 -94 q 664 -223 719 -193 q 531 -253 608 -253 l 221 -253 m 397 358 q 519 395 478 358 q 561 500 561 432 q 520 605 561 568 q 397 642 479 642 q 276 605 317 642 q 235 500 235 568 q 276 395 235 432 q 397 358 317 358 m 532 -144 q 603 -121 575 -144 q 632 -60 632 -97 q 608 0 632 -22 q 547 22 585 22 l 254 22 q 194 0 217 22 q 171 -60 171 -22 q 194 -122 171 -99 q 254 -144 217 -144 l 532 -144 m 332 817 l 185 1004 l 319 1004 l 399 899 l 476 1004 l 611 1004 l 465 817 l 332 817 z "},"ĝ":{"ha":796,"x_min":28,"x_max":775,"o":"m 188 817 l 332 1004 l 465 1004 l 610 817 l 475 817 l 399 922 l 321 817 l 188 817 m 221 -253 q 85 -210 143 -253 q 28 -79 28 -167 q 144 75 28 29 q 90 122 111 93 q 69 186 69 150 q 107 267 69 238 q 193 310 144 297 q 119 392 146 343 q 93 500 93 440 q 174 682 93 617 q 397 747 254 747 q 538 724 474 747 q 617 779 592 744 q 649 850 643 814 l 774 850 q 735 733 774 781 q 628 671 696 686 q 703 500 703 604 q 622 319 703 385 q 400 254 542 254 l 285 254 q 233 239 251 254 q 215 200 215 224 q 233 161 215 176 q 282 146 250 146 l 588 146 q 724 93 672 146 q 775 -37 775 40 q 747 -144 775 -94 q 664 -223 719 -193 q 531 -253 608 -253 l 221 -253 m 397 358 q 519 395 478 358 q 561 500 561 432 q 520 605 561 568 q 397 642 479 642 q 276 605 317 642 q 235 500 235 568 q 276 395 235 432 q 397 358 317 358 m 532 -144 q 603 -121 575 -144 q 632 -60 632 -97 q 608 0 632 -22 q 547 22 585 22 l 254 22 q 194 0 217 22 q 171 -60 171 -22 q 194 -122 171 -99 q 254 -144 217 -144 l 532 -144 z "},"ģ":{"ha":796,"x_min":28,"x_max":775,"o":"m 329 835 l 329 953 l 399 1083 l 472 1083 l 414 964 l 472 964 l 472 835 l 329 835 m 221 -253 q 85 -210 143 -253 q 28 -79 28 -167 q 144 75 28 29 q 90 122 111 93 q 69 186 69 150 q 107 267 69 238 q 193 310 144 297 q 119 392 146 343 q 93 500 93 440 q 174 682 93 617 q 397 747 254 747 q 538 724 474 747 q 636 850 625 769 l 774 850 q 735 733 774 781 q 628 671 696 686 q 703 500 703 604 q 622 319 703 385 q 400 254 542 254 l 285 254 q 233 239 251 254 q 215 200 215 224 q 233 161 215 176 q 282 146 250 146 l 588 146 q 724 93 672 146 q 775 -37 775 40 q 747 -144 775 -94 q 664 -223 719 -193 q 531 -253 608 -253 l 221 -253 m 397 358 q 519 395 478 358 q 561 500 561 432 q 520 605 561 568 q 397 642 479 642 q 276 605 317 642 q 235 500 235 568 q 276 395 235 432 q 397 358 317 358 m 532 -144 q 603 -121 575 -144 q 632 -60 632 -97 q 608 0 632 -22 q 547 22 585 22 l 254 22 q 194 0 217 22 q 171 -60 171 -22 q 194 -122 171 -99 q 254 -144 217 -144 l 532 -144 z "},"ġ":{"ha":796,"x_min":28,"x_max":775,"o":"m 28 0 m 221 -253 q 85 -210 143 -253 q 28 -79 28 -167 q 144 75 28 29 q 90 122 111 93 q 69 186 69 150 q 107 267 69 238 q 193 310 144 297 q 119 392 146 343 q 93 500 93 440 q 174 682 93 617 q 397 747 254 747 q 538 724 474 747 q 636 850 625 769 l 774 850 q 735 733 774 781 q 628 671 696 686 q 703 500 703 604 q 622 319 703 385 q 400 254 542 254 l 285 254 q 233 239 251 254 q 215 200 215 224 q 233 161 215 176 q 282 146 250 146 l 588 146 q 724 93 672 146 q 775 -37 775 40 q 747 -144 775 -94 q 664 -223 719 -193 q 531 -253 608 -253 l 221 -253 m 397 358 q 519 395 478 358 q 561 500 561 432 q 520 605 561 568 q 397 642 479 642 q 276 605 317 642 q 235 500 235 568 q 276 395 235 432 q 397 358 317 358 m 532 -144 q 603 -121 575 -144 q 632 -60 632 -97 q 608 0 632 -22 q 547 22 585 22 l 254 22 q 194 0 217 22 q 171 -60 171 -22 q 194 -122 171 -99 q 254 -144 217 -144 l 532 -144 m 328 858 l 328 1004 l 469 1004 l 469 858 l 328 858 z "},"h":{"ha":796,"x_min":94,"x_max":706,"o":"m 94 1004 l 238 1004 l 238 647 l 247 647 q 474 747 325 747 q 706 496 706 747 l 706 0 l 563 0 l 563 478 q 526 592 563 560 q 418 625 489 625 q 328 601 369 625 q 262 532 286 576 q 238 429 238 488 l 238 0 l 94 0 l 94 1004 z "},"ħ":{"ha":796,"x_min":7,"x_max":706,"o":"m 94 824 l 7 824 l 7 914 l 94 914 l 94 1004 l 238 1004 l 238 914 l 439 914 l 439 824 l 238 824 l 238 647 l 247 647 q 474 747 325 747 q 706 496 706 747 l 706 0 l 563 0 l 563 478 q 526 592 563 560 q 418 625 489 625 q 328 601 369 625 q 262 532 286 576 q 238 429 238 488 l 238 0 l 94 0 l 94 824 z "},"ĥ":{"ha":796,"x_min":-47,"x_max":706,"o":"m 0 0 m 94 1004 l 238 1004 l 238 647 l 247 647 q 474 747 325 747 q 706 496 706 747 l 706 0 l 563 0 l 563 478 q 526 592 563 560 q 418 625 489 625 q 328 601 369 625 q 262 532 286 576 q 238 429 238 488 l 238 0 l 94 0 l 94 1004 m -47 1039 l 100 1226 l 233 1226 l 379 1039 l 244 1039 l 167 1144 l 88 1039 l -47 1039 z "},"ḥ":{"ha":796,"x_min":94,"x_max":706,"o":"m 94 0 m 94 1004 l 238 1004 l 238 647 l 247 647 q 474 747 325 747 q 706 496 706 747 l 706 0 l 563 0 l 563 478 q 526 592 563 560 q 418 625 489 625 q 328 601 369 625 q 262 532 286 576 q 238 429 238 488 l 238 0 l 94 0 l 94 1004 m 328 -240 l 328 -94 l 469 -94 l 469 -240 l 328 -240 z "},"i":{"ha":332,"x_min":94,"x_max":238,"o":"m 94 857 l 94 1004 l 238 1004 l 238 857 l 94 857 m 94 0 l 94 731 l 238 731 l 238 0 l 94 0 z "},"ı":{"ha":386,"x_min":122,"x_max":265,"o":"m 122 0 l 122 731 l 265 731 l 265 0 l 122 0 z "},"í":{"ha":386,"x_min":113,"x_max":379,"o":"m 113 821 l 229 1004 l 378 1004 l 379 1000 l 229 821 l 113 821 m 122 0 l 122 731 l 265 731 l 265 0 l 122 0 z "},"ĭ":{"ha":386,"x_min":-14,"x_max":404,"o":"m 194 833 q 36 883 86 833 q -14 1004 -14 933 l 83 1004 q 114 955 89 976 q 194 933 139 933 q 276 955 249 933 q 307 1004 303 976 l 404 1004 q 353 884 404 935 q 194 833 303 833 m 122 0 l 122 731 l 265 731 l 265 0 l 122 0 z "},"ǐ":{"ha":386,"x_min":-21,"x_max":406,"o":"m 0 0 m 122 0 l 122 731 l 265 731 l 265 0 l 122 0 m 126 817 l -21 1004 l 114 1004 l 193 899 l 271 1004 l 406 1004 l 260 817 l 126 817 z "},"î":{"ha":386,"x_min":-19,"x_max":407,"o":"m -19 817 l 128 1004 l 261 1004 l 407 817 l 272 817 l 194 922 l 115 817 l -19 817 m 122 0 l 122 731 l 265 731 l 265 0 l 122 0 z "},"ȉ":{"ha":386,"x_min":-74,"x_max":379,"o":"m 0 0 m 122 0 l 122 731 l 265 731 l 265 0 l 122 0 m 53 821 l -74 1000 l -72 1004 l 78 1004 l 171 821 l 53 821 m 261 821 l 135 1000 l 136 1004 l 286 1004 l 379 821 l 261 821 z "},"ï":{"ha":386,"x_min":-8,"x_max":396,"o":"m -8 863 l -8 1004 l 125 1004 l 125 863 l -8 863 m 261 863 l 261 1004 l 396 1004 l 396 863 l 261 863 m 122 0 l 122 731 l 265 731 l 265 0 l 122 0 z "},"ị":{"ha":332,"x_min":94,"x_max":238,"o":"m 94 0 m 94 857 l 94 1004 l 238 1004 l 238 857 l 94 857 m 94 0 l 94 731 l 238 731 l 238 0 l 94 0 m 96 -240 l 96 -94 l 238 -94 l 238 -240 l 96 -240 z "},"ì":{"ha":386,"x_min":8,"x_max":275,"o":"m 158 821 l 8 1000 l 10 1004 l 158 1004 l 275 821 l 158 821 m 122 0 l 122 731 l 265 731 l 265 0 l 122 0 z "},"ỉ":{"ha":386,"x_min":85,"x_max":328,"o":"m 85 0 m 122 0 l 122 731 l 265 731 l 265 0 l 122 0 m 153 903 l 171 903 q 203 909 193 903 q 213 928 213 915 q 201 947 213 942 q 168 953 190 953 l 85 953 l 85 1010 q 190 1021 133 1021 q 286 1002 244 1021 q 328 938 328 983 q 301 881 328 901 q 235 858 275 861 l 235 821 l 153 821 l 153 903 z "},"ȋ":{"ha":386,"x_min":-17,"x_max":401,"o":"m 0 0 m 122 0 l 122 731 l 265 731 l 265 0 l 122 0 m -17 833 q 33 953 -17 903 q 192 1004 83 1004 q 351 953 300 1004 q 401 833 401 903 l 304 833 q 274 883 300 861 q 192 904 247 904 q 111 883 136 904 q 81 833 86 861 l -17 833 z "},"ĳ":{"ha":664,"x_min":94,"x_max":569,"o":"m 94 0 m 94 857 l 94 1004 l 238 1004 l 238 857 l 94 857 m 94 0 l 94 731 l 238 731 l 238 0 l 94 0 m 426 857 l 426 1004 l 569 1004 l 569 857 l 426 857 m 406 -253 q 299 -235 356 -253 l 299 -139 l 363 -139 q 426 -74 426 -139 l 426 731 l 569 731 l 569 -76 q 531 -202 569 -151 q 406 -253 493 -253 z "},"ī":{"ha":386,"x_min":6,"x_max":381,"o":"m 6 888 l 6 994 l 381 994 l 381 888 l 6 888 m 122 0 l 122 731 l 265 731 l 265 0 l 122 0 z "},"į":{"ha":386,"x_min":46,"x_max":278,"o":"m 264 1004 l 264 858 l 122 858 l 122 1004 l 264 1004 m 278 -172 l 278 -244 q 189 -264 231 -264 q 88 -235 131 -264 q 46 -140 46 -206 q 65 -60 46 -93 q 121 6 85 -28 l 122 6 l 122 731 l 265 731 l 265 0 l 215 0 q 181 -45 196 -19 q 165 -97 165 -71 q 183 -151 165 -129 q 236 -172 200 -172 l 278 -172 z "},"ĩ":{"ha":386,"x_min":-36,"x_max":422,"o":"m -36 851 q -6 961 -36 918 q 88 1004 25 1004 q 134 999 113 1004 q 193 981 156 993 q 247 964 226 969 q 289 958 267 958 q 331 1004 325 958 l 422 1004 q 392 894 422 938 q 299 851 361 851 q 252 857 274 851 q 193 875 231 863 q 142 892 163 886 q 99 897 121 897 q 57 851 63 897 l -36 851 m 122 0 l 122 731 l 265 731 l 265 0 l 122 0 z "},"j":{"ha":332,"x_min":-33,"x_max":238,"o":"m 94 857 l 94 1004 l 238 1004 l 238 857 l 94 857 m 74 -253 q -33 -235 24 -253 l -33 -139 l 31 -139 q 94 -74 94 -139 l 94 731 l 238 731 l 238 -76 q 199 -202 238 -151 q 74 -253 161 -253 z "},"ȷ":{"ha":332,"x_min":-33,"x_max":238,"o":"m 74 -253 q -33 -235 24 -253 l -33 -139 l 31 -139 q 94 -74 94 -139 l 94 731 l 238 731 l 238 -76 q 199 -202 238 -151 q 74 -253 161 -253 z "},"ĵ":{"ha":332,"x_min":-46,"x_max":379,"o":"m -46 817 l 101 1004 l 233 1004 l 379 817 l 246 817 l 168 922 l 88 817 l -46 817 m 74 -253 q -33 -235 24 -253 l -33 -139 l 31 -139 q 94 -74 94 -139 l 94 731 l 238 731 l 238 -76 q 199 -202 238 -151 q 74 -253 161 -253 z "},"k":{"ha":718,"x_min":94,"x_max":713,"o":"m 94 0 l 94 1004 l 238 1004 l 238 393 l 526 731 l 699 731 l 450 446 l 713 0 l 547 0 l 360 342 l 238 225 l 238 0 l 94 0 z "},"ķ":{"ha":718,"x_min":94,"x_max":713,"o":"m 94 0 m 94 0 l 94 1004 l 238 1004 l 238 393 l 526 731 l 699 731 l 450 446 l 713 0 l 547 0 l 360 342 l 238 225 l 238 0 l 94 0 m 322 -319 l 381 -203 l 321 -203 l 321 -72 l 464 -72 l 464 -190 l 396 -319 l 322 -319 z "},"ĸ":{"ha":718,"x_min":94,"x_max":713,"o":"m 94 0 l 94 731 l 238 731 l 238 393 l 526 731 l 699 731 l 450 446 l 713 0 l 547 0 l 360 342 l 238 225 l 238 0 l 94 0 z "},"l":{"ha":332,"x_min":94,"x_max":238,"o":"m 94 0 l 94 1004 l 238 1004 l 238 0 l 94 0 z "},"ĺ":{"ha":332,"x_min":94,"x_max":374,"o":"m 94 0 m 94 0 l 94 1004 l 238 1004 l 238 0 l 94 0 m 107 1043 l 224 1226 l 372 1226 l 374 1222 l 224 1043 l 107 1043 z "},"ľ":{"ha":444,"x_min":94,"x_max":451,"o":"m 94 0 l 94 1004 l 238 1004 l 238 0 l 94 0 m 311 660 l 367 811 l 311 811 l 311 953 l 451 953 l 451 824 l 383 660 l 311 660 z "},"ļ":{"ha":332,"x_min":94,"x_max":238,"o":"m 94 0 m 94 0 l 94 1004 l 238 1004 l 238 0 l 94 0 m 96 -319 l 154 -203 l 94 -203 l 94 -72 l 238 -72 l 238 -190 l 169 -319 l 96 -319 z "},"ŀ":{"ha":429,"x_min":94,"x_max":464,"o":"m 94 0 m 94 0 l 94 1004 l 238 1004 l 238 0 l 94 0 m 308 415 l 308 578 l 464 578 l 464 415 l 308 415 z "},"ǉ":{"ha":664,"x_min":94,"x_max":569,"o":"m 94 0 m 94 0 l 94 1004 l 238 1004 l 238 0 l 94 0 m 426 857 l 426 1004 l 569 1004 l 569 857 l 426 857 m 406 -253 q 299 -235 356 -253 l 299 -139 l 363 -139 q 426 -74 426 -139 l 426 731 l 569 731 l 569 -76 q 531 -202 569 -151 q 406 -253 493 -253 z "},"ł":{"ha":332,"x_min":0,"x_max":331,"o":"m 94 0 l 94 379 l 0 304 l 0 422 l 94 497 l 94 1004 l 238 1004 l 238 607 l 331 681 l 331 563 l 238 489 l 238 0 l 94 0 z "},"m":{"ha":1181,"x_min":94,"x_max":1090,"o":"m 94 731 l 210 731 l 224 633 l 233 633 q 325 718 271 689 q 449 747 379 747 q 639 633 590 747 l 647 633 q 743 717 685 688 q 871 747 801 747 q 1032 692 974 747 q 1090 515 1090 638 l 1090 0 l 947 0 l 947 488 q 915 594 947 563 q 824 625 882 625 q 710 571 756 625 q 664 429 664 517 l 664 0 l 521 0 l 521 488 q 490 594 521 563 q 400 625 458 625 q 285 571 332 625 q 238 429 238 517 l 238 0 l 94 0 l 94 731 z "},"n":{"ha":796,"x_min":94,"x_max":706,"o":"m 94 731 l 210 731 l 224 633 l 233 633 q 334 718 272 689 q 474 747 396 747 q 706 496 706 747 l 706 0 l 563 0 l 563 478 q 526 592 563 560 q 418 625 489 625 q 328 601 369 625 q 262 532 286 576 q 238 429 238 488 l 238 0 l 94 0 l 94 731 z "},"ń":{"ha":796,"x_min":94,"x_max":706,"o":"m 94 0 m 94 731 l 210 731 l 224 633 l 233 633 q 334 718 272 689 q 474 747 396 747 q 706 496 706 747 l 706 0 l 563 0 l 563 478 q 526 592 563 560 q 418 625 489 625 q 328 601 369 625 q 262 532 286 576 q 238 429 238 488 l 238 0 l 94 0 l 94 731 m 339 821 l 456 1004 l 604 1004 l 606 1000 l 456 821 l 339 821 z "},"ŉ":{"ha":883,"x_min":-1,"x_max":793,"o":"m -1 660 l 56 811 l -1 811 l -1 953 l 139 953 l 139 824 l 72 660 l -1 660 m 182 731 l 297 731 l 311 633 l 321 633 q 422 718 360 689 q 561 747 483 747 q 793 496 793 747 l 793 0 l 650 0 l 650 478 q 613 592 650 560 q 506 625 576 625 q 415 601 457 625 q 349 532 374 576 q 325 429 325 488 l 325 0 l 182 0 l 182 731 z "},"ň":{"ha":796,"x_min":94,"x_max":706,"o":"m 94 0 m 94 731 l 210 731 l 224 633 l 233 633 q 334 718 272 689 q 474 747 396 747 q 706 496 706 747 l 706 0 l 563 0 l 563 478 q 526 592 563 560 q 418 625 489 625 q 328 601 369 625 q 262 532 286 576 q 238 429 238 488 l 238 0 l 94 0 l 94 731 m 332 817 l 185 1004 l 319 1004 l 399 899 l 476 1004 l 611 1004 l 465 817 l 332 817 z "},"ņ":{"ha":796,"x_min":94,"x_max":706,"o":"m 94 0 m 94 731 l 210 731 l 224 633 l 233 633 q 334 718 272 689 q 474 747 396 747 q 706 496 706 747 l 706 0 l 563 0 l 563 478 q 526 592 563 560 q 418 625 489 625 q 328 601 369 625 q 262 532 286 576 q 238 429 238 488 l 238 0 l 94 0 l 94 731 m 328 -319 l 386 -203 l 326 -203 l 326 -72 l 469 -72 l 469 -190 l 401 -319 l 328 -319 z "},"ṅ":{"ha":796,"x_min":94,"x_max":706,"o":"m 94 0 m 94 731 l 210 731 l 224 633 l 233 633 q 334 718 272 689 q 474 747 396 747 q 706 496 706 747 l 706 0 l 563 0 l 563 478 q 526 592 563 560 q 418 625 489 625 q 328 601 369 625 q 262 532 286 576 q 238 429 238 488 l 238 0 l 94 0 l 94 731 m 328 858 l 328 1004 l 469 1004 l 469 858 l 328 858 z "},"ŋ":{"ha":796,"x_min":94,"x_max":706,"o":"m 540 -253 q 433 -235 490 -253 l 433 -139 l 499 -139 q 546 -122 529 -139 q 563 -74 563 -106 l 563 478 q 526 592 563 560 q 418 625 489 625 q 328 601 369 625 q 262 532 286 576 q 238 429 238 488 l 238 0 l 94 0 l 94 731 l 210 731 l 224 633 l 233 633 q 334 718 272 689 q 474 747 396 747 q 706 496 706 747 l 706 -76 q 667 -202 706 -151 q 540 -253 629 -253 z "},"ɲ":{"ha":796,"x_min":-33,"x_max":706,"o":"m 74 -253 q -33 -235 24 -253 l -33 -139 l 31 -139 q 94 -74 94 -139 l 94 731 l 210 731 l 224 633 l 233 633 q 334 718 272 689 q 474 747 396 747 q 706 496 706 747 l 706 0 l 563 0 l 563 478 q 526 592 563 560 q 418 625 489 625 q 328 601 369 625 q 262 532 286 576 q 238 429 238 488 l 238 -76 q 199 -202 238 -151 q 74 -253 161 -253 z "},"ǌ":{"ha":1128,"x_min":94,"x_max":1033,"o":"m 94 0 m 94 731 l 210 731 l 224 633 l 233 633 q 334 718 272 689 q 474 747 396 747 q 706 496 706 747 l 706 0 l 563 0 l 563 478 q 526 592 563 560 q 418 625 489 625 q 328 601 369 625 q 262 532 286 576 q 238 429 238 488 l 238 0 l 94 0 l 94 731 m 890 857 l 890 1004 l 1033 1004 l 1033 857 l 890 857 m 869 -253 q 763 -235 819 -253 l 763 -139 l 826 -139 q 890 -74 890 -139 l 890 731 l 1033 731 l 1033 -76 q 995 -202 1033 -151 q 869 -253 957 -253 z "},"ñ":{"ha":796,"x_min":94,"x_max":706,"o":"m 94 0 m 94 731 l 210 731 l 224 633 l 233 633 q 334 718 272 689 q 474 747 396 747 q 706 496 706 747 l 706 0 l 563 0 l 563 478 q 526 592 563 560 q 418 625 489 625 q 328 601 369 625 q 262 532 286 576 q 238 429 238 488 l 238 0 l 94 0 l 94 731 m 169 851 q 200 961 169 918 q 293 1004 231 1004 q 340 999 318 1004 q 399 981 361 993 q 450 964 429 969 q 493 958 471 958 q 535 1004 529 958 l 628 1004 q 597 894 628 938 q 503 851 565 851 q 458 857 478 851 q 399 875 438 863 q 345 892 365 886 q 303 897 325 897 q 261 851 267 897 l 169 851 z "},"o":{"ha":796,"x_min":50,"x_max":746,"o":"m 397 -17 q 137 77 224 -17 q 50 365 50 171 q 137 653 50 560 q 397 747 224 747 q 658 653 571 747 q 746 365 746 560 q 658 77 746 171 q 397 -17 571 -17 m 397 101 q 551 163 503 101 q 599 358 599 225 l 599 372 q 551 567 599 506 q 397 629 503 629 q 245 567 293 629 q 197 372 197 506 l 197 358 q 245 163 197 225 q 397 101 293 101 z "},"ó":{"ha":796,"x_min":50,"x_max":746,"o":"m 50 0 m 397 -17 q 137 77 224 -17 q 50 365 50 171 q 137 653 50 560 q 397 747 224 747 q 658 653 571 747 q 746 365 746 560 q 658 77 746 171 q 397 -17 571 -17 m 397 101 q 551 163 503 101 q 599 358 599 225 l 599 372 q 551 567 599 506 q 397 629 503 629 q 245 567 293 629 q 197 372 197 506 l 197 358 q 245 163 197 225 q 397 101 293 101 m 339 821 l 456 1004 l 604 1004 l 606 1000 l 456 821 l 339 821 z "},"ŏ":{"ha":796,"x_min":50,"x_max":746,"o":"m 50 0 m 397 -17 q 137 77 224 -17 q 50 365 50 171 q 137 653 50 560 q 397 747 224 747 q 658 653 571 747 q 746 365 746 560 q 658 77 746 171 q 397 -17 571 -17 m 397 101 q 551 163 503 101 q 599 358 599 225 l 599 372 q 551 567 599 506 q 397 629 503 629 q 245 567 293 629 q 197 372 197 506 l 197 358 q 245 163 197 225 q 397 101 293 101 m 397 833 q 239 884 289 833 q 189 1004 189 935 l 286 1004 q 317 955 292 976 q 397 933 342 933 q 479 955 453 933 q 510 1004 506 976 l 607 1004 q 556 884 607 935 q 397 833 506 833 z "},"ǒ":{"ha":796,"x_min":50,"x_max":746,"o":"m 50 0 m 397 -17 q 137 77 224 -17 q 50 365 50 171 q 137 653 50 560 q 397 747 224 747 q 658 653 571 747 q 746 365 746 560 q 658 77 746 171 q 397 -17 571 -17 m 397 101 q 551 163 503 101 q 599 358 599 225 l 599 372 q 551 567 599 506 q 397 629 503 629 q 245 567 293 629 q 197 372 197 506 l 197 358 q 245 163 197 225 q 397 101 293 101 m 332 817 l 185 1004 l 319 1004 l 399 899 l 476 1004 l 611 1004 l 465 817 l 332 817 z "},"ô":{"ha":796,"x_min":50,"x_max":746,"o":"m 50 0 m 397 -17 q 137 77 224 -17 q 50 365 50 171 q 137 653 50 560 q 397 747 224 747 q 658 653 571 747 q 746 365 746 560 q 658 77 746 171 q 397 -17 571 -17 m 397 101 q 551 163 503 101 q 599 358 599 225 l 599 372 q 551 567 599 506 q 397 629 503 629 q 245 567 293 629 q 197 372 197 506 l 197 358 q 245 163 197 225 q 397 101 293 101 m 185 817 l 332 1004 l 465 1004 l 611 817 l 476 817 l 399 922 l 319 817 l 185 817 z "},"ố":{"ha":796,"x_min":50,"x_max":796,"o":"m 50 0 m 397 -17 q 137 77 224 -17 q 50 365 50 171 q 137 653 50 560 q 397 747 224 747 q 658 653 571 747 q 746 365 746 560 q 658 77 746 171 q 397 -17 571 -17 m 397 101 q 551 163 503 101 q 599 358 599 225 l 599 372 q 551 567 599 506 q 397 629 503 629 q 245 567 293 629 q 197 372 197 506 l 197 358 q 245 163 197 225 q 397 101 293 101 m 185 817 l 332 1004 l 465 1004 l 611 817 l 476 817 l 399 922 l 319 817 l 185 817 m 529 953 l 646 1136 l 794 1136 l 796 1132 l 646 953 l 529 953 z "},"ộ":{"ha":796,"x_min":50,"x_max":746,"o":"m 50 0 m 397 -17 q 137 77 224 -17 q 50 365 50 171 q 137 653 50 560 q 397 747 224 747 q 658 653 571 747 q 746 365 746 560 q 658 77 746 171 q 397 -17 571 -17 m 397 101 q 551 163 503 101 q 599 358 599 225 l 599 372 q 551 567 599 506 q 397 629 503 629 q 245 567 293 629 q 197 372 197 506 l 197 358 q 245 163 197 225 q 397 101 293 101 m 185 817 l 332 1004 l 465 1004 l 611 817 l 476 817 l 399 922 l 319 817 l 185 817 m 328 -240 l 328 -94 l 469 -94 l 469 -240 l 328 -240 z "},"ồ":{"ha":796,"x_min":50,"x_max":746,"o":"m 50 0 m 397 -17 q 137 77 224 -17 q 50 365 50 171 q 137 653 50 560 q 397 747 224 747 q 658 653 571 747 q 746 365 746 560 q 658 77 746 171 q 397 -17 571 -17 m 397 101 q 551 163 503 101 q 599 358 599 225 l 599 372 q 551 567 599 506 q 397 629 503 629 q 245 567 293 629 q 197 372 197 506 l 197 358 q 245 163 197 225 q 397 101 293 101 m 185 817 l 332 1004 l 465 1004 l 611 817 l 476 817 l 399 922 l 319 817 l 185 817 m 585 953 l 435 1132 l 436 1136 l 585 1136 l 701 953 l 585 953 z "},"ổ":{"ha":796,"x_min":50,"x_max":746,"o":"m 50 0 m 397 -17 q 137 77 224 -17 q 50 365 50 171 q 137 653 50 560 q 397 747 224 747 q 658 653 571 747 q 746 365 746 560 q 658 77 746 171 q 397 -17 571 -17 m 397 101 q 551 163 503 101 q 599 358 599 225 l 599 372 q 551 567 599 506 q 397 629 503 629 q 245 567 293 629 q 197 372 197 506 l 197 358 q 245 163 197 225 q 397 101 293 101 m 185 817 l 332 1004 l 465 1004 l 611 817 l 476 817 l 399 922 l 319 817 l 185 817 m 549 1035 l 567 1035 q 599 1041 589 1035 q 608 1060 608 1047 q 597 1079 608 1074 q 564 1085 586 1085 l 481 1085 l 481 1142 q 586 1153 529 1153 q 682 1134 640 1153 q 724 1069 724 1115 q 697 1013 724 1033 q 631 990 671 993 l 631 953 l 549 953 l 549 1035 z "},"ỗ":{"ha":796,"x_min":50,"x_max":746,"o":"m 50 0 m 397 -17 q 137 77 224 -17 q 50 365 50 171 q 137 653 50 560 q 397 747 224 747 q 658 653 571 747 q 746 365 746 560 q 658 77 746 171 q 397 -17 571 -17 m 397 101 q 551 163 503 101 q 599 358 599 225 l 599 372 q 551 567 599 506 q 397 629 503 629 q 245 567 293 629 q 197 372 197 506 l 197 358 q 245 163 197 225 q 397 101 293 101 m 185 817 l 332 1004 l 465 1004 l 611 817 l 476 817 l 399 922 l 319 817 l 185 817 m 172 1074 q 203 1183 172 1140 q 296 1226 233 1226 q 342 1221 321 1226 q 401 1203 364 1215 q 453 1186 432 1192 q 496 1181 474 1181 q 538 1226 532 1181 l 631 1226 q 599 1117 631 1160 q 506 1074 568 1074 q 460 1079 481 1074 q 401 1097 440 1085 q 348 1114 368 1108 q 306 1119 328 1119 q 264 1074 269 1119 l 172 1074 z "},"ȍ":{"ha":796,"x_min":50,"x_max":746,"o":"m 50 0 m 397 -17 q 137 77 224 -17 q 50 365 50 171 q 137 653 50 560 q 397 747 224 747 q 658 653 571 747 q 746 365 746 560 q 658 77 746 171 q 397 -17 571 -17 m 397 101 q 551 163 503 101 q 599 358 599 225 l 599 372 q 551 567 599 506 q 397 629 503 629 q 245 567 293 629 q 197 372 197 506 l 197 358 q 245 163 197 225 q 397 101 293 101 m 258 821 l 132 1000 l 133 1004 l 283 1004 l 376 821 l 258 821 m 467 821 l 340 1000 l 342 1004 l 492 1004 l 585 821 l 467 821 z "},"ö":{"ha":796,"x_min":50,"x_max":746,"o":"m 50 0 m 397 -17 q 137 77 224 -17 q 50 365 50 171 q 137 653 50 560 q 397 747 224 747 q 658 653 571 747 q 746 365 746 560 q 658 77 746 171 q 397 -17 571 -17 m 397 101 q 551 163 503 101 q 599 358 599 225 l 599 372 q 551 567 599 506 q 397 629 503 629 q 245 567 293 629 q 197 372 197 506 l 197 358 q 245 163 197 225 q 397 101 293 101 m 196 863 l 196 1004 l 331 1004 l 331 863 l 196 863 m 465 863 l 465 1004 l 600 1004 l 600 863 l 465 863 z "},"ọ":{"ha":796,"x_min":50,"x_max":746,"o":"m 50 0 m 397 -17 q 137 77 224 -17 q 50 365 50 171 q 137 653 50 560 q 397 747 224 747 q 658 653 571 747 q 746 365 746 560 q 658 77 746 171 q 397 -17 571 -17 m 397 101 q 551 163 503 101 q 599 358 599 225 l 599 372 q 551 567 599 506 q 397 629 503 629 q 245 567 293 629 q 197 372 197 506 l 197 358 q 245 163 197 225 q 397 101 293 101 m 328 -240 l 328 -94 l 469 -94 l 469 -240 l 328 -240 z "},"ò":{"ha":796,"x_min":50,"x_max":746,"o":"m 50 0 m 397 -17 q 137 77 224 -17 q 50 365 50 171 q 137 653 50 560 q 397 747 224 747 q 658 653 571 747 q 746 365 746 560 q 658 77 746 171 q 397 -17 571 -17 m 397 101 q 551 163 503 101 q 599 358 599 225 l 599 372 q 551 567 599 506 q 397 629 503 629 q 245 567 293 629 q 197 372 197 506 l 197 358 q 245 163 197 225 q 397 101 293 101 m 339 821 l 189 1000 l 190 1004 l 339 1004 l 456 821 l 339 821 z "},"ỏ":{"ha":796,"x_min":50,"x_max":746,"o":"m 50 0 m 397 -17 q 137 77 224 -17 q 50 365 50 171 q 137 653 50 560 q 397 747 224 747 q 658 653 571 747 q 746 365 746 560 q 658 77 746 171 q 397 -17 571 -17 m 397 101 q 551 163 503 101 q 599 358 599 225 l 599 372 q 551 567 599 506 q 397 629 503 629 q 245 567 293 629 q 197 372 197 506 l 197 358 q 245 163 197 225 q 397 101 293 101 m 358 903 l 376 903 q 408 909 399 903 q 418 928 418 915 q 407 947 418 942 q 374 953 396 953 l 290 953 l 290 1010 q 396 1021 339 1021 q 492 1002 450 1021 q 533 938 533 983 q 507 881 533 901 q 440 858 481 861 l 440 821 l 358 821 l 358 903 z "},"ơ":{"ha":796,"x_min":50,"x_max":889,"o":"m 889 953 l 889 878 q 692 608 889 668 q 746 365 746 519 q 658 77 746 171 q 397 -17 571 -17 q 137 77 224 -17 q 50 365 50 171 q 137 653 50 560 q 397 747 224 747 q 633 678 547 747 q 788 790 760 701 l 706 790 l 706 953 l 889 953 m 599 372 q 551 567 599 506 q 397 629 503 629 q 245 567 293 629 q 197 372 197 506 l 197 358 q 245 163 197 225 q 397 101 293 101 q 551 163 503 101 q 599 358 599 225 l 599 372 z "},"ớ":{"ha":796,"x_min":50,"x_max":889,"o":"m 50 0 m 889 953 l 889 878 q 692 608 889 668 q 746 365 746 519 q 658 77 746 171 q 397 -17 571 -17 q 137 77 224 -17 q 50 365 50 171 q 137 653 50 560 q 397 747 224 747 q 633 678 547 747 q 788 790 760 701 l 706 790 l 706 953 l 889 953 m 599 372 q 551 567 599 506 q 397 629 503 629 q 245 567 293 629 q 197 372 197 506 l 197 358 q 245 163 197 225 q 397 101 293 101 q 551 163 503 101 q 599 358 599 225 l 599 372 m 339 821 l 456 1004 l 604 1004 l 606 1000 l 456 821 l 339 821 z "},"ợ":{"ha":796,"x_min":50,"x_max":889,"o":"m 50 0 m 889 953 l 889 878 q 692 608 889 668 q 746 365 746 519 q 658 77 746 171 q 397 -17 571 -17 q 137 77 224 -17 q 50 365 50 171 q 137 653 50 560 q 397 747 224 747 q 633 678 547 747 q 788 790 760 701 l 706 790 l 706 953 l 889 953 m 599 372 q 551 567 599 506 q 397 629 503 629 q 245 567 293 629 q 197 372 197 506 l 197 358 q 245 163 197 225 q 397 101 293 101 q 551 163 503 101 q 599 358 599 225 l 599 372 m 328 -240 l 328 -94 l 469 -94 l 469 -240 l 328 -240 z "},"ờ":{"ha":796,"x_min":50,"x_max":889,"o":"m 50 0 m 889 953 l 889 878 q 692 608 889 668 q 746 365 746 519 q 658 77 746 171 q 397 -17 571 -17 q 137 77 224 -17 q 50 365 50 171 q 137 653 50 560 q 397 747 224 747 q 633 678 547 747 q 788 790 760 701 l 706 790 l 706 953 l 889 953 m 599 372 q 551 567 599 506 q 397 629 503 629 q 245 567 293 629 q 197 372 197 506 l 197 358 q 245 163 197 225 q 397 101 293 101 q 551 163 503 101 q 599 358 599 225 l 599 372 m 339 821 l 189 1000 l 190 1004 l 339 1004 l 456 821 l 339 821 z "},"ở":{"ha":796,"x_min":50,"x_max":889,"o":"m 50 0 m 889 953 l 889 878 q 692 608 889 668 q 746 365 746 519 q 658 77 746 171 q 397 -17 571 -17 q 137 77 224 -17 q 50 365 50 171 q 137 653 50 560 q 397 747 224 747 q 633 678 547 747 q 788 790 760 701 l 706 790 l 706 953 l 889 953 m 599 372 q 551 567 599 506 q 397 629 503 629 q 245 567 293 629 q 197 372 197 506 l 197 358 q 245 163 197 225 q 397 101 293 101 q 551 163 503 101 q 599 358 599 225 l 599 372 m 358 903 l 376 903 q 408 909 399 903 q 418 928 418 915 q 407 947 418 942 q 374 953 396 953 l 290 953 l 290 1010 q 396 1021 339 1021 q 492 1002 450 1021 q 533 938 533 983 q 507 881 533 901 q 440 858 481 861 l 440 821 l 358 821 l 358 903 z "},"ỡ":{"ha":796,"x_min":50,"x_max":889,"o":"m 50 0 m 889 953 l 889 878 q 692 608 889 668 q 746 365 746 519 q 658 77 746 171 q 397 -17 571 -17 q 137 77 224 -17 q 50 365 50 171 q 137 653 50 560 q 397 747 224 747 q 633 678 547 747 q 788 790 760 701 l 706 790 l 706 953 l 889 953 m 599 372 q 551 567 599 506 q 397 629 503 629 q 245 567 293 629 q 197 372 197 506 l 197 358 q 245 163 197 225 q 397 101 293 101 q 551 163 503 101 q 599 358 599 225 l 599 372 m 169 851 q 200 961 169 918 q 293 1004 231 1004 q 340 999 318 1004 q 399 981 361 993 q 450 964 429 969 q 493 958 471 958 q 535 1004 529 958 l 628 1004 q 597 894 628 938 q 503 851 565 851 q 458 857 478 851 q 399 875 438 863 q 345 892 365 886 q 303 897 325 897 q 261 851 267 897 l 169 851 z "},"ő":{"ha":796,"x_min":50,"x_max":746,"o":"m 50 0 m 397 -17 q 137 77 224 -17 q 50 365 50 171 q 137 653 50 560 q 397 747 224 747 q 658 653 571 747 q 746 365 746 560 q 658 77 746 171 q 397 -17 571 -17 m 397 101 q 551 163 503 101 q 599 358 599 225 l 599 372 q 551 567 599 506 q 397 629 503 629 q 245 567 293 629 q 197 372 197 506 l 197 358 q 245 163 197 225 q 397 101 293 101 m 235 821 l 328 1004 l 478 1004 l 479 1000 l 353 821 l 235 821 m 443 821 l 536 1004 l 686 1004 l 688 1000 l 561 821 l 443 821 z "},"ȏ":{"ha":796,"x_min":50,"x_max":746,"o":"m 50 0 m 397 -17 q 137 77 224 -17 q 50 365 50 171 q 137 653 50 560 q 397 747 224 747 q 658 653 571 747 q 746 365 746 560 q 658 77 746 171 q 397 -17 571 -17 m 397 101 q 551 163 503 101 q 599 358 599 225 l 599 372 q 551 567 599 506 q 397 629 503 629 q 245 567 293 629 q 197 372 197 506 l 197 358 q 245 163 197 225 q 397 101 293 101 m 189 833 q 239 953 189 903 q 397 1004 289 1004 q 556 953 506 1004 q 607 833 607 903 l 510 833 q 479 883 506 861 q 397 904 453 904 q 317 883 342 904 q 286 833 292 861 l 189 833 z "},"ō":{"ha":796,"x_min":50,"x_max":746,"o":"m 50 0 m 397 -17 q 137 77 224 -17 q 50 365 50 171 q 137 653 50 560 q 397 747 224 747 q 658 653 571 747 q 746 365 746 560 q 658 77 746 171 q 397 -17 571 -17 m 397 101 q 551 163 503 101 q 599 358 599 225 l 599 372 q 551 567 599 506 q 397 629 503 629 q 245 567 293 629 q 197 372 197 506 l 197 358 q 245 163 197 225 q 397 101 293 101 m 186 864 l 186 971 l 610 971 l 610 864 l 186 864 z "},"ǫ":{"ha":796,"x_min":50,"x_max":746,"o":"m 746 365 q 561 11 746 85 q 526 -34 542 -8 q 511 -86 511 -60 q 528 -140 511 -118 q 582 -161 546 -161 l 624 -161 l 624 -233 q 535 -253 576 -253 q 434 -224 476 -253 q 392 -129 392 -194 q 435 -15 392 -65 q 397 -17 422 -17 q 137 77 224 -17 q 50 365 50 171 q 137 653 50 560 q 397 747 224 747 q 658 653 571 747 q 746 365 746 560 m 197 358 q 245 163 197 225 q 397 101 293 101 q 551 163 503 101 q 599 358 599 225 l 599 372 q 551 567 599 506 q 397 629 503 629 q 245 567 293 629 q 197 372 197 506 l 197 358 z "},"ø":{"ha":849,"x_min":63,"x_max":786,"o":"m 164 75 q 76 365 76 169 q 163 653 76 560 q 424 747 250 747 q 614 707 536 747 l 679 799 l 786 799 l 683 653 q 772 365 772 557 q 685 77 772 171 q 424 -17 597 -17 q 235 22 311 -17 l 171 -68 l 63 -68 l 164 75 m 539 600 q 424 629 494 629 q 272 568 319 629 q 224 374 224 507 l 224 363 q 251 197 224 254 l 539 600 m 424 101 q 576 163 529 101 q 624 357 624 224 l 624 368 q 596 532 624 475 l 310 129 q 424 101 351 101 z "},"ǿ":{"ha":849,"x_min":63,"x_max":786,"o":"m 63 0 m 164 75 q 76 365 76 169 q 163 653 76 560 q 424 747 250 747 q 614 707 536 747 l 679 799 l 786 799 l 683 653 q 772 365 772 557 q 685 77 772 171 q 424 -17 597 -17 q 235 22 311 -17 l 171 -68 l 63 -68 l 164 75 m 539 600 q 424 629 494 629 q 272 568 319 629 q 224 374 224 507 l 224 363 q 251 197 224 254 l 539 600 m 424 101 q 576 163 529 101 q 624 357 624 224 l 624 368 q 596 532 624 475 l 310 129 q 424 101 351 101 m 365 821 l 482 1004 l 631 1004 l 632 1000 l 482 821 l 365 821 z "},"õ":{"ha":796,"x_min":50,"x_max":746,"o":"m 50 0 m 397 -17 q 137 77 224 -17 q 50 365 50 171 q 137 653 50 560 q 397 747 224 747 q 658 653 571 747 q 746 365 746 560 q 658 77 746 171 q 397 -17 571 -17 m 397 101 q 551 163 503 101 q 599 358 599 225 l 599 372 q 551 567 599 506 q 397 629 503 629 q 245 567 293 629 q 197 372 197 506 l 197 358 q 245 163 197 225 q 397 101 293 101 m 169 851 q 200 961 169 918 q 293 1004 231 1004 q 340 999 318 1004 q 399 981 361 993 q 450 964 429 969 q 493 958 471 958 q 535 1004 529 958 l 628 1004 q 597 894 628 938 q 503 851 565 851 q 458 857 478 851 q 399 875 438 863 q 345 892 365 886 q 303 897 325 897 q 261 851 267 897 l 169 851 z "},"œ":{"ha":1311,"x_min":50,"x_max":1261,"o":"m 396 -17 q 137 77 224 -17 q 50 365 50 171 q 137 653 50 560 q 396 747 224 747 q 668 625 581 747 q 943 747 753 747 q 1182 660 1103 747 q 1261 385 1261 574 l 1261 329 l 742 329 q 795 155 747 211 q 944 99 843 99 q 1072 136 1024 99 q 1121 251 1121 174 l 1261 251 q 1173 52 1261 121 q 943 -17 1085 -17 q 668 104 754 -17 q 396 -17 581 -17 m 1113 438 q 943 632 1113 632 q 801 585 849 632 q 744 438 754 539 l 1113 438 m 396 101 q 547 163 500 101 q 594 363 594 225 l 594 364 q 547 566 594 503 q 396 629 500 629 q 244 568 292 629 q 197 374 197 507 l 197 363 q 244 164 197 226 q 396 101 292 101 z "},"p":{"ha":796,"x_min":94,"x_max":746,"o":"m 94 731 l 208 731 l 222 633 l 232 633 q 326 718 267 689 q 457 747 385 747 q 671 653 596 747 q 746 365 746 560 q 671 78 746 174 q 467 -17 596 -17 q 246 83 315 -17 l 238 83 l 238 -240 l 94 -240 l 94 731 m 417 104 q 557 163 515 104 q 599 357 599 221 l 599 369 q 557 567 599 508 q 417 626 515 626 q 281 561 324 626 q 238 369 238 496 l 238 358 q 281 169 238 233 q 417 104 324 104 z "},"þ":{"ha":796,"x_min":94,"x_max":746,"o":"m 94 1010 l 238 1010 l 238 647 l 246 647 q 467 747 315 747 q 672 652 597 747 q 746 365 746 557 q 671 78 746 174 q 467 -17 596 -17 q 246 83 315 -17 l 238 83 l 238 -240 l 94 -240 l 94 1010 m 417 104 q 557 163 515 104 q 599 357 599 221 l 599 369 q 557 567 599 508 q 417 626 515 626 q 281 561 324 626 q 238 369 238 496 l 238 358 q 281 169 238 233 q 417 104 324 104 z "},"q":{"ha":796,"x_min":50,"x_max":701,"o":"m 558 83 l 550 83 q 329 -17 481 -17 q 125 78 200 -17 q 50 365 50 174 q 125 653 50 560 q 339 747 200 747 q 470 718 411 747 q 564 633 529 689 l 574 633 l 588 731 l 701 731 l 701 -240 l 558 -240 l 558 83 m 379 104 q 515 169 472 104 q 558 358 558 233 l 558 369 q 379 626 558 626 q 239 567 281 626 q 197 369 197 508 l 197 357 q 239 163 197 221 q 379 104 281 104 z "},"r":{"ha":486,"x_min":94,"x_max":468,"o":"m 94 731 l 210 731 l 224 618 l 232 618 q 400 747 282 747 q 444 742 425 747 q 468 736 463 738 l 468 600 l 417 600 q 286 553 335 600 q 238 408 238 506 l 238 0 l 94 0 l 94 731 z "},"ŕ":{"ha":486,"x_min":94,"x_max":468,"o":"m 94 0 m 94 731 l 210 731 l 224 618 l 232 618 q 400 747 282 747 q 444 742 425 747 q 468 736 463 738 l 468 600 l 417 600 q 286 553 335 600 q 238 408 238 506 l 238 0 l 94 0 l 94 731 m 185 821 l 301 1004 l 450 1004 l 451 1000 l 301 821 l 185 821 z "},"ř":{"ha":486,"x_min":31,"x_max":468,"o":"m 31 0 m 94 731 l 210 731 l 224 618 l 232 618 q 400 747 282 747 q 444 742 425 747 q 468 736 463 738 l 468 600 l 417 600 q 286 553 335 600 q 238 408 238 506 l 238 0 l 94 0 l 94 731 m 178 817 l 31 1004 l 165 1004 l 244 899 l 322 1004 l 457 1004 l 311 817 l 178 817 z "},"ŗ":{"ha":486,"x_min":94,"x_max":468,"o":"m 94 0 m 94 731 l 210 731 l 224 618 l 232 618 q 400 747 282 747 q 444 742 425 747 q 468 736 463 738 l 468 600 l 417 600 q 286 553 335 600 q 238 408 238 506 l 238 0 l 94 0 l 94 731 m 96 -319 l 154 -203 l 94 -203 l 94 -72 l 238 -72 l 238 -190 l 169 -319 l 96 -319 z "},"ȑ":{"ha":486,"x_min":-22,"x_max":468,"o":"m 0 0 m 94 731 l 210 731 l 224 618 l 232 618 q 400 747 282 747 q 444 742 425 747 q 468 736 463 738 l 468 600 l 417 600 q 286 553 335 600 q 238 408 238 506 l 238 0 l 94 0 l 94 731 m 104 821 l -22 1000 l -21 1004 l 129 1004 l 222 821 l 104 821 m 313 821 l 186 1000 l 188 1004 l 338 1004 l 431 821 l 313 821 z "},"ṛ":{"ha":486,"x_min":94,"x_max":468,"o":"m 94 0 m 94 731 l 210 731 l 224 618 l 232 618 q 400 747 282 747 q 444 742 425 747 q 468 736 463 738 l 468 600 l 417 600 q 286 553 335 600 q 238 408 238 506 l 238 0 l 94 0 l 94 731 m 96 -240 l 96 -94 l 238 -94 l 238 -240 l 96 -240 z "},"ȓ":{"ha":486,"x_min":35,"x_max":468,"o":"m 35 0 m 94 731 l 210 731 l 224 618 l 232 618 q 400 747 282 747 q 444 742 425 747 q 468 736 463 738 l 468 600 l 417 600 q 286 553 335 600 q 238 408 238 506 l 238 0 l 94 0 l 94 731 m 35 833 q 85 953 35 903 q 243 1004 135 1004 q 402 953 351 1004 q 453 833 453 903 l 356 833 q 325 883 351 861 q 243 904 299 904 q 163 883 188 904 q 132 833 138 861 l 35 833 z "},"s":{"ha":718,"x_min":50,"x_max":667,"o":"m 357 -17 q 128 46 207 -17 q 50 203 50 108 q 51 223 50 218 q 51 229 51 228 l 192 229 l 192 217 q 240 127 192 157 q 364 97 289 97 q 476 122 431 97 q 521 193 521 147 q 496 252 521 229 q 435 288 471 275 q 331 319 399 301 q 194 361 247 340 q 105 424 142 382 q 68 535 68 465 q 150 691 68 635 q 368 747 232 747 q 516 722 453 747 q 613 650 579 696 q 647 547 647 604 l 646 519 l 506 519 l 506 529 q 469 603 506 575 q 356 632 432 632 q 248 606 282 632 q 214 546 214 581 q 256 482 214 503 q 388 440 297 461 q 531 398 475 419 q 626 331 586 376 q 667 211 667 286 q 583 39 667 94 q 357 -17 499 -17 z "},"ś":{"ha":718,"x_min":50,"x_max":667,"o":"m 50 0 m 357 -17 q 128 46 207 -17 q 50 203 50 108 q 51 223 50 218 q 51 229 51 228 l 192 229 l 192 217 q 240 127 192 157 q 364 97 289 97 q 476 122 431 97 q 521 193 521 147 q 496 252 521 229 q 435 288 471 275 q 331 319 399 301 q 194 361 247 340 q 105 424 142 382 q 68 535 68 465 q 150 691 68 635 q 368 747 232 747 q 516 722 453 747 q 613 650 579 696 q 647 547 647 604 l 646 519 l 506 519 l 506 529 q 469 603 506 575 q 356 632 432 632 q 248 606 282 632 q 214 546 214 581 q 256 482 214 503 q 388 440 297 461 q 531 398 475 419 q 626 331 586 376 q 667 211 667 286 q 583 39 667 94 q 357 -17 499 -17 m 300 821 l 417 1004 l 565 1004 l 567 1000 l 417 821 l 300 821 z "},"ꞌ":{"ha":235,"x_min":65,"x_max":207,"o":"m 65 400 l 65 1004 l 207 1004 l 207 844 l 149 400 l 65 400 z "},"š":{"ha":718,"x_min":50,"x_max":667,"o":"m 50 0 m 357 -17 q 128 46 207 -17 q 50 203 50 108 q 51 223 50 218 q 51 229 51 228 l 192 229 l 192 217 q 240 127 192 157 q 364 97 289 97 q 476 122 431 97 q 521 193 521 147 q 496 252 521 229 q 435 288 471 275 q 331 319 399 301 q 194 361 247 340 q 105 424 142 382 q 68 535 68 465 q 150 691 68 635 q 368 747 232 747 q 516 722 453 747 q 613 650 579 696 q 647 547 647 604 l 646 519 l 506 519 l 506 529 q 469 603 506 575 q 356 632 432 632 q 248 606 282 632 q 214 546 214 581 q 256 482 214 503 q 388 440 297 461 q 531 398 475 419 q 626 331 586 376 q 667 211 667 286 q 583 39 667 94 q 357 -17 499 -17 m 293 817 l 146 1004 l 281 1004 l 360 899 l 438 1004 l 572 1004 l 426 817 l 293 817 z "},"ş":{"ha":718,"x_min":50,"x_max":667,"o":"m 667 211 q 596 49 667 104 q 403 -15 525 -7 l 397 -49 q 492 -74 456 -51 q 528 -140 528 -96 q 476 -228 528 -203 q 357 -253 424 -253 q 221 -242 283 -253 l 221 -174 l 354 -174 q 398 -167 383 -174 q 413 -140 413 -160 q 400 -115 413 -122 q 357 -107 388 -107 l 292 -107 l 307 -15 q 115 56 181 -4 q 50 203 50 117 q 51 223 50 218 q 51 229 51 228 l 192 229 l 192 217 q 240 127 192 157 q 364 97 289 97 q 476 122 431 97 q 521 193 521 147 q 496 252 521 229 q 435 288 471 275 q 331 319 399 301 q 194 361 247 340 q 105 424 142 382 q 68 535 68 465 q 150 691 68 635 q 368 747 232 747 q 516 722 453 747 q 613 650 579 696 q 647 547 647 604 l 646 519 l 506 519 l 506 529 q 469 603 506 575 q 356 632 432 632 q 248 606 282 632 q 214 546 214 581 q 256 482 214 503 q 388 440 297 461 q 531 398 475 419 q 626 331 586 376 q 667 211 667 286 z "},"ŝ":{"ha":718,"x_min":50,"x_max":667,"o":"m 50 0 m 357 -17 q 128 46 207 -17 q 50 203 50 108 q 51 223 50 218 q 51 229 51 228 l 192 229 l 192 217 q 240 127 192 157 q 364 97 289 97 q 476 122 431 97 q 521 193 521 147 q 496 252 521 229 q 435 288 471 275 q 331 319 399 301 q 194 361 247 340 q 105 424 142 382 q 68 535 68 465 q 150 691 68 635 q 368 747 232 747 q 516 722 453 747 q 613 650 579 696 q 647 547 647 604 l 646 519 l 506 519 l 506 529 q 469 603 506 575 q 356 632 432 632 q 248 606 282 632 q 214 546 214 581 q 256 482 214 503 q 388 440 297 461 q 531 398 475 419 q 626 331 586 376 q 667 211 667 286 q 583 39 667 94 q 357 -17 499 -17 m 146 817 l 293 1004 l 426 1004 l 572 817 l 438 817 l 360 922 l 281 817 l 146 817 z "},"ș":{"ha":718,"x_min":50,"x_max":667,"o":"m 50 0 m 357 -17 q 128 46 207 -17 q 50 203 50 108 q 51 223 50 218 q 51 229 51 228 l 192 229 l 192 217 q 240 127 192 157 q 364 97 289 97 q 476 122 431 97 q 521 193 521 147 q 496 252 521 229 q 435 288 471 275 q 331 319 399 301 q 194 361 247 340 q 105 424 142 382 q 68 535 68 465 q 150 691 68 635 q 368 747 232 747 q 516 722 453 747 q 613 650 579 696 q 647 547 647 604 l 646 519 l 506 519 l 506 529 q 469 603 506 575 q 356 632 432 632 q 248 606 282 632 q 214 546 214 581 q 256 482 214 503 q 388 440 297 461 q 531 398 475 419 q 626 331 586 376 q 667 211 667 286 q 583 39 667 94 q 357 -17 499 -17 m 289 -319 l 347 -203 l 288 -203 l 288 -72 l 431 -72 l 431 -190 l 363 -319 l 289 -319 z "},"ṣ":{"ha":718,"x_min":50,"x_max":667,"o":"m 50 0 m 357 -17 q 128 46 207 -17 q 50 203 50 108 q 51 223 50 218 q 51 229 51 228 l 192 229 l 192 217 q 240 127 192 157 q 364 97 289 97 q 476 122 431 97 q 521 193 521 147 q 496 252 521 229 q 435 288 471 275 q 331 319 399 301 q 194 361 247 340 q 105 424 142 382 q 68 535 68 465 q 150 691 68 635 q 368 747 232 747 q 516 722 453 747 q 613 650 579 696 q 647 547 647 604 l 646 519 l 506 519 l 506 529 q 469 603 506 575 q 356 632 432 632 q 248 606 282 632 q 214 546 214 581 q 256 482 214 503 q 388 440 297 461 q 531 398 475 419 q 626 331 586 376 q 667 211 667 286 q 583 39 667 94 q 357 -17 499 -17 m 289 -240 l 289 -94 l 431 -94 l 431 -240 l 289 -240 z "},"ß":{"ha":849,"x_min":89,"x_max":803,"o":"m 89 714 q 186 945 89 869 q 436 1021 283 1021 q 613 989 538 1021 q 728 901 688 957 q 768 771 768 844 q 724 633 768 692 q 606 549 679 574 l 606 543 q 749 449 696 517 q 803 286 803 381 q 763 140 803 206 q 653 38 724 75 q 496 0 583 0 l 339 0 l 339 118 l 481 118 q 607 171 557 118 q 657 297 657 224 q 604 423 657 372 q 471 474 551 474 l 339 474 l 339 596 l 460 596 q 575 642 528 596 q 622 754 622 688 q 573 863 622 821 q 433 904 524 904 q 286 856 339 904 q 233 719 233 808 l 233 0 l 89 0 l 89 714 z "},"ſ":{"ha":386,"x_min":13,"x_max":399,"o":"m 118 613 l 13 613 l 13 731 l 118 731 l 118 838 q 158 965 118 914 q 289 1015 197 1015 q 347 1010 317 1015 q 399 997 378 1004 l 399 897 l 328 897 q 261 833 261 897 l 261 0 l 118 0 l 118 613 z "},"ə":{"ha":772,"x_min":53,"x_max":719,"o":"m 375 -17 q 133 69 213 -17 q 53 346 53 156 l 53 401 l 574 401 q 519 576 568 519 q 374 632 469 632 q 242 594 292 632 q 193 479 193 557 l 53 479 q 142 679 53 611 q 379 747 231 747 q 635 653 550 747 q 719 365 719 558 q 634 77 719 171 q 375 -17 549 -17 m 376 99 q 513 146 464 99 q 571 293 561 193 l 201 293 q 247 144 201 190 q 376 99 292 99 z "},"t":{"ha":410,"x_min":22,"x_max":378,"o":"m 269 -15 q 149 33 186 -15 q 111 151 111 81 l 111 613 l 22 613 l 22 731 l 113 731 l 140 935 l 254 935 l 254 731 l 378 731 l 378 613 l 254 613 l 254 165 q 314 101 254 101 l 378 101 l 378 4 q 328 -10 360 -4 q 269 -15 297 -15 z "},"ŧ":{"ha":410,"x_min":22,"x_max":378,"o":"m 269 -15 q 149 33 186 -15 q 111 151 111 81 l 111 361 l 22 361 l 22 451 l 111 451 l 111 613 l 22 613 l 22 731 l 113 731 l 140 935 l 254 935 l 254 731 l 378 731 l 378 613 l 254 613 l 254 451 l 378 451 l 378 361 l 254 361 l 254 165 q 314 101 254 101 l 378 101 l 378 4 q 328 -10 360 -4 q 269 -15 297 -15 z "},"ť":{"ha":565,"x_min":22,"x_max":565,"o":"m 425 696 l 481 847 l 425 847 l 425 989 l 565 989 l 565 858 l 499 696 l 425 696 m 269 -15 q 149 33 186 -15 q 111 151 111 81 l 111 613 l 22 613 l 22 731 l 113 731 l 140 935 l 254 935 l 254 731 l 378 731 l 378 613 l 254 613 l 254 165 q 314 101 254 101 l 378 101 l 378 4 q 328 -10 360 -4 q 269 -15 297 -15 z "},"ţ":{"ha":410,"x_min":22,"x_max":388,"o":"m 257 -49 q 351 -74 315 -51 q 388 -140 388 -96 q 335 -228 388 -203 q 217 -253 283 -253 q 81 -242 143 -253 l 81 -174 l 214 -174 q 258 -167 243 -174 q 272 -140 272 -160 q 260 -115 272 -122 q 217 -107 247 -107 l 151 -107 l 172 11 q 111 151 111 54 l 111 613 l 22 613 l 22 731 l 113 731 l 140 935 l 254 935 l 254 731 l 378 731 l 378 613 l 254 613 l 254 165 q 314 101 254 101 l 378 101 l 378 4 q 328 -10 360 -4 q 269 -15 297 -15 l 263 -15 l 257 -49 z "},"ț":{"ha":410,"x_min":22,"x_max":378,"o":"m 22 0 m 269 -15 q 149 33 186 -15 q 111 151 111 81 l 111 613 l 22 613 l 22 731 l 113 731 l 140 935 l 254 935 l 254 731 l 378 731 l 378 613 l 254 613 l 254 165 q 314 101 254 101 l 378 101 l 378 4 q 328 -10 360 -4 q 269 -15 297 -15 m 149 -319 l 207 -203 l 147 -203 l 147 -72 l 290 -72 l 290 -190 l 222 -319 l 149 -319 z "},"ṭ":{"ha":410,"x_min":22,"x_max":378,"o":"m 22 0 m 269 -15 q 149 33 186 -15 q 111 151 111 81 l 111 613 l 22 613 l 22 731 l 113 731 l 140 935 l 254 935 l 254 731 l 378 731 l 378 613 l 254 613 l 254 165 q 314 101 254 101 l 378 101 l 378 4 q 328 -10 360 -4 q 269 -15 297 -15 m 149 -240 l 149 -94 l 290 -94 l 290 -240 l 149 -240 z "},"u":{"ha":796,"x_min":90,"x_max":701,"o":"m 322 -17 q 90 235 90 -17 l 90 731 l 233 731 l 233 253 q 270 138 233 171 q 378 106 307 106 q 468 130 426 106 q 534 199 510 154 q 558 301 558 243 l 558 731 l 701 731 l 701 0 l 586 0 l 572 97 l 563 97 q 461 13 522 42 q 322 -17 400 -17 z "},"ú":{"ha":796,"x_min":90,"x_max":701,"o":"m 90 0 m 322 -17 q 90 235 90 -17 l 90 731 l 233 731 l 233 253 q 270 138 233 171 q 378 106 307 106 q 468 130 426 106 q 534 199 510 154 q 558 301 558 243 l 558 731 l 701 731 l 701 0 l 586 0 l 572 97 l 563 97 q 461 13 522 42 q 322 -17 400 -17 m 336 821 l 453 1004 l 601 1004 l 603 1000 l 453 821 l 336 821 z "},"ŭ":{"ha":796,"x_min":90,"x_max":701,"o":"m 90 0 m 322 -17 q 90 235 90 -17 l 90 731 l 233 731 l 233 253 q 270 138 233 171 q 378 106 307 106 q 468 130 426 106 q 534 199 510 154 q 558 301 558 243 l 558 731 l 701 731 l 701 0 l 586 0 l 572 97 l 563 97 q 461 13 522 42 q 322 -17 400 -17 m 394 833 q 236 884 286 833 q 186 1004 186 935 l 283 1004 q 314 955 289 976 q 394 933 339 933 q 476 955 450 933 q 507 1004 503 976 l 604 1004 q 553 884 604 935 q 394 833 503 833 z "},"ǔ":{"ha":796,"x_min":90,"x_max":701,"o":"m 90 0 m 322 -17 q 90 235 90 -17 l 90 731 l 233 731 l 233 253 q 270 138 233 171 q 378 106 307 106 q 468 130 426 106 q 534 199 510 154 q 558 301 558 243 l 558 731 l 701 731 l 701 0 l 586 0 l 572 97 l 563 97 q 461 13 522 42 q 322 -17 400 -17 m 329 817 l 182 1004 l 317 1004 l 396 899 l 474 1004 l 608 1004 l 463 817 l 329 817 z "},"û":{"ha":796,"x_min":90,"x_max":701,"o":"m 90 0 m 322 -17 q 90 235 90 -17 l 90 731 l 233 731 l 233 253 q 270 138 233 171 q 378 106 307 106 q 468 130 426 106 q 534 199 510 154 q 558 301 558 243 l 558 731 l 701 731 l 701 0 l 586 0 l 572 97 l 563 97 q 461 13 522 42 q 322 -17 400 -17 m 182 817 l 329 1004 l 463 1004 l 608 817 l 474 817 l 396 922 l 317 817 l 182 817 z "},"ȕ":{"ha":796,"x_min":90,"x_max":701,"o":"m 90 0 m 322 -17 q 90 235 90 -17 l 90 731 l 233 731 l 233 253 q 270 138 233 171 q 378 106 307 106 q 468 130 426 106 q 534 199 510 154 q 558 301 558 243 l 558 731 l 701 731 l 701 0 l 586 0 l 572 97 l 563 97 q 461 13 522 42 q 322 -17 400 -17 m 256 821 l 129 1000 l 131 1004 l 281 1004 l 374 821 l 256 821 m 464 821 l 338 1000 l 339 1004 l 489 1004 l 582 821 l 464 821 z "},"ü":{"ha":796,"x_min":90,"x_max":701,"o":"m 90 0 m 322 -17 q 90 235 90 -17 l 90 731 l 233 731 l 233 253 q 270 138 233 171 q 378 106 307 106 q 468 130 426 106 q 534 199 510 154 q 558 301 558 243 l 558 731 l 701 731 l 701 0 l 586 0 l 572 97 l 563 97 q 461 13 522 42 q 322 -17 400 -17 m 193 863 l 193 1004 l 328 1004 l 328 863 l 193 863 m 463 863 l 463 1004 l 597 1004 l 597 863 l 463 863 z "},"ǘ":{"ha":796,"x_min":90,"x_max":701,"o":"m 90 0 m 322 -17 q 90 235 90 -17 l 90 731 l 233 731 l 233 253 q 270 138 233 171 q 378 106 307 106 q 468 130 426 106 q 534 199 510 154 q 558 301 558 243 l 558 731 l 701 731 l 701 0 l 586 0 l 572 97 l 563 97 q 461 13 522 42 q 322 -17 400 -17 m 193 863 l 193 1004 l 328 1004 l 328 863 l 193 863 m 463 863 l 463 1004 l 597 1004 l 597 863 l 463 863 m 336 1053 l 453 1236 l 601 1236 l 603 1232 l 453 1053 l 336 1053 z "},"ǚ":{"ha":796,"x_min":90,"x_max":701,"o":"m 90 0 m 322 -17 q 90 235 90 -17 l 90 731 l 233 731 l 233 253 q 270 138 233 171 q 378 106 307 106 q 468 130 426 106 q 534 199 510 154 q 558 301 558 243 l 558 731 l 701 731 l 701 0 l 586 0 l 572 97 l 563 97 q 461 13 522 42 q 322 -17 400 -17 m 193 863 l 193 1004 l 328 1004 l 328 863 l 193 863 m 463 863 l 463 1004 l 597 1004 l 597 863 l 463 863 m 329 1049 l 182 1236 l 317 1236 l 396 1131 l 474 1236 l 608 1236 l 463 1049 l 329 1049 z "},"ǜ":{"ha":796,"x_min":90,"x_max":701,"o":"m 90 0 m 322 -17 q 90 235 90 -17 l 90 731 l 233 731 l 233 253 q 270 138 233 171 q 378 106 307 106 q 468 130 426 106 q 534 199 510 154 q 558 301 558 243 l 558 731 l 701 731 l 701 0 l 586 0 l 572 97 l 563 97 q 461 13 522 42 q 322 -17 400 -17 m 193 863 l 193 1004 l 328 1004 l 328 863 l 193 863 m 463 863 l 463 1004 l 597 1004 l 597 863 l 463 863 m 336 1053 l 186 1232 l 188 1236 l 336 1236 l 453 1053 l 336 1053 z "},"ǖ":{"ha":796,"x_min":90,"x_max":701,"o":"m 90 0 m 322 -17 q 90 235 90 -17 l 90 731 l 233 731 l 233 253 q 270 138 233 171 q 378 106 307 106 q 468 130 426 106 q 534 199 510 154 q 558 301 558 243 l 558 731 l 701 731 l 701 0 l 586 0 l 572 97 l 563 97 q 461 13 522 42 q 322 -17 400 -17 m 193 863 l 193 1004 l 328 1004 l 328 863 l 193 863 m 463 863 l 463 1004 l 597 1004 l 597 863 l 463 863 m 183 1096 l 183 1203 l 607 1203 l 607 1096 l 183 1096 z "},"ụ":{"ha":796,"x_min":90,"x_max":701,"o":"m 90 0 m 322 -17 q 90 235 90 -17 l 90 731 l 233 731 l 233 253 q 270 138 233 171 q 378 106 307 106 q 468 130 426 106 q 534 199 510 154 q 558 301 558 243 l 558 731 l 701 731 l 701 0 l 586 0 l 572 97 l 563 97 q 461 13 522 42 q 322 -17 400 -17 m 328 -240 l 328 -94 l 469 -94 l 469 -240 l 328 -240 z "},"ù":{"ha":796,"x_min":90,"x_max":701,"o":"m 90 0 m 322 -17 q 90 235 90 -17 l 90 731 l 233 731 l 233 253 q 270 138 233 171 q 378 106 307 106 q 468 130 426 106 q 534 199 510 154 q 558 301 558 243 l 558 731 l 701 731 l 701 0 l 586 0 l 572 97 l 563 97 q 461 13 522 42 q 322 -17 400 -17 m 336 821 l 186 1000 l 188 1004 l 336 1004 l 453 821 l 336 821 z "},"ủ":{"ha":796,"x_min":90,"x_max":701,"o":"m 90 0 m 322 -17 q 90 235 90 -17 l 90 731 l 233 731 l 233 253 q 270 138 233 171 q 378 106 307 106 q 468 130 426 106 q 534 199 510 154 q 558 301 558 243 l 558 731 l 701 731 l 701 0 l 586 0 l 572 97 l 563 97 q 461 13 522 42 q 322 -17 400 -17 m 356 903 l 374 903 q 406 909 396 903 q 415 928 415 915 q 404 947 415 942 q 371 953 393 953 l 288 953 l 288 1010 q 393 1021 336 1021 q 489 1002 447 1021 q 531 938 531 983 q 504 881 531 901 q 438 858 478 861 l 438 821 l 356 821 l 356 903 z "},"ư":{"ha":796,"x_min":90,"x_max":865,"o":"m 865 1004 l 865 929 q 701 672 865 739 l 701 0 l 586 0 l 572 97 l 563 97 q 461 13 522 42 q 322 -17 400 -17 q 90 235 90 -17 l 90 731 l 233 731 l 233 253 q 270 138 233 171 q 378 106 307 106 q 468 130 426 106 q 534 199 510 154 q 558 301 558 243 l 558 731 l 615 731 q 764 842 735 753 l 682 842 l 682 1004 l 865 1004 z "},"ứ":{"ha":796,"x_min":90,"x_max":865,"o":"m 90 0 m 865 1004 l 865 929 q 701 672 865 739 l 701 0 l 586 0 l 572 97 l 563 97 q 461 13 522 42 q 322 -17 400 -17 q 90 235 90 -17 l 90 731 l 233 731 l 233 253 q 270 138 233 171 q 378 106 307 106 q 468 130 426 106 q 534 199 510 154 q 558 301 558 243 l 558 731 l 615 731 q 764 842 735 753 l 682 842 l 682 1004 l 865 1004 m 336 821 l 453 1004 l 601 1004 l 603 1000 l 453 821 l 336 821 z "},"ự":{"ha":796,"x_min":90,"x_max":865,"o":"m 90 0 m 865 1004 l 865 929 q 701 672 865 739 l 701 0 l 586 0 l 572 97 l 563 97 q 461 13 522 42 q 322 -17 400 -17 q 90 235 90 -17 l 90 731 l 233 731 l 233 253 q 270 138 233 171 q 378 106 307 106 q 468 130 426 106 q 534 199 510 154 q 558 301 558 243 l 558 731 l 615 731 q 764 842 735 753 l 682 842 l 682 1004 l 865 1004 m 328 -240 l 328 -94 l 469 -94 l 469 -240 l 328 -240 z "},"ừ":{"ha":796,"x_min":90,"x_max":865,"o":"m 90 0 m 865 1004 l 865 929 q 701 672 865 739 l 701 0 l 586 0 l 572 97 l 563 97 q 461 13 522 42 q 322 -17 400 -17 q 90 235 90 -17 l 90 731 l 233 731 l 233 253 q 270 138 233 171 q 378 106 307 106 q 468 130 426 106 q 534 199 510 154 q 558 301 558 243 l 558 731 l 615 731 q 764 842 735 753 l 682 842 l 682 1004 l 865 1004 m 336 821 l 186 1000 l 188 1004 l 336 1004 l 453 821 l 336 821 z "},"ử":{"ha":796,"x_min":90,"x_max":865,"o":"m 90 0 m 865 1004 l 865 929 q 701 672 865 739 l 701 0 l 586 0 l 572 97 l 563 97 q 461 13 522 42 q 322 -17 400 -17 q 90 235 90 -17 l 90 731 l 233 731 l 233 253 q 270 138 233 171 q 378 106 307 106 q 468 130 426 106 q 534 199 510 154 q 558 301 558 243 l 558 731 l 615 731 q 764 842 735 753 l 682 842 l 682 1004 l 865 1004 m 356 903 l 374 903 q 406 909 396 903 q 415 928 415 915 q 404 947 415 942 q 371 953 393 953 l 288 953 l 288 1010 q 393 1021 336 1021 q 489 1002 447 1021 q 531 938 531 983 q 504 881 531 901 q 438 858 478 861 l 438 821 l 356 821 l 356 903 z "},"ữ":{"ha":796,"x_min":90,"x_max":865,"o":"m 90 0 m 865 1004 l 865 929 q 701 672 865 739 l 701 0 l 586 0 l 572 97 l 563 97 q 461 13 522 42 q 322 -17 400 -17 q 90 235 90 -17 l 90 731 l 233 731 l 233 253 q 270 138 233 171 q 378 106 307 106 q 468 130 426 106 q 534 199 510 154 q 558 301 558 243 l 558 731 l 615 731 q 764 842 735 753 l 682 842 l 682 1004 l 865 1004 m 167 851 q 197 961 167 918 q 290 1004 228 1004 q 337 999 315 1004 q 396 981 358 993 q 447 964 426 969 q 490 958 468 958 q 532 1004 526 958 l 625 1004 q 594 894 625 938 q 500 851 563 851 q 455 857 475 851 q 396 875 435 863 q 342 892 363 886 q 300 897 322 897 q 258 851 264 897 l 167 851 z "},"ű":{"ha":796,"x_min":90,"x_max":701,"o":"m 90 0 m 322 -17 q 90 235 90 -17 l 90 731 l 233 731 l 233 253 q 270 138 233 171 q 378 106 307 106 q 468 130 426 106 q 534 199 510 154 q 558 301 558 243 l 558 731 l 701 731 l 701 0 l 586 0 l 572 97 l 563 97 q 461 13 522 42 q 322 -17 400 -17 m 232 821 l 325 1004 l 475 1004 l 476 1000 l 350 821 l 232 821 m 440 821 l 533 1004 l 683 1004 l 685 1000 l 558 821 l 440 821 z "},"ȗ":{"ha":796,"x_min":90,"x_max":701,"o":"m 90 0 m 322 -17 q 90 235 90 -17 l 90 731 l 233 731 l 233 253 q 270 138 233 171 q 378 106 307 106 q 468 130 426 106 q 534 199 510 154 q 558 301 558 243 l 558 731 l 701 731 l 701 0 l 586 0 l 572 97 l 563 97 q 461 13 522 42 q 322 -17 400 -17 m 186 833 q 236 953 186 903 q 394 1004 286 1004 q 553 953 503 1004 q 604 833 604 903 l 507 833 q 476 883 503 861 q 394 904 450 904 q 314 883 339 904 q 283 833 289 861 l 186 833 z "},"ū":{"ha":796,"x_min":90,"x_max":701,"o":"m 90 0 m 322 -17 q 90 235 90 -17 l 90 731 l 233 731 l 233 253 q 270 138 233 171 q 378 106 307 106 q 468 130 426 106 q 534 199 510 154 q 558 301 558 243 l 558 731 l 701 731 l 701 0 l 586 0 l 572 97 l 563 97 q 461 13 522 42 q 322 -17 400 -17 m 183 864 l 183 971 l 607 971 l 607 864 l 183 864 z "},"ų":{"ha":796,"x_min":90,"x_max":701,"o":"m 613 -253 q 512 -224 556 -253 q 468 -136 468 -196 q 499 -50 468 -87 q 586 7 531 -12 l 572 97 l 563 97 q 461 13 522 42 q 322 -17 400 -17 q 90 235 90 -17 l 90 731 l 233 731 l 233 253 q 270 138 233 171 q 378 106 307 106 q 468 130 426 106 q 534 199 510 154 q 558 301 558 243 l 558 731 l 701 731 l 701 0 q 621 -40 653 -12 q 589 -101 589 -67 q 606 -144 589 -126 q 660 -161 624 -161 l 701 -161 l 701 -233 q 613 -253 651 -253 z "},"ů":{"ha":796,"x_min":90,"x_max":701,"o":"m 90 0 m 322 -17 q 90 235 90 -17 l 90 731 l 233 731 l 233 253 q 270 138 233 171 q 378 106 307 106 q 468 130 426 106 q 534 199 510 154 q 558 301 558 243 l 558 731 l 701 731 l 701 0 l 586 0 l 572 97 l 563 97 q 461 13 522 42 q 322 -17 400 -17 m 396 782 q 297 821 335 782 q 260 917 260 860 q 297 1014 260 975 q 396 1053 333 1053 q 495 1014 458 1053 q 532 917 532 975 q 494 821 532 860 q 396 782 457 782 m 396 850 q 445 869 426 850 q 464 917 464 889 q 445 965 464 946 q 396 985 426 985 q 347 965 365 985 q 328 917 328 946 q 347 869 328 889 q 396 850 367 850 z "},"ũ":{"ha":796,"x_min":90,"x_max":701,"o":"m 90 0 m 322 -17 q 90 235 90 -17 l 90 731 l 233 731 l 233 253 q 270 138 233 171 q 378 106 307 106 q 468 130 426 106 q 534 199 510 154 q 558 301 558 243 l 558 731 l 701 731 l 701 0 l 586 0 l 572 97 l 563 97 q 461 13 522 42 q 322 -17 400 -17 m 167 851 q 197 961 167 918 q 290 1004 228 1004 q 337 999 315 1004 q 396 981 358 993 q 447 964 426 969 q 490 958 468 958 q 532 1004 526 958 l 625 1004 q 594 894 625 938 q 500 851 563 851 q 455 857 475 851 q 396 875 435 863 q 342 892 363 886 q 300 897 322 897 q 258 851 264 897 l 167 851 z "},"v":{"ha":718,"x_min":17,"x_max":701,"o":"m 17 731 l 167 731 l 292 381 q 331 257 308 335 q 360 154 353 179 l 367 154 q 395 253 374 178 q 435 381 417 329 l 558 731 l 701 731 l 432 0 l 286 0 l 17 731 z "},"w":{"ha":1026,"x_min":7,"x_max":1019,"o":"m 7 731 l 154 731 l 257 351 q 281 247 268 304 q 300 168 294 190 l 306 168 q 322 248 310 190 q 344 351 335 306 l 435 731 l 597 731 l 692 350 q 714 256 700 321 q 732 168 728 190 l 739 168 q 756 244 743 189 q 781 350 768 299 l 881 731 l 1019 731 l 800 0 l 647 0 l 549 410 l 515 563 l 510 563 q 498 500 507 546 q 478 410 489 454 l 379 0 l 225 0 l 7 731 z "},"ẃ":{"ha":1026,"x_min":7,"x_max":1019,"o":"m 7 0 m 7 731 l 154 731 l 257 351 q 281 247 268 304 q 300 168 294 190 l 306 168 q 322 248 310 190 q 344 351 335 306 l 435 731 l 597 731 l 692 350 q 714 256 700 321 q 732 168 728 190 l 739 168 q 756 244 743 189 q 781 350 768 299 l 881 731 l 1019 731 l 800 0 l 647 0 l 549 410 l 515 563 l 510 563 q 498 500 507 546 q 478 410 489 454 l 379 0 l 225 0 l 7 731 m 454 821 l 571 1004 l 719 1004 l 721 1000 l 571 821 l 454 821 z "},"ŵ":{"ha":1026,"x_min":7,"x_max":1019,"o":"m 7 0 m 7 731 l 154 731 l 257 351 q 281 247 268 304 q 300 168 294 190 l 306 168 q 322 248 310 190 q 344 351 335 306 l 435 731 l 597 731 l 692 350 q 714 256 700 321 q 732 168 728 190 l 739 168 q 756 244 743 189 q 781 350 768 299 l 881 731 l 1019 731 l 800 0 l 647 0 l 549 410 l 515 563 l 510 563 q 498 500 507 546 q 478 410 489 454 l 379 0 l 225 0 l 7 731 m 300 817 l 447 1004 l 581 1004 l 726 817 l 592 817 l 514 922 l 435 817 l 300 817 z "},"ẅ":{"ha":1026,"x_min":7,"x_max":1019,"o":"m 7 0 m 7 731 l 154 731 l 257 351 q 281 247 268 304 q 300 168 294 190 l 306 168 q 322 248 310 190 q 344 351 335 306 l 435 731 l 597 731 l 692 350 q 714 256 700 321 q 732 168 728 190 l 739 168 q 756 244 743 189 q 781 350 768 299 l 881 731 l 1019 731 l 800 0 l 647 0 l 549 410 l 515 563 l 510 563 q 498 500 507 546 q 478 410 489 454 l 379 0 l 225 0 l 7 731 m 311 863 l 311 1004 l 446 1004 l 446 863 l 311 863 m 581 863 l 581 1004 l 715 1004 l 715 863 l 581 863 z "},"ẁ":{"ha":1026,"x_min":7,"x_max":1019,"o":"m 7 0 m 7 731 l 154 731 l 257 351 q 281 247 268 304 q 300 168 294 190 l 306 168 q 322 248 310 190 q 344 351 335 306 l 435 731 l 597 731 l 692 350 q 714 256 700 321 q 732 168 728 190 l 739 168 q 756 244 743 189 q 781 350 768 299 l 881 731 l 1019 731 l 800 0 l 647 0 l 549 410 l 515 563 l 510 563 q 498 500 507 546 q 478 410 489 454 l 379 0 l 225 0 l 7 731 m 454 821 l 304 1000 l 306 1004 l 454 1004 l 571 821 l 454 821 z "},"x":{"ha":718,"x_min":10,"x_max":708,"o":"m 10 0 l 276 375 l 25 731 l 197 731 l 358 485 l 367 485 l 532 731 l 696 731 l 443 378 l 708 0 l 536 0 l 360 268 l 351 268 l 174 0 l 10 0 z "},"y":{"ha":718,"x_min":17,"x_max":701,"o":"m 176 -253 q 69 -239 108 -253 l 69 -144 l 131 -144 q 300 0 257 -144 l 17 731 l 167 731 l 303 372 q 344 251 321 325 q 374 154 367 178 l 381 154 q 404 240 386 176 q 444 372 422 303 l 558 731 l 701 731 l 460 38 q 347 -177 410 -101 q 176 -253 285 -253 z "},"ý":{"ha":718,"x_min":17,"x_max":701,"o":"m 17 0 m 176 -253 q 69 -239 108 -253 l 69 -144 l 131 -144 q 300 0 257 -144 l 17 731 l 167 731 l 303 372 q 344 251 321 325 q 374 154 367 178 l 381 154 q 404 240 386 176 q 444 372 422 303 l 558 731 l 701 731 l 460 38 q 347 -177 410 -101 q 176 -253 285 -253 m 300 821 l 417 1004 l 565 1004 l 567 1000 l 417 821 l 300 821 z "},"ŷ":{"ha":718,"x_min":17,"x_max":701,"o":"m 17 0 m 176 -253 q 69 -239 108 -253 l 69 -144 l 131 -144 q 300 0 257 -144 l 17 731 l 167 731 l 303 372 q 344 251 321 325 q 374 154 367 178 l 381 154 q 404 240 386 176 q 444 372 422 303 l 558 731 l 701 731 l 460 38 q 347 -177 410 -101 q 176 -253 285 -253 m 146 817 l 293 1004 l 426 1004 l 572 817 l 438 817 l 360 922 l 281 817 l 146 817 z "},"ÿ":{"ha":718,"x_min":17,"x_max":701,"o":"m 17 0 m 176 -253 q 69 -239 108 -253 l 69 -144 l 131 -144 q 300 0 257 -144 l 17 731 l 167 731 l 303 372 q 344 251 321 325 q 374 154 367 178 l 381 154 q 404 240 386 176 q 444 372 422 303 l 558 731 l 701 731 l 460 38 q 347 -177 410 -101 q 176 -253 285 -253 m 157 863 l 157 1004 l 292 1004 l 292 863 l 157 863 m 426 863 l 426 1004 l 561 1004 l 561 863 l 426 863 z "},"ỵ":{"ha":718,"x_min":17,"x_max":701,"o":"m 17 0 m 176 -253 q 69 -239 108 -253 l 69 -144 l 131 -144 q 300 0 257 -144 l 17 731 l 167 731 l 303 372 q 344 251 321 325 q 374 154 367 178 l 381 154 q 404 240 386 176 q 444 372 422 303 l 558 731 l 701 731 l 460 38 q 347 -177 410 -101 q 176 -253 285 -253 m 467 -240 l 467 -94 l 608 -94 l 608 -240 l 467 -240 z "},"ỳ":{"ha":718,"x_min":17,"x_max":701,"o":"m 17 0 m 176 -253 q 69 -239 108 -253 l 69 -144 l 131 -144 q 300 0 257 -144 l 17 731 l 167 731 l 303 372 q 344 251 321 325 q 374 154 367 178 l 381 154 q 404 240 386 176 q 444 372 422 303 l 558 731 l 701 731 l 460 38 q 347 -177 410 -101 q 176 -253 285 -253 m 300 821 l 150 1000 l 151 1004 l 300 1004 l 417 821 l 300 821 z "},"ỷ":{"ha":718,"x_min":17,"x_max":701,"o":"m 17 0 m 176 -253 q 69 -239 108 -253 l 69 -144 l 131 -144 q 300 0 257 -144 l 17 731 l 167 731 l 303 372 q 344 251 321 325 q 374 154 367 178 l 381 154 q 404 240 386 176 q 444 372 422 303 l 558 731 l 701 731 l 460 38 q 347 -177 410 -101 q 176 -253 285 -253 m 319 903 l 338 903 q 369 909 360 903 q 379 928 379 915 q 368 947 379 942 q 335 953 357 953 l 251 953 l 251 1010 q 357 1021 300 1021 q 453 1002 411 1021 q 494 938 494 983 q 468 881 494 901 q 401 858 442 861 l 401 821 l 319 821 l 319 903 z "},"ȳ":{"ha":718,"x_min":17,"x_max":701,"o":"m 17 0 m 176 -253 q 69 -239 108 -253 l 69 -144 l 131 -144 q 300 0 257 -144 l 17 731 l 167 731 l 303 372 q 344 251 321 325 q 374 154 367 178 l 381 154 q 404 240 386 176 q 444 372 422 303 l 558 731 l 701 731 l 460 38 q 347 -177 410 -101 q 176 -253 285 -253 m 147 864 l 147 971 l 571 971 l 571 864 l 147 864 z "},"ỹ":{"ha":718,"x_min":17,"x_max":701,"o":"m 17 0 m 176 -253 q 69 -239 108 -253 l 69 -144 l 131 -144 q 300 0 257 -144 l 17 731 l 167 731 l 303 372 q 344 251 321 325 q 374 154 367 178 l 381 154 q 404 240 386 176 q 444 372 422 303 l 558 731 l 701 731 l 460 38 q 347 -177 410 -101 q 176 -253 285 -253 m 131 851 q 161 961 131 918 q 254 1004 192 1004 q 301 999 279 1004 q 360 981 322 993 q 411 964 390 969 q 454 958 432 958 q 496 1004 490 958 l 589 1004 q 558 894 589 938 q 464 851 526 851 q 419 857 439 851 q 360 875 399 863 q 306 892 326 886 q 264 897 286 897 q 222 851 228 897 l 131 851 z "},"z":{"ha":694,"x_min":32,"x_max":661,"o":"m 32 0 l 32 71 l 432 613 l 58 613 l 58 731 l 640 731 l 640 661 l 240 118 l 661 118 l 661 0 l 32 0 z "},"ź":{"ha":694,"x_min":32,"x_max":661,"o":"m 32 0 m 32 0 l 32 71 l 432 613 l 58 613 l 58 731 l 640 731 l 640 661 l 240 118 l 661 118 l 661 0 l 32 0 m 288 821 l 404 1004 l 553 1004 l 554 1000 l 404 821 l 288 821 z "},"ž":{"ha":694,"x_min":32,"x_max":661,"o":"m 32 0 m 32 0 l 32 71 l 432 613 l 58 613 l 58 731 l 640 731 l 640 661 l 240 118 l 661 118 l 661 0 l 32 0 m 281 817 l 133 1004 l 268 1004 l 347 899 l 425 1004 l 560 1004 l 414 817 l 281 817 z "},"ż":{"ha":694,"x_min":32,"x_max":661,"o":"m 32 0 m 32 0 l 32 71 l 432 613 l 58 613 l 58 731 l 640 731 l 640 661 l 240 118 l 661 118 l 661 0 l 32 0 m 276 858 l 276 1004 l 418 1004 l 418 858 l 276 858 z "},"ẓ":{"ha":694,"x_min":32,"x_max":661,"o":"m 32 0 m 32 0 l 32 71 l 432 613 l 58 613 l 58 731 l 640 731 l 640 661 l 240 118 l 661 118 l 661 0 l 32 0 m 276 -240 l 276 -94 l 418 -94 l 418 -240 l 276 -240 z "},"ﬁ":{"ha":742,"x_min":13,"x_max":647,"o":"m 13 0 m 118 613 l 13 613 l 13 731 l 118 731 l 118 838 q 158 965 118 914 q 289 1015 197 1015 q 347 1010 317 1015 q 399 997 378 1004 l 399 897 l 328 897 q 261 833 261 897 l 261 731 l 399 731 l 399 613 l 261 613 l 261 0 l 118 0 l 118 613 m 504 857 l 504 1004 l 647 1004 l 647 857 l 504 857 m 504 0 l 504 731 l 647 731 l 647 0 l 504 0 z "},"ﬂ":{"ha":742,"x_min":13,"x_max":647,"o":"m 13 0 m 118 613 l 13 613 l 13 731 l 118 731 l 118 838 q 158 965 118 914 q 289 1015 197 1015 q 347 1010 317 1015 q 399 997 378 1004 l 399 897 l 328 897 q 261 833 261 897 l 261 731 l 399 731 l 399 613 l 261 613 l 261 0 l 118 0 l 118 613 m 504 0 l 504 1004 l 647 1004 l 647 0 l 504 0 z "},"ª":{"ha":514,"x_min":35,"x_max":504,"o":"m 504 600 l 504 536 q 439 524 485 524 q 379 540 404 524 q 346 582 354 556 l 343 582 q 192 521 289 521 q 83 549 131 521 q 35 656 35 578 q 113 785 35 749 q 338 821 192 821 l 338 872 q 319 926 338 907 q 250 944 300 944 q 181 926 203 944 q 160 879 160 907 l 160 865 l 58 865 l 58 888 q 112 987 58 951 q 253 1022 165 1022 q 392 985 346 1022 q 439 881 439 949 l 439 631 q 448 608 439 615 q 469 600 457 600 l 504 600 m 338 746 q 191 728 242 746 q 140 663 140 711 q 160 615 140 629 q 218 600 179 600 q 303 630 268 600 q 338 713 338 660 l 338 746 z "},"º":{"ha":507,"x_min":31,"x_max":478,"o":"m 254 519 q 87 581 143 519 q 31 771 31 643 q 87 960 31 899 q 254 1022 143 1022 q 422 960 365 1022 q 478 771 478 899 q 422 581 478 643 q 254 519 365 519 m 254 600 q 344 640 317 600 q 372 769 372 681 q 344 900 372 858 q 254 942 317 942 q 164 902 192 942 q 136 778 136 863 l 136 769 q 164 640 136 681 q 254 600 192 600 z "},"ⁿ":{"ha":519,"x_min":63,"x_max":461,"o":"m 63 1011 l 146 1011 l 156 947 l 161 947 q 310 1022 213 1022 q 461 858 461 1022 l 461 532 l 360 532 l 360 846 q 338 919 360 899 q 274 940 315 940 q 196 905 228 940 q 164 814 164 869 l 164 532 l 63 532 l 63 1011 z "},"Δ":{"ha":949,"x_min":7,"x_max":942,"o":"m 7 0 l 378 953 l 571 953 l 942 0 l 7 0 m 726 132 l 701 199 l 678 260 l 533 647 q 474 815 503 729 l 467 815 l 407 647 l 264 258 q 215 132 229 171 l 726 132 z "},"Ω":{"ha":1063,"x_min":50,"x_max":1013,"o":"m 50 133 l 110 133 q 171 129 135 133 l 240 124 q 68 485 68 250 q 190 845 68 721 q 531 969 311 969 q 872 845 750 969 q 994 485 994 721 q 949 276 994 367 q 819 124 903 185 q 883 129 842 124 q 913 132 896 131 q 951 133 929 133 l 1013 133 l 1013 0 l 574 0 l 574 115 q 772 219 707 140 q 836 465 836 299 l 836 474 q 758 752 836 665 q 531 839 681 839 q 303 753 382 839 q 225 483 225 668 l 225 465 q 290 220 225 299 q 486 115 354 142 l 486 0 l 50 0 l 50 133 z "},"μ":{"ha":800,"x_min":96,"x_max":707,"o":"m 96 731 l 239 731 l 239 253 q 276 138 239 171 q 383 106 313 106 q 474 130 432 106 q 540 199 515 154 q 564 301 564 243 l 564 731 l 707 731 l 707 0 l 592 0 l 578 97 l 568 97 q 480 13 533 42 q 361 -17 426 -17 q 236 19 285 -17 q 239 -82 239 -22 l 239 -240 l 96 -240 l 96 731 z "},"π":{"ha":990,"x_min":38,"x_max":949,"o":"m 132 0 q 207 290 174 104 q 244 613 240 476 q 129 608 171 613 q 58 594 88 604 l 38 689 q 296 731 101 731 l 949 731 l 935 613 l 797 613 l 797 217 q 819 0 797 67 l 679 0 q 660 70 667 17 q 653 204 653 124 l 653 613 l 389 613 q 345 272 378 460 q 275 0 313 83 l 132 0 z "},"¹":{"ha":463,"x_min":72,"x_max":397,"o":"m 72 542 l 192 542 l 192 838 l 72 838 l 72 900 q 157 918 108 903 q 242 953 206 933 l 289 953 l 289 542 l 397 542 l 397 457 l 72 457 l 72 542 z "},"²":{"ha":463,"x_min":57,"x_max":408,"o":"m 57 496 q 92 594 57 554 q 196 688 126 635 q 253 731 232 714 q 288 767 274 749 q 310 825 310 796 q 293 869 310 850 q 239 888 276 888 q 179 868 199 888 q 160 815 160 849 l 160 783 l 65 783 q 64 796 65 786 q 63 818 63 806 q 113 933 63 894 q 242 971 164 971 q 363 930 321 971 q 406 822 406 889 q 384 740 406 776 q 333 679 363 704 q 254 618 304 654 q 228 599 249 614 q 194 571 207 583 q 175 549 181 558 l 408 549 l 408 463 l 57 463 l 57 496 z "},"³":{"ha":463,"x_min":53,"x_max":413,"o":"m 235 454 q 100 495 147 454 q 53 608 53 536 l 53 625 l 149 625 l 149 607 q 169 554 149 572 q 231 536 190 536 q 314 607 314 536 q 226 675 314 675 l 183 675 l 183 758 l 229 758 q 283 775 261 758 q 306 824 306 792 q 285 872 306 856 q 233 888 265 888 q 179 871 200 888 q 158 821 158 854 l 158 804 l 63 804 l 63 828 q 110 931 63 892 q 232 969 157 969 q 356 933 310 969 q 401 828 401 896 q 383 767 401 792 q 329 722 364 742 l 329 719 q 413 601 413 682 q 363 494 413 533 q 235 454 314 454 z "},"⁄":{"ha":232,"x_min":-317,"x_max":547,"o":"m -317 -17 l 442 969 l 547 969 l -211 -17 l -317 -17 z "},"½":{"ha":1158,"x_min":68,"x_max":1085,"o":"m 147 -17 l 906 969 l 1011 969 l 253 -17 l 147 -17 m 68 542 l 189 542 l 189 838 l 68 838 l 68 900 q 153 918 104 903 q 238 953 201 933 l 285 953 l 285 542 l 393 542 l 393 456 l 68 456 l 68 542 m 733 33 q 768 132 733 92 q 872 225 803 172 q 968 311 944 276 q 985 363 985 332 q 968 406 985 388 q 915 425 951 425 q 854 406 874 425 q 835 353 835 386 l 835 321 l 742 321 q 738 356 738 336 q 789 470 738 432 q 918 508 840 508 q 1040 467 997 508 q 1082 360 1082 426 q 1042 251 1082 297 q 929 156 1001 206 q 901 135 921 150 q 869 108 882 121 q 851 86 857 96 l 1085 86 l 1085 0 l 733 0 l 733 33 z "},"⅓":{"ha":1158,"x_min":68,"x_max":1100,"o":"m 151 -17 l 910 969 l 1017 969 l 258 -17 l 151 -17 m 68 542 l 189 542 l 189 838 l 68 838 l 68 900 q 153 918 104 903 q 238 953 201 933 l 285 953 l 285 542 l 393 542 l 393 456 l 68 456 l 68 542 m 922 -17 q 788 24 835 -17 q 740 138 740 65 l 740 154 l 836 154 l 836 136 q 857 83 836 101 q 918 65 878 65 q 1001 136 1001 65 q 914 203 1001 203 l 871 203 l 871 286 l 917 286 q 971 303 949 286 q 993 353 993 321 q 973 401 993 385 q 921 417 953 417 q 867 400 888 417 q 846 350 846 383 l 846 333 l 750 333 l 750 357 q 797 460 750 421 q 919 499 844 499 q 1043 462 997 499 q 1089 357 1089 425 q 1069 296 1089 321 q 1015 251 1050 271 l 1015 249 q 1100 131 1100 213 q 1051 23 1100 63 q 922 -17 1001 -17 z "},"⅔":{"ha":1158,"x_min":53,"x_max":1100,"o":"m 53 496 q 72 569 53 536 q 117 626 90 603 q 192 686 144 650 q 276 758 251 729 q 304 825 304 789 q 288 868 304 850 q 235 886 272 886 q 174 867 193 886 q 154 814 154 847 l 154 782 l 61 782 q 58 794 60 785 q 57 817 57 804 q 108 931 57 893 q 238 969 160 969 q 359 928 317 969 q 401 822 401 888 q 361 713 401 760 q 249 617 321 667 q 198 578 217 593 q 171 547 179 563 l 404 547 l 404 461 l 53 461 l 53 496 m 156 -17 l 914 969 l 1021 969 l 263 -17 l 156 -17 m 922 -17 q 788 24 835 -17 q 740 138 740 65 l 740 154 l 836 154 l 836 136 q 857 83 836 101 q 918 65 878 65 q 1001 136 1001 65 q 914 203 1001 203 l 871 203 l 871 286 l 917 286 q 971 303 949 286 q 993 353 993 321 q 973 401 993 385 q 921 417 953 417 q 867 400 888 417 q 846 350 846 383 l 846 333 l 750 333 l 750 357 q 797 460 750 421 q 919 499 844 499 q 1043 462 997 499 q 1089 357 1089 425 q 1069 296 1089 321 q 1015 251 1050 271 l 1015 249 q 1100 131 1100 213 q 1051 23 1100 63 q 922 -17 1001 -17 z "},"¼":{"ha":1158,"x_min":68,"x_max":1082,"o":"m 147 -17 l 906 969 l 1011 969 l 253 -17 l 147 -17 m 68 542 l 189 542 l 189 838 l 68 838 l 68 900 q 153 918 104 903 q 238 953 201 933 l 285 953 l 285 542 l 393 542 l 393 456 l 68 456 l 68 542 m 925 110 l 710 110 l 710 186 q 831 508 786 321 l 932 508 q 874 334 913 425 q 803 193 835 243 l 925 193 l 925 306 q 963 425 947 357 l 1021 425 l 1021 193 l 1082 193 l 1082 110 l 1021 110 l 1021 0 l 925 0 l 925 110 z "},"¾":{"ha":1158,"x_min":58,"x_max":1082,"o":"m 240 454 q 106 495 154 454 q 58 608 58 536 l 58 625 l 154 625 l 154 607 q 175 554 154 572 q 236 536 196 536 q 319 607 319 536 q 232 675 319 675 l 190 675 l 190 758 l 235 758 q 290 775 268 758 q 311 824 311 792 q 291 872 311 856 q 239 888 271 888 q 185 871 206 888 q 164 821 164 854 l 164 804 l 68 804 l 68 828 q 115 931 68 892 q 238 969 163 969 q 361 933 315 969 q 407 828 407 896 q 388 767 407 792 q 335 722 369 742 l 335 719 q 418 601 418 683 q 369 494 418 533 q 240 454 319 454 m 147 -17 l 906 969 l 1011 969 l 253 -17 l 147 -17 m 925 110 l 710 110 l 710 186 q 831 508 786 321 l 932 508 q 874 334 913 425 q 803 193 835 243 l 925 193 l 925 306 q 963 425 947 357 l 1021 425 l 1021 193 l 1082 193 l 1082 110 l 1021 110 l 1021 0 l 925 0 l 925 110 z "}}}
